<?xml version="1.0" encoding="utf-8"?>
<!-- Generator: Adobe Illustrator 16.0.0, SVG Export Plug-In . SVG Version: 6.00 Build 0)  -->
<!DOCTYPE svg PUBLIC "-//W3C//DTD SVG 1.1//EN" "http://www.w3.org/Graphics/SVG/1.1/DTD/svg11.dtd">
<svg version="1.1" xmlns="http://www.w3.org/2000/svg" xmlns:xlink="http://www.w3.org/1999/xlink" x="0px" y="0px"
	 width="115.492px" height="31.844px" viewBox="0 0 115.492 31.844" enable-background="new 0 0 115.492 31.844"
	 xml:space="preserve">
<g id="image">
</g>
<g id="Layer_1">
	<g>
		<polygon fill="#FFFFFF" points="15.092,0.891 15.092,17.537 23.343,17.537 23.343,15.033 17.979,15.033 17.979,0.891 		"/>
		<g>
			<path fill="#FFFFFF" d="M24.664,1.781C24.664,0.795,25.436,0,26.42,0c0.986,0,1.758,0.77,1.758,1.781
				c0,0.984-0.771,1.756-1.782,1.756C25.436,3.537,24.664,2.766,24.664,1.781 M25.073,7.434l-1.588-0.289V5.365h4.308v12.172h-2.72
				V7.434z"/>
			<path fill="#FFFFFF" d="M29.143,5.365h2.911l1.684,5.725c0.241,0.816,0.553,2.332,0.794,3.344h0.023
				c0.145-0.891,0.457-2.43,0.746-3.463l1.635-5.605h2.814l-4.041,12.172h-2.502L29.143,5.365z"/>
			<path fill="#FFFFFF" d="M41.986,1.781c0-0.986,0.77-1.781,1.757-1.781c0.985,0,1.756,0.77,1.756,1.781
				c0,0.984-0.771,1.756-1.78,1.756C42.756,3.537,41.986,2.766,41.986,1.781 M42.396,7.434l-1.589-0.289V5.365h4.306v12.172h-2.717
				V7.434z"/>
			<path fill="#FFFFFF" d="M48.529,5.365h2.189l0.289,1.322c0.984-0.963,2.092-1.635,3.582-1.635c1.925,0,3.056,0.891,3.056,3.174
				v9.311h-2.742V8.924c0-1.275-0.409-1.586-1.299-1.586c-0.865,0-1.636,0.457-2.333,1.08v9.119h-2.742V5.365z"/>
			<path fill="#FFFFFF" d="M66.279,9.117c0-1.441-0.48-2.045-1.899-2.045c-1.3,0-1.853,0.604-1.853,2.045
				c0,1.369,0.529,1.996,1.853,1.996C65.751,11.113,66.279,10.512,66.279,9.117 M61.879,18.594c0,1.061,0.359,1.637,2.525,1.637
				c1.731,0,2.621-0.65,2.621-1.83c0-1.105-0.697-1.371-2.093-1.371h-2.526C62.096,17.393,61.879,17.922,61.879,18.594
				 M59.352,18.955c0-1.178,0.723-1.9,1.59-2.381c-0.627-0.408-0.963-1.059-0.963-1.852c0-1.18,0.576-1.949,1.322-2.479
				c-0.986-0.674-1.49-1.758-1.49-3.223c0-2.574,1.586-3.971,4.569-3.971c0.746,0,1.395,0.121,1.948,0.314h3.607v1.49l-1.395,0.457
				c0.264,0.555,0.41,1.203,0.41,1.875c0,2.574-1.516,3.803-4.547,3.803c-0.529,0-0.986-0.049-1.42-0.121
				c-0.289,0.338-0.527,0.795-0.527,1.18c0,0.336,0.238,0.6,0.816,0.6h2.213c2.55,0,4.281,1.035,4.281,3.465
				c0,2.621-1.659,4.041-5.411,4.041C60.867,22.154,59.352,20.975,59.352,18.955"/>
			<path fill="#FFFFFF" d="M77.873,0.891h4.016l2.262,7.746c0.434,1.465,0.602,2.764,0.674,3.775h0.049
				c0.096-0.984,0.216-2.311,0.648-3.775l2.213-7.746h4.162v16.646h-2.84V8.996c0-2.766,0.121-4.785,0.193-5.701h-0.048
				c-0.146,0.939-0.65,3.369-1.251,5.293l-1.9,6.014h-2.669l-1.878-5.748c-0.6-1.949-1.058-4.643-1.201-5.559h-0.049
				c0.072,0.891,0.192,3.344,0.192,5.75v8.492h-2.573V0.891z"/>
			<path fill="#FFFFFF" d="M100.458,14.842v-3.078h-0.433c-2.621,0-3.078,0.672-3.078,2.211c0,1.396,0.409,1.877,1.442,1.877
				C99.305,15.852,99.978,15.322,100.458,14.842 M94.156,14c0-2.791,1.637-4.018,5.437-4.018h0.865V9.285
				c0-1.275-0.168-1.971-1.538-1.971c-1.203,0-2.357,0.527-3.367,1.105l-1.012-1.949c1.299-0.842,2.72-1.42,4.667-1.42
				c2.718,0,3.992,1.061,3.992,3.801v8.684h-2.14l-0.337-1.057c-0.673,0.721-1.611,1.369-2.935,1.369
				C95.359,17.848,94.156,16.453,94.156,14"/>
			<path fill="#FFFFFF" d="M112.557,11.428c0-3.441-0.457-4.137-1.9-4.137c-0.986,0-1.636,0.455-2.285,1.08v6.303
				c0.529,0.506,1.275,0.912,2.117,0.912C112.029,15.586,112.557,14.938,112.557,11.428 M105.63,5.365h2.188l0.312,1.273
				c0.914-0.986,1.998-1.586,3.246-1.586c2.456,0,4.115,1.346,4.115,6.229c0,4.836-1.322,6.568-4.115,6.568
				c-1.299,0-2.332-0.602-3.006-1.227v5.65h-2.741V5.365z"/>
		</g>
		<polygon fill="#ED7127" points="0,25.309 1.509,26.82 5.348,23.098 5.348,31.844 7.755,31.844 7.755,23.098 11.559,26.82 
			13.074,25.303 6.534,18.99 		"/>
		<rect x="0.342" y="15.182" fill="#ED7127" width="12.384" height="2.453"/>
	</g>
	<g id="Isolation_Mode">
	</g>
</g>
<g id="Layer_4">
</g>
<g id="_x2014__x2014_Arrow">
</g>
<g id="Isolation_Mode_1_">
</g>
</svg>
