<?xml version="1.0" encoding="utf-8"?>
<!-- Generator: Adobe Illustrator 16.0.0, SVG Export Plug-In . SVG Version: 6.00 Build 0)  -->
<!DOCTYPE svg PUBLIC "-//W3C//DTD SVG 1.1//EN" "http://www.w3.org/Graphics/SVG/1.1/DTD/svg11.dtd">
<svg version="1.1" xmlns="http://www.w3.org/2000/svg" xmlns:xlink="http://www.w3.org/1999/xlink" x="0px" y="0px"
	 width="33.851px" height="39.395px" viewBox="0 0 33.851 39.395" enable-background="new 0 0 33.851 39.395" xml:space="preserve">
<g id="image">
</g>
<g id="Layer_1">
	<g>
		<path fill="#023C4E" d="M33.851,28.902c-0.926,2.051-1.368,2.965-2.56,4.777c-1.661,2.529-4.004,5.682-6.906,5.709
			c-2.58,0.023-3.241-1.68-6.742-1.66s-4.231,1.689-6.812,1.666c-2.903-0.027-5.123-2.871-6.785-5.402
			c-4.647-7.074-5.133-15.379-2.267-19.793c2.037-3.139,5.25-4.973,8.272-4.973c3.076,0,5.011,1.686,7.555,1.686
			c2.467,0,3.971-1.689,7.527-1.689c2.688,0,5.538,1.465,7.567,3.996C26.05,16.863,27.13,26.361,33.851,28.902z"/>
		<g>
			<path fill="#023C4E" d="M22.435,6.396C23.728,4.738,24.709,2.395,24.354,0c-2.111,0.146-4.581,1.49-6.022,3.24
				c-1.31,1.59-2.39,3.947-1.969,6.238C18.667,9.551,21.051,8.174,22.435,6.396z"/>
		</g>
	</g>
	<g id="Isolation_Mode">
	</g>
</g>
<g id="Layer_4">
</g>
<g id="_x2014__x2014_Arrow">
</g>
<g id="Isolation_Mode_1_">
</g>
</svg>
