<?xml version="1.0" encoding="utf-8"?>
<!-- Generator: Adobe Illustrator 16.0.0, SVG Export Plug-In . SVG Version: 6.00 Build 0)  -->
<!DOCTYPE svg PUBLIC "-//W3C//DTD SVG 1.1//EN" "http://www.w3.org/Graphics/SVG/1.1/DTD/svg11.dtd">
<svg version="1.1" xmlns="http://www.w3.org/2000/svg" xmlns:xlink="http://www.w3.org/1999/xlink" x="0px" y="0px"
	 width="70.865px" height="29.334px" viewBox="0 0 70.865 29.334" enable-background="new 0 0 70.865 29.334" xml:space="preserve">
<g id="image">
</g>
<g id="Layer_1">
	<g>
		<path fill="#023C4E" d="M8.373,20.205l-0.537,1.988c-0.129,0.611-0.275,1.377-0.307,1.799H7.504
			c-0.076-0.422-0.191-1.188-0.393-1.898l-0.941-3.18H4.701l-0.9,3.207c-0.205,0.639-0.334,1.393-0.363,1.844H3.41
			c-0.059-0.438-0.191-1.176-0.32-1.756l-0.508-1.988l0.74-0.119v-1.188H0v1.234l0.564,0.1l1.729,6.096h1.609l0.828-2.975
			c0.217-0.768,0.363-1.582,0.418-2.074H5.18c0.07,0.492,0.248,1.32,0.465,2.074l0.885,2.975H8.17l1.711-6.08l0.596-0.115v-1.234
			H7.633v1.188L8.373,20.205z M13.643,25.17c-0.598,0-0.873-0.291-0.873-1.016c0-0.93,0.436-1.164,1.453-1.164h0.465v1.801
			C14.441,25.008,14.135,25.17,13.643,25.17 M17.502,25.182c-0.652,0-0.771-0.084-0.771-0.58v-3.439
			c0-1.797-0.928-2.438-2.699-2.438c-1.246,0-2.277,0.32-3.119,0.871l0.58,1.307c0.697-0.336,1.35-0.537,2.121-0.537
			c0.883,0,1.074,0.377,1.074,1.176v0.363H14.25c-2.496,0-3.525,0.697-3.525,2.365c0,1.596,0.943,2.262,2.248,2.262
			c0.988,0,1.438-0.359,1.885-0.795c0.205,0.607,0.715,0.795,1.41,0.795c0.566,0,1.045-0.174,1.322-0.33L17.502,25.182z
			 M22.959,20.205l-0.93,3.006c-0.176,0.566-0.32,1.088-0.391,1.668h-0.016c-0.07-0.596-0.203-1.117-0.361-1.699l-0.902-2.959
			l0.727-0.119v-1.188h-3.455v1.234l0.625,0.1l2.104,6.096h0.551c-0.334,0.842-0.941,1.336-2.422,1.553l0.477,1.438
			c1.732-0.305,2.775-0.885,3.5-2.99l2.092-6.08l0.621-0.115v-1.234H22.23v1.188L22.959,20.205z M32.855,25.154v-6.24h-4.369v-0.668
			c0-0.783,0.381-1.059,1.16-1.059c0.596,0,1.076,0.217,1.498,0.404l0.623-1.467c-0.682-0.33-1.334-0.537-2.305-0.537
			c-1.658,0-3.021,0.598-3.021,2.758v0.568h-0.797v1.422h0.797v4.818l-0.871,0.145v1.045h3.688v-1.045l-0.771-0.145v-4.818h2.309
			v4.818l-0.77,0.145v1.045h3.672v-1.045L32.855,25.154z M39.373,26.344h2.914v-1.045l-0.855-0.145v-4.412
			c0-1.307-0.639-2.018-1.828-2.018c-0.943,0-1.625,0.363-2.365,1.018l-0.205-0.828H34.41v1.234l0.871,0.201v4.805l-0.871,0.145
			v1.045h3.742v-1.045l-0.828-0.145v-4.342c0.381-0.227,0.842-0.418,1.279-0.418c0.564,0,0.77,0.291,0.77,1.027V26.344z
			 M47.773,26.344h2.557v-1.045l-0.873-0.145v-9.434h-2.916v1.16l0.869,0.189v2.365c-0.42-0.348-0.869-0.711-1.682-0.711
			c-1.596,0-2.771,0.971-2.771,3.934c0,2.873,1.045,3.873,2.668,3.873c0.873,0,1.453-0.318,1.961-0.912L47.773,26.344z
			 M46.236,25.098c-0.797,0-1.088-0.627-1.088-2.396c0-1.828,0.305-2.438,1.217-2.438c0.527,0,0.742,0.203,1.045,0.436v3.99
			C47.135,24.908,46.715,25.098,46.236,25.098 M53.957,25.154v-6.24h-2.916v1.234l0.869,0.201v4.805l-0.869,0.145v1.045h3.785
			v-1.045L53.957,25.154z M52.871,18.129c0.664,0,1.188-0.537,1.188-1.189c0-0.65-0.523-1.188-1.205-1.188
			c-0.666,0-1.203,0.537-1.203,1.201C51.65,17.592,52.188,18.129,52.871,18.129 M60.459,26.344h2.916v-1.045l-0.857-0.145v-4.412
			c0-1.307-0.635-2.018-1.826-2.018c-0.945,0-1.627,0.363-2.365,1.018l-0.205-0.828h-2.625v1.234l0.871,0.201v4.805l-0.871,0.145
			v1.045h3.742v-1.045l-0.824-0.145v-4.342c0.377-0.227,0.84-0.418,1.275-0.418c0.566,0,0.77,0.291,0.77,1.027V26.344z
			 M67.207,29.289c2.379,0,3.615-0.883,3.615-2.609c0-1.555-1.135-2.162-2.668-2.162h-1.717c-0.393,0-0.564-0.148-0.564-0.422
			c0-0.248,0.102-0.436,0.305-0.627c0.217,0.074,0.592,0.117,1.016,0.117c2.133,0,3.047-0.811,3.047-2.305
			c0-0.352-0.117-0.729-0.336-1.018l0.961-0.145v-1.205h-2.264c-0.379-0.115-0.887-0.189-1.367-0.189c-1.898,0-3.02,0.9-3.02,2.469
			c0,0.883,0.381,1.582,0.943,1.945c-0.492,0.361-0.898,0.812-0.898,1.551c0,0.67,0.336,1.088,0.857,1.291
			c-0.682,0.277-1.207,0.654-1.207,1.438C63.91,28.549,64.857,29.289,67.207,29.289 M67.875,26.273c0.826,0,1.133,0.174,1.133,0.768
			s-0.494,1.029-1.787,1.029c-1.176,0-1.537-0.463-1.537-1c0-0.32,0.129-0.596,0.32-0.797H67.875z M67.221,22.441
			c-0.68,0-1.016-0.393-1.016-1.248c0-0.9,0.35-1.264,1.016-1.264c0.74,0,1.047,0.348,1.047,1.232
			C68.268,22.033,67.975,22.441,67.221,22.441"/>
		<path fill="#023C4E" d="M3.191,9.447c-0.596,0-0.871-0.291-0.871-1.018c0-0.928,0.436-1.16,1.449-1.16h0.467v1.799
			C3.99,9.285,3.686,9.447,3.191,9.447 M7.053,9.461c-0.656,0-0.77-0.088-0.77-0.582V5.443c0-1.803-0.928-2.439-2.701-2.439
			c-1.248,0-2.275,0.318-3.119,0.869L1.045,5.18c0.693-0.336,1.35-0.537,2.115-0.537c0.887,0,1.076,0.375,1.076,1.176V6.18H3.801
			c-2.494,0-3.527,0.697-3.527,2.367c0,1.598,0.945,2.264,2.25,2.264c0.984,0,1.438-0.363,1.889-0.799
			c0.201,0.611,0.709,0.799,1.406,0.799c0.564,0,1.045-0.176,1.32-0.334L7.053,9.461z M10.246,3.193H7.619v1.23l0.869,0.203v7.664
			l-0.869,0.145v0.988h3.787v-0.988l-0.871-0.145v-2.162c0.42,0.393,1.016,0.623,1.742,0.623c1.684,0,2.812-0.869,2.812-3.99
			c0-2.902-1.158-3.758-2.553-3.758c-0.943,0-1.668,0.578-2.074,1.029L10.246,3.193z M11.695,9.414c-0.465,0-0.898-0.213-1.16-0.418
			V4.961c0.32-0.232,0.74-0.404,1.232-0.404c0.871,0,1.117,0.537,1.117,2.32C12.885,8.693,12.639,9.414,11.695,9.414 M18.412,3.193
			h-2.623v1.23l0.871,0.203v7.664l-0.871,0.145v0.988h3.789v-0.988l-0.873-0.145v-2.162c0.424,0.393,1.018,0.623,1.744,0.623
			c1.684,0,2.812-0.869,2.812-3.99c0-2.902-1.16-3.758-2.553-3.758c-0.945,0-1.67,0.578-2.078,1.029L18.412,3.193z M19.867,9.414
			c-0.463,0-0.9-0.213-1.162-0.418V4.961c0.32-0.232,0.742-0.404,1.236-0.404c0.867,0,1.117,0.537,1.117,2.32
			C21.059,8.693,20.809,9.414,19.867,9.414 M24.93,9.432l-0.91,0.145v1.047h3.844V9.576l-0.887-0.145V0H24.02v1.156l0.91,0.205
			V9.432z M31.508,9.432V3.193H28.59v1.23l0.873,0.203v4.805L28.59,9.576v1.047h3.787V9.576L31.508,9.432z M30.416,2.406
			c0.67,0,1.193-0.535,1.193-1.188s-0.523-1.191-1.205-1.191c-0.672,0-1.205,0.539-1.205,1.205
			C29.199,1.871,29.732,2.406,30.416,2.406 M36.527,10.811c1.209,0,2.035-0.322,2.785-0.871l-0.549-1.162
			c-0.656,0.379-1.104,0.58-1.934,0.58c-1.273,0-1.652-0.564-1.666-1.914h4.211V6.619c0-2.674-1.105-3.615-3.062-3.615
			c-2.092,0-3.342,1.174-3.342,3.887C32.971,9.693,34.176,10.811,36.527,10.811 M36.324,4.236c0.801,0,1.027,0.406,1.027,1.975
			h-2.174C35.236,4.615,35.6,4.236,36.324,4.236 M44.918,10.623h2.553V9.576l-0.869-0.145V0h-2.92v1.156l0.871,0.191v2.365
			c-0.42-0.348-0.871-0.709-1.684-0.709c-1.594,0-2.77,0.971-2.77,3.932c0,2.873,1.041,3.875,2.67,3.875
			c0.871,0,1.451-0.322,1.957-0.916L44.918,10.623z M43.379,9.373c-0.799,0-1.088-0.625-1.088-2.395
			c0-1.826,0.305-2.438,1.219-2.438c0.521,0,0.742,0.203,1.043,0.436v3.99C44.277,9.184,43.855,9.373,43.379,9.373 M47.674,12.885
			h8.273v-1.479h-8.273V12.885z"/>
	</g>
	<g id="Isolation_Mode">
	</g>
</g>
<g id="Layer_4">
</g>
<g id="_x2014__x2014_Arrow">
</g>
<g id="Isolation_Mode_1_">
</g>
</svg>
