<?xml version="1.0" encoding="utf-8"?>
<!-- Generator: Adobe Illustrator 16.0.0, SVG Export Plug-In . SVG Version: 6.00 Build 0)  -->
<!DOCTYPE svg PUBLIC "-//W3C//DTD SVG 1.1//EN" "http://www.w3.org/Graphics/SVG/1.1/DTD/svg11.dtd">
<svg version="1.1" xmlns="http://www.w3.org/2000/svg" xmlns:xlink="http://www.w3.org/1999/xlink" x="0px" y="0px"
	 width="390.866px" height="264.711px" viewBox="0 0 390.866 264.711" enable-background="new 0 0 390.866 264.711"
	 xml:space="preserve">
<g id="image">
</g>
<g id="Layer_1">
	<g id="Isolation_Mode">
		
			<rect x="2.5" y="158.327" fill="#FFFFFF" stroke="#023C4E" stroke-width="5" stroke-linecap="round" stroke-linejoin="round" stroke-miterlimit="10" width="103.885" height="103.885"/>
		
			<rect x="142.812" y="2.5" fill="#FFFFFF" stroke="#023C4E" stroke-width="5" stroke-linecap="round" stroke-linejoin="round" stroke-miterlimit="10" width="103.883" height="103.884"/>
		<g>
			<rect x="284.481" y="158.327" fill="#FFFFFF" width="103.885" height="103.885"/>
			
				<polyline fill="none" stroke="#EB5C1C" stroke-width="5" stroke-linecap="round" stroke-linejoin="round" stroke-miterlimit="10" points="
				377.793,262.211 336.023,220.441 284.481,220.441 			"/>
			
				<polyline fill="none" stroke="#EB5C1C" stroke-width="5" stroke-linecap="round" stroke-linejoin="round" stroke-miterlimit="10" points="
				377.793,158.327 336.023,200.097 284.481,200.097 			"/>
			
				<path fill="#FFFFFF" stroke="#EB5C1C" stroke-width="5" stroke-linecap="round" stroke-linejoin="round" stroke-miterlimit="10" d="
				M333.074,206.655v7.229c-3.378,1.337-5.77,4.622-5.77,8.476c0,5.034,4.082,9.116,9.119,9.116s9.119-4.082,9.119-9.116
				c0-3.854-2.393-7.139-5.77-8.476v-7.229c3.377-1.337,5.77-4.623,5.77-8.474c0-5.036-4.082-9.117-9.119-9.117
				s-9.119,4.082-9.119,9.117C327.305,202.032,329.696,205.318,333.074,206.655"/>
		</g>
		<g>
			
				<polyline fill="none" stroke="#EB5C1C" stroke-width="5" stroke-linecap="round" stroke-linejoin="round" stroke-miterlimit="10" points="
				223.743,60.125 233.01,72.037 196.83,72.037 196.83,102.325 			"/>
			
				<line fill="none" stroke="#EB5C1C" stroke-width="5" stroke-linecap="round" stroke-linejoin="round" stroke-miterlimit="10" x1="223.743" y1="84.371" x2="233.01" y2="72.459"/>
		</g>
		<g>
			
				<polyline fill="none" stroke="#EB5C1C" stroke-width="5" stroke-linecap="round" stroke-linejoin="round" stroke-miterlimit="10" points="
				169.917,18.372 160.65,30.284 196.83,30.284 196.83,74.572 			"/>
			
				<line fill="none" stroke="#EB5C1C" stroke-width="5" stroke-linecap="round" stroke-linejoin="round" stroke-miterlimit="10" x1="169.917" y1="42.618" x2="160.65" y2="30.707"/>
		</g>
		<path fill="#FFFFFF" stroke="#EB5C1C" stroke-width="5" stroke-miterlimit="10" d="M196.829,37.2
			c-3.133,0-5.669-2.541-5.669-5.675c0-3.122,2.536-5.663,5.669-5.663c3.128,0,5.669,2.541,5.669,5.663
			C202.498,34.659,199.957,37.2,196.829,37.2z"/>
		<path fill="#FFFFFF" stroke="#EB5C1C" stroke-width="5" stroke-miterlimit="10" d="M196.829,77.929
			c-3.133,0-5.669-2.54-5.669-5.674c0-3.123,2.536-5.663,5.669-5.663c3.128,0,5.669,2.54,5.669,5.663
			C202.498,75.389,199.957,77.929,196.829,77.929z"/>
		<g>
			
				<rect x="284.481" y="2.5" fill="#FFFFFF" stroke="#023C4E" stroke-width="5" stroke-linecap="round" stroke-linejoin="round" stroke-miterlimit="10" width="103.884" height="103.884"/>
			<g>
				<g>
					<defs>
						<rect id="SVGID_547_" x="286.764" y="5.088" width="99.493" height="99"/>
					</defs>
					<clipPath id="SVGID_2_">
						<use xlink:href="#SVGID_547_"  overflow="visible"/>
					</clipPath>
					
						<line clip-path="url(#SVGID_2_)" fill="none" stroke="#EB5C1C" stroke-width="5" stroke-linecap="round" stroke-linejoin="round" stroke-miterlimit="10" x1="393.347" y1="-14.609" x2="285.763" y2="93.986"/>
					
						<polyline clip-path="url(#SVGID_2_)" fill="none" stroke="#EB5C1C" stroke-width="5" stroke-linecap="round" stroke-miterlimit="10" points="
						398.601,119.998 347.811,68.731 310.782,106.108 					"/>
					<polyline clip-path="url(#SVGID_2_)" fill="none" stroke="#EB5C1C" stroke-width="5" stroke-miterlimit="10" points="
						416.864,102.572 365.574,50.799 405.355,10.645 					"/>
				</g>
			</g>
			
				<line fill="none" stroke="#023C4E" stroke-width="3" stroke-linecap="round" stroke-linejoin="round" stroke-miterlimit="10" x1="287.674" y1="54.088" x2="388.366" y2="54.088"/>
			
				<line fill="none" stroke="#023C4E" stroke-width="3" stroke-linecap="round" stroke-linejoin="round" stroke-miterlimit="10" x1="336.549" y1="5.088" x2="336.549" y2="104.088"/>
		</g>
		<g>
			<g>
				
					<rect x="2.5" y="2.5" fill="#FFFFFF" stroke="#023C4E" stroke-width="5" stroke-linecap="round" stroke-linejoin="round" stroke-miterlimit="10" width="103.885" height="103.885"/>
			</g>
			<line fill="none" stroke="#EB5C1C" stroke-width="15" stroke-miterlimit="10" x1="60.253" y1="63.592" x2="74.361" y2="77.699"/>
			
				<path fill="#FFFFFF" stroke="#EB5C1C" stroke-width="5" stroke-linecap="round" stroke-linejoin="round" stroke-miterlimit="10" d="
				M69.247,48.504c0,10.732-8.697,19.434-19.451,19.434c-10.719,0-19.425-8.701-19.425-19.434c0-10.718,8.706-19.419,19.425-19.419
				C60.55,29.085,69.247,37.786,69.247,48.504z"/>
			<path fill="#FFFFFF" stroke="#EB5C1C" stroke-width="5" stroke-miterlimit="10" d="M74.361,83.368
				c-3.133,0-5.669-2.541-5.669-5.675c0-3.122,2.536-5.663,5.669-5.663c3.128,0,5.669,2.541,5.669,5.663
				C80.03,80.828,77.489,83.368,74.361,83.368z"/>
		</g>
		<g>
			<g>
				<rect x="142.812" y="158.327" fill="#FFFFFF" width="103.885" height="103.885"/>
			</g>
			
				<line fill="none" stroke="#023C4E" stroke-width="3" stroke-linecap="round" stroke-linejoin="round" stroke-miterlimit="10" x1="144.408" y1="227.583" x2="245.101" y2="227.583"/>
			
				<line fill="none" stroke="#023C4E" stroke-width="3" stroke-linecap="round" stroke-linejoin="round" stroke-miterlimit="10" x1="144.408" y1="192.955" x2="245.101" y2="192.955"/>
			
				<line fill="none" stroke="#023C4E" stroke-width="3" stroke-linecap="round" stroke-linejoin="round" stroke-miterlimit="10" x1="177.439" y1="159.515" x2="177.439" y2="260.802"/>
			
				<line fill="none" stroke="#023C4E" stroke-width="3" stroke-linecap="round" stroke-linejoin="round" stroke-miterlimit="10" x1="212.068" y1="159.515" x2="212.068" y2="260.802"/>
			
				<polyline fill="none" stroke="#EB5C1C" stroke-width="5" stroke-linecap="round" stroke-linejoin="round" stroke-miterlimit="10" points="
				143.793,236.001 178.146,201.103 203.921,229.131 245.404,182.03 			"/>
			<g>
				
					<rect x="142.812" y="158.327" fill="none" stroke="#023C4E" stroke-width="5" stroke-linecap="round" stroke-linejoin="round" stroke-miterlimit="10" width="103.885" height="103.885"/>
			</g>
		</g>
		
			<rect x="284.481" y="158.327" fill="none" stroke="#023C4E" stroke-width="5" stroke-linecap="round" stroke-linejoin="round" stroke-miterlimit="10" width="103.885" height="103.885"/>
		<g>
			<circle fill="#EB5C1C" cx="54.219" cy="218.8" r="11.686"/>
			<g>
				<path fill="none" stroke="#EB5C1C" stroke-width="5" stroke-miterlimit="10" d="M42.732,191.928
					c-10.357,4.521-17.602,14.849-17.602,26.873c0,16.189,13.123,29.312,29.312,29.312c16.188,0,29.311-13.123,29.311-29.312
					c0-11.932-7.133-22.191-17.365-26.766"/>
			</g>
			<g>
				<polyline fill="none" stroke="#EB5C1C" stroke-width="5" stroke-linecap="round" stroke-miterlimit="10" points="
					34.223,178.371 54.605,224.583 74.859,178.657 				"/>
			</g>
			<g>
				<path fill="none" stroke="#EB5C1C" stroke-width="5" stroke-linecap="round" stroke-miterlimit="10" d="M67.566,174.394
					c-4.227-1.273-8.705-1.969-13.348-1.969c-4.406,0-8.66,0.631-12.695,1.781"/>
			</g>
		</g>
	</g>
</g>
<g id="Layer_4">
</g>
<g id="_x2014__x2014_Arrow">
</g>
<g id="Isolation_Mode_1_">
</g>
</svg>
