<?xml version="1.0" encoding="utf-8"?>
<!-- Generator: Adobe Illustrator 16.0.0, SVG Export Plug-In . SVG Version: 6.00 Build 0)  -->
<!DOCTYPE svg PUBLIC "-//W3C//DTD SVG 1.1//EN" "http://www.w3.org/Graphics/SVG/1.1/DTD/svg11.dtd">
<svg version="1.1" xmlns="http://www.w3.org/2000/svg" xmlns:xlink="http://www.w3.org/1999/xlink" x="0px" y="0px" width="304px"
	 height="304px" viewBox="0 0 304 304" enable-background="new 0 0 304 304" xml:space="preserve">
<g id="image">
</g>
<g id="Layer_1">
	
		<rect x="2" y="2" fill="#FFFFFF" stroke="#023C4E" stroke-width="4" stroke-linecap="round" stroke-miterlimit="10" width="300" height="300"/>
	<g id="Isolation_Mode">
	</g>
	<g>
		<defs>
			<rect id="SVGID_549_" x="4" y="4" width="296" height="296"/>
		</defs>
		<clipPath id="SVGID_2_">
			<use xlink:href="#SVGID_549_"  overflow="visible"/>
		</clipPath>
		<g clip-path="url(#SVGID_2_)">
			<polyline fill="#FFFFFF" stroke="#023C4E" stroke-width="4" stroke-miterlimit="10" points="237.041,231.182 302.066,166.156 
				271.394,135.484 365.915,40.963 137.855,-187.097 -190.237,140.997 37.822,369.057 70.452,401.22 157.906,310.317 
				194.713,273.51 			"/>
		</g>
		<g clip-path="url(#SVGID_2_)">
			
				<line fill="#FFFFFF" stroke="#023C4E" stroke-width="4" stroke-miterlimit="10" x1="3.625" y1="-0.847" x2="49.219" y2="44.745"/>
			
				<line fill="#FFFFFF" stroke="#023C4E" stroke-width="4" stroke-miterlimit="10" x1="219.293" y1="41.586" x2="313.5" y2="-52.623"/>
			<polyline fill="#FFFFFF" stroke="#023C4E" stroke-width="4" stroke-miterlimit="10" points="49.219,44.745 132.676,128.203 
				190.794,70.085 			"/>
			<g>
				<defs>
					<polygon id="SVGID_551_" points="-18.499,399.133 106.547,274.088 -42.156,125.388 -170.561,253.792 					"/>
				</defs>
				<clipPath id="SVGID_4_">
					<use xlink:href="#SVGID_551_"  overflow="visible"/>
				</clipPath>
				<g clip-path="url(#SVGID_4_)">
					
						<line fill="none" stroke="#023C4E" stroke-width="4" stroke-miterlimit="10" x1="2.785" y1="157.793" x2="2.787" y2="438.373"/>
					
						<line fill="none" stroke="#023C4E" stroke-width="4" stroke-miterlimit="10" x1="19.269" y1="162.763" x2="19.271" y2="443.343"/>
					
						<line fill="none" stroke="#023C4E" stroke-width="4" stroke-miterlimit="10" x1="35.752" y1="167.733" x2="35.754" y2="448.313"/>
					
						<line fill="none" stroke="#023C4E" stroke-width="4" stroke-miterlimit="10" x1="52.236" y1="172.704" x2="52.238" y2="453.283"/>
					<line fill="none" stroke="#023C4E" stroke-width="4" stroke-miterlimit="10" x1="69" y1="178" x2="69" y2="458"/>
					
						<line fill="none" stroke="#023C4E" stroke-width="4" stroke-miterlimit="10" x1="85.203" y1="182.644" x2="85.205" y2="463.224"/>
					<line fill="none" stroke="#023C4E" stroke-width="4" stroke-miterlimit="10" x1="102" y1="188" x2="102" y2="468"/>
					
						<line fill="none" stroke="#023C4E" stroke-width="4" stroke-miterlimit="10" x1="118.17" y1="192.584" x2="118.172" y2="473.164"/>
				</g>
				<use xlink:href="#SVGID_551_"  overflow="visible" fill="none" stroke="#023C4E" stroke-width="3.831" stroke-miterlimit="10"/>
			</g>
		</g>
		<g clip-path="url(#SVGID_2_)">
			<defs>
				
					<rect id="SVGID_553_" x="274.168" y="-14.9" transform="matrix(0.7071 -0.7071 0.7071 0.7071 61.0696 220.8757)" width="45.981" height="103.238"/>
			</defs>
			<clipPath id="SVGID_6_">
				<use xlink:href="#SVGID_553_"  overflow="visible"/>
			</clipPath>
		</g>
		
			<line clip-path="url(#SVGID_2_)" fill="none" stroke="#023C4E" stroke-width="4" stroke-miterlimit="10" x1="244.401" y1="16.476" x2="317.401" y2="89.477"/>
		<g clip-path="url(#SVGID_2_)">
			<defs>
				<path id="SVGID_555_" d="M157.906,310.317l144.16-144.16l-30.673-30.672l78.521-78.522L253.91-39.041l63.491-48.905
					L416.938-6.95c0,0,85.495,153.328,85.495,156.91s-50.997,179.584-53.997,189.078S336.5,558.521,336.5,558.521l-162.55-37.585
					c0,0-38.782-76.079-37.45-82.339S157.906,310.317,157.906,310.317z"/>
			</defs>
			<clipPath id="SVGID_8_">
				<use xlink:href="#SVGID_555_"  overflow="visible"/>
			</clipPath>
			<g clip-path="url(#SVGID_8_)">
				<g>
					<path fill="#023C4E" d="M279.75,179.028c1.135,0.002,2.055,0.926,2.057,2.063c0,1.135-0.922,2.055-2.057,2.058
						c-1.139-0.002-2.059-0.924-2.062-2.058C277.691,179.954,278.613,179.032,279.75,179.028z"/>
					<path fill="#023C4E" d="M293.469,179.031c1.139,0.002,2.061,0.922,2.061,2.059c0,1.136-0.922,2.058-2.059,2.059
						c-1.137,0-2.059-0.923-2.059-2.058C291.412,179.954,292.336,179.031,293.469,179.031z"/>
				</g>
				<g>
					<path fill="#023C4E" d="M279.749,163.383c1.135,0,2.055,0.926,2.057,2.062c0,1.136-0.922,2.063-2.057,2.058
						c-1.139-0.004-2.062-0.924-2.062-2.058C277.688,164.309,278.612,163.384,279.749,163.383z"/>
					<path fill="#023C4E" d="M293.468,163.386c1.139,0.002,2.061,0.922,2.061,2.059c0,1.137-0.921,2.059-2.059,2.059
						c-1.137,0-2.059-0.922-2.059-2.058C291.411,164.309,292.335,163.386,293.468,163.386z"/>
				</g>
				<g>
					<path fill="#023C4E" d="M279.75,147.738c1.135,0.001,2.056,0.926,2.057,2.062c0,1.136-0.922,2.057-2.057,2.059
						c-1.139-0.001-2.062-0.924-2.062-2.058C277.688,148.664,278.613,147.741,279.75,147.738z"/>
					<path fill="#023C4E" d="M293.469,147.741c1.139,0.001,2.061,0.922,2.061,2.058c0,1.137-0.922,2.06-2.059,2.06
						s-2.059-0.922-2.059-2.059S292.336,147.741,293.469,147.741z"/>
				</g>
				<g>
					<circle fill="#023C4E" cx="279.749" cy="134.155" r="2.06"/>
					<circle fill="#023C4E" cx="293.47" cy="134.156" r="2.059"/>
				</g>
				<g>
					<circle fill="#023C4E" cx="279.749" cy="118.511" r="2.06"/>
					<circle fill="#023C4E" cx="293.469" cy="118.513" r="2.059"/>
				</g>
				<g>
					<circle fill="#023C4E" cx="279.748" cy="102.866" r="2.06"/>
					<circle fill="#023C4E" cx="293.468" cy="102.868" r="2.059"/>
				</g>
				<g>
					<circle fill="#023C4E" cx="279.749" cy="87.222" r="2.06"/>
					<circle fill="#023C4E" cx="293.47" cy="87.223" r="2.059"/>
				</g>
				<g>
					<circle fill="#023C4E" cx="279.747" cy="71.578" r="2.06"/>
					<circle fill="#023C4E" cx="293.469" cy="71.58" r="2.059"/>
				</g>
				<g>
					<circle fill="#023C4E" cx="279.748" cy="55.933" r="2.06"/>
					<circle fill="#023C4E" cx="293.469" cy="55.935" r="2.059"/>
				</g>
				<g>
					<path fill="#023C4E" d="M279.746,38.229c1.137,0.001,2.061,0.926,2.059,2.06c0.002,1.14-0.922,2.061-2.057,2.06
						c-1.139,0-2.059-0.924-2.061-2.06C277.689,39.152,278.613,38.229,279.746,38.229z"/>
					<circle fill="#023C4E" cx="293.469" cy="40.29" r="2.059"/>
				</g>
			</g>
			<g clip-path="url(#SVGID_8_)">
				<g>
					<path fill="#023C4E" d="M157.75,303.739c1.135-0.001,2.056,0.925,2.057,2.061c0,1.136-0.922,2.058-2.057,2.06
						c-1.139-0.002-2.062-0.925-2.062-2.059C155.688,304.665,156.613,303.74,157.75,303.739z"/>
					<circle fill="#023C4E" cx="171.47" cy="305.8" r="2.059"/>
					<path fill="#023C4E" d="M185.195,303.742c1.133-0.002,2.059,0.922,2.057,2.058c0,1.135-0.924,2.058-2.058,2.061
						c-1.138-0.001-2.058-0.922-2.058-2.061C183.137,304.663,184.057,303.74,185.195,303.742z"/>
					<circle fill="#023C4E" cx="198.916" cy="305.799" r="2.059"/>
					<circle fill="#023C4E" cx="212.641" cy="305.8" r="2.059"/>
					<circle fill="#023C4E" cx="226.364" cy="305.799" r="2.059"/>
					<path fill="#023C4E" d="M240.088,303.74c1.135,0.001,2.056,0.924,2.057,2.062c0,1.133-0.922,2.057-2.06,2.057
						c-1.133,0.001-2.059-0.923-2.06-2.059C238.024,304.664,238.952,303.74,240.088,303.74z"/>
					<circle fill="#023C4E" cx="253.809" cy="305.8" r="2.058"/>
					<path fill="#023C4E" d="M267.529,303.74c1.141,0.003,2.061,0.925,2.062,2.062c0,1.137-0.922,2.059-2.059,2.058
						c-1.138,0.001-2.059-0.923-2.059-2.056C265.475,304.663,266.396,303.741,267.529,303.74z"/>
					<path fill="#023C4E" d="M281.256,303.743c1.135-0.003,2.059,0.921,2.059,2.06c0,1.135-0.924,2.059-2.06,2.057
						c-1.135,0.001-2.058-0.924-2.058-2.06C279.199,304.664,280.119,303.741,281.256,303.743z"/>
				</g>
				<g>
					<circle fill="#023C4E" cx="157.75" cy="290.156" r="2.061"/>
					<circle fill="#023C4E" cx="171.47" cy="290.157" r="2.059"/>
					<circle fill="#023C4E" cx="185.195" cy="290.157" r="2.059"/>
					<circle fill="#023C4E" cx="198.916" cy="290.155" r="2.059"/>
					<circle fill="#023C4E" cx="212.641" cy="290.156" r="2.059"/>
					<circle fill="#023C4E" cx="226.364" cy="290.155" r="2.06"/>
					<path fill="#023C4E" d="M240.089,288.097c1.134,0.001,2.055,0.924,2.057,2.062c0,1.134-0.923,2.058-2.06,2.057
						c-1.134,0.001-2.058-0.922-2.06-2.059C238.027,289.021,238.952,288.096,240.089,288.097z"/>
					<circle fill="#023C4E" cx="253.809" cy="290.156" r="2.058"/>
					<path fill="#023C4E" d="M267.529,288.096c1.142,0.001,2.061,0.925,2.062,2.062c0,1.137-0.922,2.058-2.059,2.058
						c-1.138,0-2.059-0.923-2.059-2.057C265.475,289.02,266.396,288.095,267.529,288.096z"/>
					<path fill="#023C4E" d="M281.257,288.099c1.134-0.002,2.058,0.922,2.058,2.06c0,1.136-0.924,2.059-2.06,2.057
						c-1.135,0.002-2.058-0.923-2.058-2.059C279.199,289.021,280.119,288.097,281.257,288.099z"/>
				</g>
				<g>
					<circle fill="#023C4E" cx="157.749" cy="274.511" r="2.06"/>
					<circle fill="#023C4E" cx="171.47" cy="274.512" r="2.059"/>
					<path fill="#023C4E" d="M185.195,272.454c1.133-0.002,2.059,0.922,2.057,2.058c0,1.136-0.924,2.059-2.057,2.06
						c-1.139,0-2.059-0.923-2.059-2.06C183.137,273.376,184.057,272.452,185.195,272.454z"/>
					<path fill="#023C4E" d="M198.916,272.452c1.137,0,2.059,0.922,2.059,2.059c0.002,1.137-0.922,2.053-2.059,2.058
						c-1.135,0.005-2.059-0.922-2.057-2.057C196.857,273.375,197.781,272.453,198.916,272.452z"/>
					<circle fill="#023C4E" cx="212.641" cy="274.511" r="2.06"/>
					<circle fill="#023C4E" cx="226.363" cy="274.511" r="2.06"/>
					<path fill="#023C4E" d="M240.088,272.452c1.135,0.001,2.057,0.924,2.057,2.062c0,1.133-0.922,2.058-2.059,2.057
						c-1.135,0.001-2.061-0.922-2.061-2.059C238.025,273.376,238.951,272.451,240.088,272.452z"/>
					<circle fill="#023C4E" cx="253.81" cy="274.512" r="2.059"/>
					<path fill="#023C4E" d="M267.529,272.451c1.141,0.003,2.061,0.925,2.062,2.062c0,1.138-0.922,2.059-2.061,2.058
						c-1.135,0-2.057-0.923-2.057-2.057C265.475,273.375,266.396,272.453,267.529,272.451z"/>
					<path fill="#023C4E" d="M281.256,272.454c1.135-0.002,2.059,0.922,2.059,2.06c0,1.136-0.924,2.06-2.059,2.057
						c-1.137,0.002-2.059-0.923-2.059-2.059S280.119,272.453,281.256,272.454z"/>
				</g>
				<g>
					<circle fill="#023C4E" cx="157.749" cy="258.867" r="2.06"/>
					<circle fill="#023C4E" cx="171.469" cy="258.868" r="2.059"/>
					<circle fill="#023C4E" cx="185.195" cy="258.868" r="2.059"/>
					<path fill="#023C4E" d="M198.916,256.808c1.137,0,2.059,0.922,2.058,2.058c0.002,1.138-0.922,2.053-2.057,2.058
						c-1.137,0.005-2.059-0.922-2.059-2.057C196.858,257.731,197.78,256.809,198.916,256.808z"/>
					<circle fill="#023C4E" cx="212.64" cy="258.867" r="2.059"/>
					<circle fill="#023C4E" cx="226.363" cy="258.867" r="2.06"/>
					<circle fill="#023C4E" cx="240.087" cy="258.867" r="2.059"/>
					<circle fill="#023C4E" cx="253.809" cy="258.868" r="2.059"/>
					<circle fill="#023C4E" cx="267.531" cy="258.867" r="2.06"/>
					<path fill="#023C4E" d="M281.256,256.81c1.135-0.002,2.058,0.923,2.058,2.06c0,1.136-0.924,2.059-2.059,2.057
						c-1.136,0.002-2.059-0.923-2.059-2.06C279.197,257.732,280.118,256.809,281.256,256.81z"/>
				</g>
				<g>
					<path fill="#023C4E" d="M157.746,241.163c1.137,0.001,2.061,0.925,2.059,2.06c0.003,1.138-0.921,2.06-2.056,2.06
						c-1.139,0-2.059-0.925-2.062-2.059C155.689,242.086,156.613,241.164,157.746,241.163z"/>
					<circle fill="#023C4E" cx="171.469" cy="243.223" r="2.059"/>
					<path fill="#023C4E" d="M185.195,241.164c1.133-0.001,2.057,0.923,2.055,2.058c0.001,1.136-0.922,2.059-2.055,2.061
						c-1.139,0-2.06-0.924-2.059-2.06C183.135,242.087,184.057,241.163,185.195,241.164z"/>
					<path fill="#023C4E" d="M198.916,241.164c1.137,0,2.059,0.922,2.057,2.058c0.003,1.138-0.92,2.052-2.056,2.058
						c-1.137,0.006-2.06-0.922-2.06-2.057C196.857,242.086,197.781,241.164,198.916,241.164z"/>
					<circle fill="#023C4E" cx="212.639" cy="243.222" r="2.059"/>
					<circle fill="#023C4E" cx="226.362" cy="243.222" r="2.06"/>
					<path fill="#023C4E" d="M240.088,241.163c1.135,0.001,2.055,0.924,2.057,2.061c0,1.134-0.921,2.06-2.058,2.057
						c-1.136,0.001-2.061-0.92-2.062-2.058C238.023,242.087,238.951,241.162,240.088,241.163z"/>
					<circle fill="#023C4E" cx="253.809" cy="243.223" r="2.059"/>
					<path fill="#023C4E" d="M267.529,241.162c1.141,0,2.059,0.925,2.061,2.061c0.001,1.138-0.921,2.059-2.059,2.059
						c-1.136,0-2.056-0.923-2.059-2.059C265.473,242.086,266.395,241.162,267.529,241.162z"/>
					<path fill="#023C4E" d="M281.256,241.164c1.135-0.001,2.057,0.923,2.057,2.06c0.001,1.137-0.923,2.052-2.058,2.057
						c-1.136,0.006-2.059-0.922-2.06-2.059C279.197,242.087,280.117,241.164,281.256,241.164z"/>
				</g>
				<g>
					<circle fill="#023C4E" cx="157.747" cy="227.578" r="2.06"/>
					<circle fill="#023C4E" cx="171.469" cy="227.58" r="2.059"/>
					<circle fill="#023C4E" cx="185.194" cy="227.579" r="2.059"/>
					<path fill="#023C4E" d="M198.916,225.519c1.137,0,2.057,0.922,2.057,2.059c0.002,1.138-0.921,2.051-2.056,2.057
						c-1.138,0.006-2.06-0.922-2.06-2.057C196.857,226.442,197.78,225.52,198.916,225.519z"/>
					<circle fill="#023C4E" cx="212.639" cy="227.578" r="2.059"/>
					<path fill="#023C4E" d="M226.361,225.519c1.138,0,2.06,0.923,2.061,2.058c-0.001,1.139-0.922,2.061-2.061,2.062
						c-1.135-0.002-2.057-0.923-2.057-2.061C224.305,226.441,225.227,225.519,226.361,225.519z"/>
					<circle fill="#023C4E" cx="240.087" cy="227.577" r="2.059"/>
					<path fill="#023C4E" d="M253.81,225.52c1.134-0.001,2.059,0.922,2.058,2.058c-0.002,1.137-0.923,2.06-2.059,2.06
						c-1.137,0-2.06-0.923-2.058-2.059C251.749,226.441,252.67,225.519,253.81,225.52z"/>
					<path fill="#023C4E" d="M267.529,225.518c1.141,0.002,2.059,0.924,2.061,2.06c0,1.139-0.922,2.06-2.061,2.06
						c-1.134,0-2.056-0.923-2.057-2.059C265.473,226.441,266.395,225.52,267.529,225.518z"/>
					<path fill="#023C4E" d="M281.256,225.52c1.135-0.001,2.057,0.924,2.057,2.06c0,1.137-0.924,2.051-2.058,2.057
						c-1.136,0.006-2.06-0.921-2.06-2.059C279.195,226.443,280.117,225.521,281.256,225.52z"/>
				</g>
				<g>
					<circle fill="#023C4E" cx="157.747" cy="211.933" r="2.06"/>
					<circle fill="#023C4E" cx="171.468" cy="211.935" r="2.06"/>
					<path fill="#023C4E" d="M185.195,209.875c1.133-0.001,2.057,0.922,2.055,2.058c0,1.136-0.922,2.059-2.055,2.061
						c-1.139,0-2.061-0.926-2.059-2.06C183.135,210.798,184.057,209.874,185.195,209.875z"/>
					<path fill="#023C4E" d="M198.915,209.875c1.138,0,2.058,0.921,2.058,2.058c0.002,1.138-0.921,2.049-2.056,2.057
						c-1.138,0.008-2.06-0.922-2.06-2.057C196.857,210.797,197.781,209.875,198.915,209.875z"/>
					<circle fill="#023C4E" cx="212.639" cy="211.933" r="2.059"/>
					<circle fill="#023C4E" cx="226.361" cy="211.933" r="2.06"/>
					<circle fill="#023C4E" cx="240.087" cy="211.932" r="2.058"/>
					<path fill="#023C4E" d="M253.811,209.875c1.133-0.001,2.058,0.922,2.057,2.058c-0.002,1.136-0.922,2.06-2.059,2.06
						c-1.137,0.001-2.057-0.924-2.057-2.059C251.752,210.796,252.67,209.874,253.811,209.875z"/>
					<path fill="#023C4E" d="M267.529,209.873c1.141,0.002,2.059,0.924,2.061,2.06c0,1.139-0.922,2.06-2.061,2.06
						c-1.133,0-2.055-0.923-2.057-2.059C265.473,210.797,266.395,209.875,267.529,209.873z"/>
					<path fill="#023C4E" d="M281.256,209.875c1.135-0.002,2.057,0.924,2.057,2.059c0,1.138-0.924,2.05-2.057,2.057
						c-1.138,0.007-2.061-0.92-2.061-2.059C279.195,210.799,280.117,209.875,281.256,209.875z"/>
				</g>
				<g>
					<path fill="#023C4E" d="M157.746,194.229c1.137,0.001,2.061,0.925,2.059,2.059c0.002,1.14-0.922,2.062-2.057,2.061
						c-1.139,0.001-2.059-0.925-2.061-2.06C155.689,195.153,156.613,194.23,157.746,194.229z"/>
					<circle fill="#023C4E" cx="171.469" cy="196.291" r="2.059"/>
					<path fill="#023C4E" d="M185.195,194.23c1.133,0,2.057,0.923,2.055,2.058c0,1.137-0.922,2.06-2.055,2.061
						c-1.139,0-2.061-0.926-2.059-2.06C183.135,195.154,184.057,194.23,185.195,194.23z"/>
					<path fill="#023C4E" d="M198.916,194.23c1.137,0,2.057,0.921,2.057,2.058c0.002,1.139-0.92,2.061-2.055,2.057
						c-1.139,0.004-2.061-0.922-2.061-2.057S197.781,194.231,198.916,194.23z"/>
					<circle fill="#023C4E" cx="212.639" cy="196.289" r="2.059"/>
					<path fill="#023C4E" d="M226.361,194.229c1.139,0,2.061,0.923,2.061,2.058c0,1.139-0.922,2.061-2.061,2.062
						c-1.135-0.002-2.057-0.922-2.057-2.061C224.305,195.152,225.227,194.229,226.361,194.229z"/>
					<path fill="#023C4E" d="M240.088,194.23c1.135,0,2.057,0.923,2.057,2.058c0,1.136-0.922,2.062-2.057,2.058
						c-1.137,0.001-2.059-0.918-2.062-2.057C238.027,195.153,238.951,194.229,240.088,194.23z"/>
					<path fill="#023C4E" d="M253.811,194.23c1.133-0.001,2.059,0.923,2.057,2.058c-0.002,1.137-0.922,2.061-2.059,2.061
						c-1.137,0.001-2.061-0.925-2.057-2.06C251.748,195.152,252.67,194.23,253.811,194.23z"/>
					<path fill="#023C4E" d="M267.529,194.229c1.141,0.002,2.059,0.924,2.061,2.059c0,1.14-0.922,2.061-2.061,2.061
						c-1.133,0-2.055-0.923-2.057-2.06C265.473,195.153,266.395,194.231,267.529,194.229z"/>
					<path fill="#023C4E" d="M281.256,194.23c1.135-0.001,2.057,0.924,2.057,2.059c0,1.138-0.924,2.061-2.057,2.057
						c-1.137,0.004-2.061-0.92-2.061-2.059C279.195,195.154,280.117,194.231,281.256,194.23z"/>
				</g>
			</g>
			<g clip-path="url(#SVGID_8_)">
				<g>
					<path fill="#023C4E" d="M291.75,303.74c1.135,0.001,2.056,0.924,2.057,2.06c0,1.136-0.922,2.059-2.057,2.061
						c-1.139-0.002-2.062-0.925-2.062-2.059C289.688,304.665,290.613,303.743,291.75,303.74z"/>
					<path fill="#023C4E" d="M305.469,303.741c1.139,0.002,2.061,0.923,2.061,2.06s-0.922,2.059-2.059,2.059
						c-1.137,0-2.059-0.923-2.059-2.059C303.412,304.664,304.336,303.741,305.469,303.741z"/>
				</g>
				<g>
					<circle fill="#023C4E" cx="291.749" cy="290.156" r="2.06"/>
					<circle fill="#023C4E" cx="305.47" cy="290.156" r="2.059"/>
				</g>
				<g>
					<circle fill="#023C4E" cx="291.749" cy="274.511" r="2.06"/>
					<circle fill="#023C4E" cx="305.469" cy="274.511" r="2.059"/>
				</g>
				<g>
					<circle fill="#023C4E" cx="291.748" cy="258.866" r="2.06"/>
					<circle fill="#023C4E" cx="305.469" cy="258.866" r="2.059"/>
				</g>
				<g>
					<circle fill="#023C4E" cx="291.749" cy="243.222" r="2.06"/>
					<circle fill="#023C4E" cx="305.47" cy="243.223" r="2.059"/>
				</g>
				<g>
					<circle fill="#023C4E" cx="291.747" cy="227.578" r="2.06"/>
					<circle fill="#023C4E" cx="305.468" cy="227.579" r="2.059"/>
				</g>
				<g>
					<path fill="#023C4E" d="M291.746,209.873c1.137,0.002,2.06,0.925,2.059,2.059c0.001,1.14-0.922,2.062-2.057,2.062
						c-1.139,0.001-2.059-0.925-2.061-2.06C289.689,210.798,290.613,209.875,291.746,209.873z"/>
					<circle fill="#023C4E" cx="305.469" cy="211.934" r="2.059"/>
				</g>
				<g>
					<path fill="#023C4E" d="M291.746,194.229c1.137,0.001,2.061,0.924,2.059,2.058c0.002,1.14-0.922,2.062-2.057,2.062
						c-1.139,0.001-2.059-0.925-2.061-2.06C289.689,195.153,290.613,194.23,291.746,194.229z"/>
					<circle fill="#023C4E" cx="305.469" cy="196.29" r="2.059"/>
				</g>
			</g>
		</g>
		
			<rect x="179.221" y="98.079" transform="matrix(-0.7071 -0.7071 0.7071 -0.7071 245.8782 380.4001)" clip-path="url(#SVGID_2_)" fill="#FFFFFF" stroke="#023C4E" stroke-width="4" stroke-miterlimit="10" width="45" height="82.397"/>
	</g>
	<g>
		
			<line fill="none" stroke="#023C4E" stroke-width="4" stroke-linecap="round" stroke-miterlimit="10" x1="102" y1="2" x2="102" y2="302"/>
		
			<line fill="none" stroke="#023C4E" stroke-width="4" stroke-linecap="round" stroke-miterlimit="10" x1="202" y1="2" x2="202" y2="302"/>
		
			<line fill="none" stroke="#023C4E" stroke-width="4" stroke-linecap="round" stroke-miterlimit="10" x1="2" y1="102" x2="302" y2="102"/>
		
			<line fill="none" stroke="#023C4E" stroke-width="4" stroke-linecap="round" stroke-miterlimit="10" x1="2" y1="202" x2="302" y2="202"/>
	</g>
	<g>
		
			<path fill="#FFFFFF" stroke="#EB5C1C" stroke-width="4" stroke-linecap="round" stroke-linejoin="round" stroke-miterlimit="10" d="
			M67.677,152.372c0,10.268-18.231,35.9-18.231,35.9s-18.218-25.633-18.218-35.9c0-10.254,8.157-18.572,18.218-18.572
			C59.517,133.8,67.677,142.118,67.677,152.372z"/>
		
			<path fill="#FFFFFF" stroke="#EB5C1C" stroke-width="4" stroke-linecap="round" stroke-linejoin="round" stroke-miterlimit="10" d="
			M56.451,151.97c0,3.966-3.108,7.19-6.992,7.19c-3.878,0-7.008-3.225-7.008-7.19c0-3.953,3.13-7.134,7.008-7.134
			C53.343,144.836,56.451,148.017,56.451,151.97z"/>
	</g>
	<g>
		
			<path fill="#FFFFFF" stroke="#EB5C1C" stroke-width="4" stroke-linecap="round" stroke-linejoin="round" stroke-miterlimit="10" d="
			M163.223,242.185c0,10.268-18.231,35.9-18.231,35.9s-18.218-25.633-18.218-35.9c0-10.254,8.157-18.572,18.218-18.572
			C155.062,223.612,163.223,231.931,163.223,242.185z"/>
		
			<path fill="#FFFFFF" stroke="#EB5C1C" stroke-width="4" stroke-linecap="round" stroke-linejoin="round" stroke-miterlimit="10" d="
			M151.997,241.782c0,3.966-3.108,7.19-6.992,7.19c-3.878,0-7.008-3.225-7.008-7.19c0-3.953,3.13-7.134,7.008-7.134
			C148.889,234.648,151.997,237.829,151.997,241.782z"/>
	</g>
	<g>
		
			<path fill="#FFFFFF" stroke="#EB5C1C" stroke-width="4" stroke-linecap="round" stroke-linejoin="round" stroke-miterlimit="10" d="
			M269.613,203.912c0,10.268-18.231,35.9-18.231,35.9s-18.218-25.633-18.218-35.9c0-10.254,8.157-18.572,18.218-18.572
			C261.453,185.34,269.613,193.658,269.613,203.912z"/>
		
			<path fill="#FFFFFF" stroke="#EB5C1C" stroke-width="4" stroke-linecap="round" stroke-linejoin="round" stroke-miterlimit="10" d="
			M258.388,203.51c0,3.966-3.108,7.19-6.992,7.19c-3.878,0-7.008-3.225-7.008-7.19c0-3.953,3.13-7.134,7.008-7.134
			C255.279,196.376,258.388,199.557,258.388,203.51z"/>
	</g>
	<g>
		
			<path fill="#FFFFFF" stroke="#EB5C1C" stroke-width="4" stroke-linecap="round" stroke-linejoin="round" stroke-miterlimit="10" d="
			M227.224,97.899c0,10.268-18.231,35.9-18.231,35.9s-18.218-25.633-18.218-35.9c0-10.254,8.157-18.572,18.218-18.572
			C219.063,79.327,227.224,87.646,227.224,97.899z"/>
		
			<path fill="#FFFFFF" stroke="#EB5C1C" stroke-width="4" stroke-linecap="round" stroke-linejoin="round" stroke-miterlimit="10" d="
			M215.998,97.497c0,3.966-3.108,7.19-6.992,7.19c-3.878,0-7.008-3.225-7.008-7.19c0-3.953,3.13-7.134,7.008-7.134
			C212.89,90.363,215.998,93.544,215.998,97.497z"/>
	</g>
	<g>
		
			<path fill="#FFFFFF" stroke="#EB5C1C" stroke-width="4" stroke-linecap="round" stroke-linejoin="round" stroke-miterlimit="10" d="
			M163.222,48.077c0,10.268-18.231,35.9-18.231,35.9s-18.218-25.633-18.218-35.9c0-10.254,8.157-18.572,18.218-18.572
			C155.062,29.505,163.222,37.823,163.222,48.077z"/>
		
			<path fill="#FFFFFF" stroke="#EB5C1C" stroke-width="4" stroke-linecap="round" stroke-linejoin="round" stroke-miterlimit="10" d="
			M151.996,47.675c0,3.966-3.108,7.19-6.992,7.19c-3.878,0-7.008-3.225-7.008-7.19c0-3.953,3.13-7.134,7.008-7.134
			C148.888,40.541,151.996,43.722,151.996,47.675z"/>
	</g>
</g>
<g id="Layer_4">
</g>
<g id="_x2014__x2014_Arrow">
</g>
<g id="Isolation_Mode_1_">
</g>
</svg>
