<?xml version="1.0" encoding="utf-8"?>
<!-- Generator: Adobe Illustrator 16.0.0, SVG Export Plug-In . SVG Version: 6.00 Build 0)  -->
<!DOCTYPE svg PUBLIC "-//W3C//DTD SVG 1.1//EN" "http://www.w3.org/Graphics/SVG/1.1/DTD/svg11.dtd">
<svg version="1.1" xmlns="http://www.w3.org/2000/svg" xmlns:xlink="http://www.w3.org/1999/xlink" x="0px" y="0px" width="304px"
	 height="304px" viewBox="0 0 304 304" enable-background="new 0 0 304 304" xml:space="preserve">
<g id="image">
</g>
<g id="Layer_1">
	<g>
		<defs>
			<rect id="SVGID_531_" x="407" y="4" width="296" height="296"/>
		</defs>
		<clipPath id="SVGID_2_">
			<use xlink:href="#SVGID_531_"  overflow="visible"/>
		</clipPath>
		<g clip-path="url(#SVGID_2_)">
			
				<polygon fill="#FFFFFF" stroke="#023C4E" stroke-width="4" stroke-linecap="round" stroke-linejoin="round" stroke-miterlimit="10" points="
				526.326,-188.332 196.713,141.28 463.293,407.859 583.5,287.651 608.25,312.4 623.807,296.843 599.057,272.094 664.111,207.041 
				688.859,231.79 704.416,216.233 679.667,191.484 792.904,78.247 			"/>
		</g>
	</g>
	
		<rect x="2" y="2" fill="#FFFFFF" stroke="#023C4E" stroke-width="4" stroke-linecap="round" stroke-miterlimit="10" width="300" height="300"/>
	<g id="Isolation_Mode">
		<g>
			<defs>
				<rect id="SVGID_541_" x="4" y="4" width="296" height="296"/>
			</defs>
			<clipPath id="SVGID_4_">
				<use xlink:href="#SVGID_541_"  overflow="visible"/>
			</clipPath>
			<g clip-path="url(#SVGID_4_)">
				<g>
					<defs>
						
							<rect id="SVGID_543_" x="70.174" y="30.922" transform="matrix(0.7071 -0.7071 0.7071 0.7071 -31.966 91.6711)" width="49" height="107"/>
					</defs>
					<clipPath id="SVGID_6_">
						<use xlink:href="#SVGID_543_"  overflow="visible"/>
					</clipPath>
					<g clip-path="url(#SVGID_6_)">
						
							<line fill="none" stroke="#023C4E" stroke-width="4" stroke-miterlimit="10" x1="35.318" y1="4.515" x2="35.32" y2="135.094"/>
						<line fill="none" stroke="#023C4E" stroke-width="4" stroke-miterlimit="10" x1="49" y1="9" x2="49" y2="140"/>
						<line fill="none" stroke="#023C4E" stroke-width="4" stroke-miterlimit="10" x1="63" y1="14" x2="63" y2="145"/>
						
							<line fill="none" stroke="#023C4E" stroke-width="4" stroke-miterlimit="10" x1="76.436" y1="19.425" x2="76.438" y2="150.005"/>
						
							<line fill="none" stroke="#023C4E" stroke-width="4" stroke-miterlimit="10" x1="90.142" y1="24.396" x2="90.144" y2="154.975"/>
						
							<line fill="none" stroke="#023C4E" stroke-width="4" stroke-miterlimit="10" x1="103.847" y1="29.366" x2="103.849" y2="159.945"/>
						
							<line fill="none" stroke="#023C4E" stroke-width="4" stroke-miterlimit="10" x1="117.553" y1="34.336" x2="117.555" y2="164.916"/>
						<line fill="none" stroke="#023C4E" stroke-width="4" stroke-miterlimit="10" x1="131" y1="39" x2="131" y2="170"/>
						<line fill="none" stroke="#023C4E" stroke-width="4" stroke-miterlimit="10" x1="145" y1="44" x2="145" y2="175"/>
						
							<line fill="none" stroke="#023C4E" stroke-width="4" stroke-miterlimit="10" x1="158.67" y1="49.247" x2="158.672" y2="179.826"/>
					</g>
					<use xlink:href="#SVGID_543_"  overflow="visible" fill="none" stroke="#023C4E" stroke-width="4" stroke-miterlimit="10"/>
				</g>
				<circle fill="#023C4E" cx="202.524" cy="56.812" r="2.778"/>
				<circle fill="#023C4E" cx="274.813" cy="129.101" r="2.779"/>
				<path fill="#FFFFFF" stroke="#023C4E" stroke-width="4" stroke-miterlimit="10" d="M118.775-15.22l75.697,75.697l-56.568,56.569
					l-75.7-75.701L118.775-15.22z M-79.203,182.638L50.446,52.989l75.659,75.661L-3.544,258.3L-79.203,182.638z M42.186,234.873
					L206.241,70.728l57.593,57.682L99.791,292.478L42.186,234.873z M209.717,503.843l-43.383-44.896l191.384-191.384l44.274,44.274
					L209.717,503.843z M60.732,353.83l147.078-147.078l93.668,93.667L154.189,447.286L60.732,353.83z M565.24,150.55
					L414.993,300.797l-56.866-56.866l-45.223,45.287l-93.454-93.454L392.115,23.458c3.171-3.168,3.266-8.572,0.1-11.737
					c-3.177-3.174-8.27-3.305-11.433-0.136L275.623,116.782l-57.702-57.319L323.379-45.996c3.171-3.17,3.25-8.224,0.082-11.394
					c-3.172-3.17-8.227-3.089-11.396,0.081L206.396,48.359l-81.383-81.383c-3.172-3.172-6.996-2.772-10.168,0.4L51.674,30.549
					L-45.839-67.46l-10.786,11.19l97.559,97.558L-90.595,172.817l-37.394-37.391c-3.168-3.169-7.668-3.816-10.838-0.645
					l-97.17,97.169c-3.17,3.17-3.165,8.317,0.009,11.491c3.169,3.167,8.4,3.404,11.571,0.232l90.876-91.188l118.101,118.1
					l-28.256,28.251c-3.172,3.172-3.357,7.974-0.187,11.145c2.123,2.123,5.13,2.737,7.841,2.013
					c1.333-0.357,2.578-1.149,3.622-2.193l62.746-62.746l57.87,57.87l-62.785,62.781c-3.174,3.174-3.361,8.087-0.19,11.256
					c2.126,2.127,4.991,2.663,7.704,1.938c1.328-0.357,2.188-1.158,3.233-2.201l12.548-12.854l149.911,149.911l-12.544,12.544
					c-3.172,3.171-3.553,7.925-0.381,11.097c2.123,2.127,4.947,2.633,7.652,1.904c1.332-0.355,2.99-1.386,4.037-2.43
					l215.541-216.104l198.645,198.645l11.314-11.313l-197.99-197.99l150.597-150.597L565.24,150.55z"/>
				<g>
					<defs>
						<polygon id="SVGID_545_" points="415.414,-23.065 275.693,116.656 217.494,58.457 357.313,-81.307 						"/>
					</defs>
					<clipPath id="SVGID_8_">
						<use xlink:href="#SVGID_545_"  overflow="visible"/>
					</clipPath>
					<g clip-path="url(#SVGID_8_)">
						<g>
							<circle fill="#023C4E" cx="219.845" cy="0.246" r="2.06"/>
							<path fill="#023C4E" d="M221.904,13.97c0,1.133-0.924,2.058-2.061,2.057c-1.134,0-2.057-0.922-2.059-2.058
								c0-1.137,0.922-2.057,2.061-2.057C220.982,11.912,221.904,12.831,221.904,13.97z"/>
							<path fill="#023C4E" d="M221.904,27.69c0,1.138-0.923,2.061-2.059,2.06c-1.136,0.001-2.061-0.923-2.061-2.061
								c0.001-1.134,0.924-2.057,2.058-2.057C220.982,25.633,221.904,26.555,221.904,27.69z"/>
							<circle fill="#023C4E" cx="219.845" cy="41.414" r="2.06"/>
							<circle fill="#023C4E" cx="219.845" cy="55.138" r="2.06"/>
							<path fill="#023C4E" d="M221.904,68.861c0,1.135-0.924,2.057-2.062,2.058c-1.132,0-2.057-0.922-2.057-2.06
								c0-1.133,0.924-2.057,2.06-2.058C220.981,66.802,221.904,67.726,221.904,68.861z"/>
							<circle fill="#023C4E" cx="219.844" cy="82.583" r="2.059"/>
							<path fill="#023C4E" d="M221.904,96.305c0,1.139-0.924,2.061-2.061,2.061s-2.059-0.922-2.059-2.059
								c0-1.137,0.922-2.058,2.057-2.058C220.981,94.249,221.904,95.171,221.904,96.305z"/>
							<path fill="#023C4E" d="M221.902,110.03c0.002,1.135-0.922,2.059-2.061,2.059c-1.134,0-2.057-0.923-2.057-2.06
								c0-1.135,0.925-2.057,2.06-2.057C220.981,107.973,221.904,108.894,221.902,110.03z"/>
						</g>
						<g>
							<circle fill="#023C4E" cx="235.489" cy="0.246" r="2.059"/>
							<path fill="#023C4E" d="M237.548,13.971c0,1.133-0.923,2.057-2.06,2.057c-1.135,0-2.058-0.922-2.059-2.058
								c0-1.137,0.922-2.057,2.061-2.057C236.626,11.912,237.548,12.832,237.548,13.971z"/>
							<path fill="#023C4E" d="M237.548,27.691c0,1.137-0.923,2.06-2.058,2.059c-1.137,0.001-2.061-0.922-2.061-2.06
								c0.001-1.134,0.924-2.057,2.058-2.057C236.626,25.633,237.548,26.556,237.548,27.691z"/>
							<circle fill="#023C4E" cx="235.489" cy="41.415" r="2.059"/>
							<circle fill="#023C4E" cx="235.489" cy="55.138" r="2.059"/>
							<path fill="#023C4E" d="M237.548,68.862c0,1.135-0.923,2.057-2.062,2.058c-1.133,0-2.057-0.922-2.057-2.061
								c0-1.133,0.923-2.057,2.06-2.058C236.625,66.803,237.548,67.726,237.548,68.862z"/>
							<circle fill="#023C4E" cx="235.488" cy="82.584" r="2.059"/>
							<path fill="#023C4E" d="M237.548,96.305c0,1.139-0.923,2.061-2.06,2.061c-1.138,0-2.059-0.922-2.059-2.059
								c0-1.137,0.922-2.058,2.057-2.058C236.625,94.25,237.548,95.172,237.548,96.305z"/>
							<path fill="#023C4E" d="M237.547,110.031c0.001,1.135-0.922,2.058-2.061,2.058c-1.134,0-2.057-0.923-2.057-2.059
								s0.924-2.058,2.06-2.058C236.625,107.973,237.548,108.894,237.547,110.031z"/>
						</g>
						<g>
							<circle fill="#023C4E" cx="251.133" cy="0.246" r="2.06"/>
							<path fill="#023C4E" d="M253.192,13.971c0,1.133-0.924,2.058-2.06,2.057c-1.135,0-2.058-0.922-2.06-2.058
								c0-1.138,0.923-2.058,2.061-2.057C252.27,11.912,253.192,12.832,253.192,13.971z"/>
							<circle fill="#023C4E" cx="251.133" cy="27.691" r="2.059"/>
							<circle fill="#023C4E" cx="251.133" cy="41.415" r="2.06"/>
							<circle fill="#023C4E" cx="251.133" cy="55.138" r="2.06"/>
							<path fill="#023C4E" d="M253.192,68.862c0,1.135-0.924,2.057-2.062,2.057c-1.133,0-2.058-0.922-2.057-2.059
								c0-1.134,0.922-2.057,2.059-2.059C252.27,66.802,253.192,67.726,253.192,68.862z"/>
							<circle fill="#023C4E" cx="251.132" cy="82.584" r="2.059"/>
							<circle fill="#023C4E" cx="251.133" cy="96.306" r="2.06"/>
							<path fill="#023C4E" d="M253.191,110.031c0.002,1.135-0.922,2.058-2.061,2.058c-1.135,0-2.057-0.923-2.057-2.059
								c-0.001-1.136,0.924-2.058,2.059-2.058C252.27,107.973,253.192,108.894,253.191,110.031z"/>
						</g>
						<g>
							<circle fill="#023C4E" cx="266.778" cy="0.246" r="2.059"/>
							<path fill="#023C4E" d="M268.837,13.971c0,1.133-0.923,2.057-2.06,2.057c-1.135,0-2.058-0.923-2.06-2.058
								c0.001-1.138,0.924-2.058,2.062-2.058C267.915,11.912,268.837,12.832,268.837,13.971z"/>
							<circle fill="#023C4E" cx="266.778" cy="27.691" r="2.059"/>
							<circle fill="#023C4E" cx="266.778" cy="41.415" r="2.059"/>
							<circle fill="#023C4E" cx="266.777" cy="55.138" r="2.06"/>
							<path fill="#023C4E" d="M268.837,68.862c0,1.135-0.924,2.057-2.062,2.058c-1.132,0-2.058-0.923-2.057-2.06
								c0-1.134,0.923-2.058,2.059-2.059C267.914,66.803,268.837,67.726,268.837,68.862z"/>
							<circle fill="#023C4E" cx="266.777" cy="82.584" r="2.059"/>
							<circle fill="#023C4E" cx="266.777" cy="96.306" r="2.06"/>
							<circle fill="#023C4E" cx="266.777" cy="110.03" r="2.059"/>
						</g>
						<g>
							<circle fill="#023C4E" cx="282.421" cy="0.246" r="2.06"/>
							<path fill="#023C4E" d="M284.48,13.971c0,1.133-0.924,2.057-2.061,2.057c-1.135,0-2.057-0.923-2.059-2.058
								c0-1.138,0.924-2.058,2.061-2.057C283.559,11.912,284.48,12.832,284.48,13.971z"/>
							<circle fill="#023C4E" cx="282.422" cy="27.691" r="2.059"/>
							<circle fill="#023C4E" cx="282.421" cy="41.415" r="2.06"/>
							<circle fill="#023C4E" cx="282.422" cy="55.138" r="2.06"/>
							<path fill="#023C4E" d="M284.481,68.862c0,1.135-0.924,2.058-2.061,2.058c-1.134,0-2.059-0.923-2.057-2.06
								c-0.002-1.134,0.921-2.057,2.058-2.059C283.558,66.803,284.481,67.726,284.481,68.862z"/>
							<circle fill="#023C4E" cx="282.421" cy="82.584" r="2.059"/>
							<circle fill="#023C4E" cx="282.422" cy="96.306" r="2.06"/>
							<path fill="#023C4E" d="M284.48,110.031c0.001,1.135-0.923,2.058-2.06,2.058s-2.059-0.923-2.057-2.059
								c-0.002-1.136,0.922-2.058,2.059-2.058C283.558,107.973,284.481,108.895,284.48,110.031z"/>
						</g>
						<g>
							<circle fill="#023C4E" cx="298.066" cy="0.246" r="2.059"/>
							<circle fill="#023C4E" cx="298.065" cy="13.97" r="2.06"/>
							<circle fill="#023C4E" cx="298.066" cy="27.692" r="2.059"/>
							<circle fill="#023C4E" cx="298.066" cy="41.415" r="2.059"/>
							<circle fill="#023C4E" cx="298.065" cy="55.138" r="2.06"/>
							<path fill="#023C4E" d="M300.125,68.862c0,1.135-0.924,2.058-2.061,2.058c-1.133,0-2.059-0.922-2.057-2.06
								c0-1.134,0.921-2.057,2.059-2.059C299.201,66.803,300.125,67.726,300.125,68.862z"/>
							<circle fill="#023C4E" cx="298.065" cy="82.584" r="2.059"/>
							<circle fill="#023C4E" cx="298.065" cy="96.306" r="2.06"/>
							<path fill="#023C4E" d="M300.125,110.031c0,1.135-0.922,2.058-2.061,2.058c-1.137,0-2.057-0.923-2.057-2.058
								c-0.002-1.137,0.923-2.059,2.059-2.059C299.201,107.973,300.125,108.895,300.125,110.031z"/>
						</g>
					</g>
				</g>
			</g>
			<path clip-path="url(#SVGID_4_)" fill="none" stroke="#009EE2" stroke-miterlimit="10" d="M262.223,54.321"/>
			<path clip-path="url(#SVGID_4_)" fill="none" stroke="#009EE2" stroke-miterlimit="10" d="M213.814,220.462"/>
		</g>
	</g>
	<g>
		
			<line fill="none" stroke="#023C4E" stroke-width="4" stroke-linecap="round" stroke-miterlimit="10" x1="102" y1="2" x2="102" y2="302"/>
		
			<line fill="none" stroke="#023C4E" stroke-width="4" stroke-linecap="round" stroke-miterlimit="10" x1="202" y1="2" x2="202" y2="302"/>
		
			<line fill="none" stroke="#023C4E" stroke-width="4" stroke-linecap="round" stroke-miterlimit="10" x1="2" y1="102" x2="302" y2="102"/>
		
			<line fill="none" stroke="#023C4E" stroke-width="4" stroke-linecap="round" stroke-miterlimit="10" x1="2" y1="202" x2="302" y2="202"/>
	</g>
	<g>
		
			<path fill="#FFFFFF" stroke="#EB5C1C" stroke-width="4" stroke-linecap="round" stroke-linejoin="round" stroke-miterlimit="10" d="
			M120.225,207.788c0,10.268-18.231,35.9-18.231,35.9s-18.218-25.633-18.218-35.9c0-10.254,8.157-18.572,18.218-18.572
			C112.064,189.216,120.225,197.534,120.225,207.788z"/>
		
			<path fill="#FFFFFF" stroke="#EB5C1C" stroke-width="4" stroke-linecap="round" stroke-linejoin="round" stroke-miterlimit="10" d="
			M108.999,207.386c0,3.966-3.108,7.19-6.992,7.19c-3.878,0-7.008-3.225-7.008-7.19c0-3.953,3.13-7.134,7.008-7.134
			C105.891,200.252,108.999,203.433,108.999,207.386z"/>
	</g>
	<g>
		
			<path fill="#FFFFFF" stroke="#EB5C1C" stroke-width="4" stroke-linecap="round" stroke-linejoin="round" stroke-miterlimit="10" d="
			M67.398,127.136c0,10.268-18.231,35.9-18.231,35.9s-18.218-25.633-18.218-35.9c0-10.254,8.157-18.572,18.218-18.572
			C59.238,108.563,67.398,116.882,67.398,127.136z"/>
		
			<path fill="#FFFFFF" stroke="#EB5C1C" stroke-width="4" stroke-linecap="round" stroke-linejoin="round" stroke-miterlimit="10" d="
			M56.173,126.733c0,3.966-3.108,7.19-6.992,7.19c-3.878,0-7.008-3.225-7.008-7.19c0-3.953,3.13-7.134,7.008-7.134
			C53.064,119.6,56.173,122.78,56.173,126.733z"/>
	</g>
	<g>
		
			<path fill="#FFFFFF" stroke="#EB5C1C" stroke-width="4" stroke-linecap="round" stroke-linejoin="round" stroke-miterlimit="10" d="
			M221.197,97.187c0,10.268-18.231,35.9-18.231,35.9s-18.218-25.633-18.218-35.9c0-10.254,8.157-18.572,18.218-18.572
			C213.037,78.614,221.197,86.933,221.197,97.187z"/>
		
			<path fill="#FFFFFF" stroke="#EB5C1C" stroke-width="4" stroke-linecap="round" stroke-linejoin="round" stroke-miterlimit="10" d="
			M209.972,96.784c0,3.966-3.108,7.19-6.992,7.19c-3.878,0-7.008-3.225-7.008-7.19c0-3.953,3.13-7.134,7.008-7.134
			C206.863,89.65,209.972,92.831,209.972,96.784z"/>
	</g>
</g>
<g id="Layer_4">
</g>
<g id="_x2014__x2014_Arrow">
</g>
<g id="Isolation_Mode_1_">
</g>
</svg>
