<?xml version="1.0" encoding="utf-8"?>
<!-- Generator: Adobe Illustrator 16.0.0, SVG Export Plug-In . SVG Version: 6.00 Build 0)  -->
<!DOCTYPE svg PUBLIC "-//W3C//DTD SVG 1.1//EN" "http://www.w3.org/Graphics/SVG/1.1/DTD/svg11.dtd">
<svg version="1.1" xmlns="http://www.w3.org/2000/svg" xmlns:xlink="http://www.w3.org/1999/xlink" x="0px" y="0px"
	 width="136.261px" height="92.735px" viewBox="0 0 136.261 92.735" enable-background="new 0 0 136.261 92.735"
	 xml:space="preserve">
<g id="image">
</g>
<g id="Layer_1">
	<g>
		<g opacity="0.6">
			<path fill="#FFFFFF" stroke="#023C4E" stroke-width="5" stroke-miterlimit="10" d="M2.5,46.368
				c0,24.228,19.632,43.867,43.875,43.867c24.206,0,43.838-19.64,43.838-43.867C90.213,22.14,70.581,2.5,46.375,2.5
				C22.132,2.5,2.5,22.14,2.5,46.368z"/>
			<path fill="#FFFFFF" stroke="#023C4E" stroke-width="5" stroke-miterlimit="10" d="M65.887,7.081c0,0-22.306,35.899-63.064,34.06
				"/>
			<path fill="#FFFFFF" stroke="#023C4E" stroke-width="5" stroke-miterlimit="10" d="M55.951,19.083
				c0,0,16.026,16.726,33.953,22.125"/>
		</g>
		
			<line opacity="0.6" fill="none" stroke="#023C4E" stroke-width="5" stroke-linecap="round" stroke-miterlimit="10" x1="34.749" y1="68.279" x2="57.965" y2="68.279"/>
		<circle opacity="0.6" fill="#023C4E" cx="31.709" cy="47.84" r="3.543"/>
		<circle opacity="0.6" fill="#023C4E" cx="61.004" cy="47.84" r="3.543"/>
		<g>
			<g>
				<path fill="#FFFFFF" stroke="#023C4E" stroke-width="5" stroke-miterlimit="10" d="M46.048,46.368
					c0,24.228,19.632,43.867,43.875,43.867c24.206,0,43.838-19.64,43.838-43.867c0-24.229-19.632-43.868-43.838-43.868
					C65.68,2.5,46.048,22.14,46.048,46.368z"/>
				<path fill="#FFFFFF" stroke="#023C4E" stroke-width="5" stroke-miterlimit="10" d="M109.435,7.081
					c0,0-22.306,35.899-63.064,34.06"/>
				<path fill="#FFFFFF" stroke="#023C4E" stroke-width="5" stroke-miterlimit="10" d="M99.499,19.083
					c0,0,16.026,16.726,33.953,22.125"/>
			</g>
			<circle fill="#023C4E" cx="75.258" cy="47.84" r="3.543"/>
			<circle fill="#023C4E" cx="104.553" cy="47.84" r="3.543"/>
			<path fill="none" stroke="#023C4E" stroke-width="5" stroke-linecap="round" stroke-miterlimit="10" d="M104.385,63.484
				c-1.743,4.795-7.588,8.943-14.48,8.943"/>
		</g>
		<g>
			<path fill="none" stroke="#023C4E" stroke-width="5" stroke-linecap="round" stroke-miterlimit="10" d="M75.426,63.484
				c1.742,4.795,7.586,8.943,14.479,8.943"/>
		</g>
	</g>
	<g id="Isolation_Mode">
	</g>
</g>
<g id="Layer_4">
</g>
<g id="_x2014__x2014_Arrow">
</g>
<g id="Isolation_Mode_1_">
</g>
</svg>
