<?xml version="1.0" encoding="utf-8"?>
<!-- Generator: Adobe Illustrator 16.0.0, SVG Export Plug-In . SVG Version: 6.00 Build 0)  -->
<!DOCTYPE svg PUBLIC "-//W3C//DTD SVG 1.1//EN" "http://www.w3.org/Graphics/SVG/1.1/DTD/svg11.dtd">
<svg version="1.1" xmlns="http://www.w3.org/2000/svg" xmlns:xlink="http://www.w3.org/1999/xlink" x="0px" y="0px"
	 width="145.904px" height="111.099px" viewBox="0 0 145.904 111.099" enable-background="new 0 0 145.904 111.099"
	 xml:space="preserve">
<g id="image">
</g>
<g id="Layer_1">
	<g>
		<g>
			
				<polyline fill="none" stroke="#EB5C1C" stroke-width="5" stroke-linecap="round" stroke-linejoin="round" stroke-miterlimit="10" points="
				87.51,47.412 100.891,47.734 101.221,61.121 			"/>
			
				<polyline fill="none" stroke="#EB5C1C" stroke-width="5" stroke-linecap="round" stroke-linejoin="round" stroke-miterlimit="10" points="
				7.471,103.625 39.457,75.678 70.85,75.678 100.891,47.734 			"/>
		</g>
		<path fill="#FFFFFF" stroke="#EB5C1C" stroke-width="5" stroke-miterlimit="10" d="M2.5,103.625c0,2.748,2.23,4.974,4.979,4.974
			c2.74,0,4.969-2.226,4.969-4.974c0-2.744-2.229-4.974-4.969-4.974C4.73,98.651,2.5,100.881,2.5,103.625z"/>
		<path fill="#FFFFFF" stroke="#023C4E" stroke-width="5" stroke-miterlimit="10" d="M102.986,22.716
			c0,11.165,9.049,20.216,20.219,20.216c11.152,0,20.199-9.051,20.199-20.216c0-11.161-9.047-20.216-20.199-20.216
			C112.035,2.5,102.986,11.555,102.986,22.716z"/>
		<path fill="#EB5C1C" d="M131.789,12.026c-0.124-0.538-0.609-0.746-1.084-0.464l-1.15,0.683c-0.502,0.298-2.988,1.8-5.553,3.746
			c-2.17-2.376-4.345-4.301-4.784-4.685l-1.006-0.878c-0.417-0.363-0.933-0.247-1.152,0.26l-0.532,1.226
			c-0.459,1.058-4.462,10.465-3.468,14.861c0.859,3.815,5.747,5.875,7.747,6.688v2.751c0,0.552,0.447,1.449,1,1.449h1
			c0.553,0,1-0.897,1-1.449v-2.505c3-0.425,7.306-1.664,8.79-5.137c1.77-4.145-0.246-14.119-0.506-15.243L131.789,12.026z
			 M125.351,25.337c-0.01,0.041-0.021,0.081-0.031,0.122c-0.056,0.215-0.126,0.431-0.214,0.649c-0.009,0.022-0.02,0.044-0.029,0.066
			c-0.09,0.217-0.193,0.434-0.31,0.65c-0.011,0.021-0.021,0.042-0.032,0.063c-0.122,0.224-0.256,0.446-0.396,0.665
			c-0.021,0.031-0.04,0.062-0.061,0.092c-0.145,0.22-0.296,0.437-0.452,0.646c-0.011,0.015-0.021,0.028-0.032,0.042
			c-0.163,0.218-0.33,0.428-0.498,0.631l-1.752-5.584c-0.166-0.527-0.727-0.82-1.254-0.655l-1.352,0.424
			c-0.527,0.165-0.82,0.727-0.654,1.253l1.537,4.901c-0.509-0.262-1.016-0.547-1.479-0.874c-0.228-0.161-0.44-0.329-0.641-0.503
			c-0.021-0.019-0.043-0.037-0.064-0.056c-0.188-0.167-0.36-0.341-0.516-0.521c-0.023-0.027-0.045-0.054-0.067-0.081
			c-0.147-0.181-0.279-0.365-0.385-0.556c-0.014-0.024-0.024-0.049-0.036-0.074c-0.104-0.201-0.189-0.406-0.237-0.618
			c-0.461-2.041,0.969-6.85,2.359-10.507c0.415,0.397,0.842,0.818,1.269,1.251c0.023,0.023,0.045,0.045,0.067,0.068
			c0.428,0.435,0.854,0.881,1.271,1.333c0.803,0.872,1.562,1.758,2.205,2.602c0.458,0.601,0.854,1.176,1.164,1.708
			c0.014,0.025,0.029,0.05,0.043,0.075c0.141,0.245,0.261,0.48,0.359,0.703c0.017,0.037,0.03,0.073,0.045,0.109
			c0.093,0.221,0.17,0.434,0.213,0.628c0.045,0.199,0.057,0.407,0.053,0.618c0,0.035,0.001,0.069-0.001,0.104
			C125.432,24.918,125.399,25.126,125.351,25.337z M129.667,27.23c-0.368,0.861-1.276,1.52-2.347,2.016
			c1.095-1.766,1.884-3.889,1.403-6.004c-0.312-1.395-1.296-3.026-2.519-4.631c1.009-0.758,2.059-1.491,3.044-2.14
			C129.953,20.319,130.487,25.306,129.667,27.23z"/>
	</g>
	<g id="Isolation_Mode">
	</g>
</g>
<g id="Layer_4">
</g>
<g id="_x2014__x2014_Arrow">
</g>
<g id="Isolation_Mode_1_">
</g>
</svg>
