<?xml version="1.0" encoding="utf-8"?>
<!-- Generator: Adobe Illustrator 16.0.0, SVG Export Plug-In . SVG Version: 6.00 Build 0)  -->
<!DOCTYPE svg PUBLIC "-//W3C//DTD SVG 1.1//EN" "http://www.w3.org/Graphics/SVG/1.1/DTD/svg11.dtd">
<svg version="1.1" xmlns="http://www.w3.org/2000/svg" xmlns:xlink="http://www.w3.org/1999/xlink" x="0px" y="0px"
	 width="146.291px" height="116.569px" viewBox="0 0 146.291 116.569" enable-background="new 0 0 146.291 116.569"
	 xml:space="preserve">
<g id="image">
</g>
<g id="Layer_1">
	<g>
		<g>
			<path fill="#FFFFFF" stroke="#EB5C1C" stroke-width="5" stroke-miterlimit="10" d="M93.977,51.456
				c0,23.962-19.436,43.392-43.391,43.392c-23.97,0-43.392-19.43-43.392-43.392c0-23.965,19.422-43.39,43.392-43.39
				C74.541,8.066,93.977,27.491,93.977,51.456z"/>
			<g>
				<path fill="#EB5C1C" d="M52.334,8.066h-3.496c-0.553,0-1-0.448-1-1V1c0-0.552,0.447-1,1-1h3.496c0.553,0,1,0.448,1,1v6.066
					C53.334,7.619,52.887,8.066,52.334,8.066z"/>
			</g>
			<g>
				<path fill="#EB5C1C" d="M28.861,12.65l-2.632-5.468c-0.239-0.498-0.03-1.095,0.468-1.334l3.15-1.517
					c0.498-0.239,1.096-0.03,1.335,0.467l2.632,5.468c0.239,0.498,0.03,1.095-0.468,1.334l-3.15,1.517
					C29.698,13.357,29.101,13.148,28.861,12.65z"/>
			</g>
			<g>
				<path fill="#EB5C1C" d="M14.186,25.912l-4.744-3.785c-0.432-0.344-0.502-0.974-0.158-1.405l2.182-2.733
					c0.344-0.432,0.973-0.502,1.404-0.158l4.744,3.784c0.432,0.344,0.502,0.974,0.158,1.406l-2.182,2.733
					C15.246,26.185,14.617,26.256,14.186,25.912z"/>
			</g>
			<g>
				<path fill="#EB5C1C" d="M6.708,44.226L0.792,42.87c-0.538-0.123-0.875-0.66-0.751-1.198l0.779-3.409
					c0.124-0.538,0.66-0.875,1.198-0.751l5.916,1.355c0.538,0.123,0.875,0.66,0.751,1.198l-0.779,3.409
					C7.782,44.012,7.246,44.349,6.708,44.226z"/>
			</g>
			<g>
				<path fill="#EB5C1C" d="M0.799,64.56l-0.773-3.41c-0.123-0.539,0.215-1.074,0.754-1.196l5.92-1.345
					c0.538-0.122,1.074,0.215,1.196,0.754l0.773,3.41c0.122,0.539-0.215,1.074-0.753,1.196l-5.92,1.345
					C1.457,65.436,0.922,65.098,0.799,64.56z"/>
			</g>
			<g>
				<path fill="#EB5C1C" d="M11.411,84.857l-2.18-2.735c-0.344-0.432-0.272-1.061,0.159-1.405l4.749-3.783
					c0.433-0.344,1.062-0.273,1.405,0.159l2.18,2.735c0.344,0.432,0.273,1.061-0.159,1.405l-4.749,3.783
					C12.385,85.36,11.755,85.289,11.411,84.857z"/>
			</g>
			<g>
				<path fill="#EB5C1C" d="M29.772,98.542l-3.148-1.521c-0.497-0.24-0.706-0.838-0.466-1.335l2.641-5.467
					c0.24-0.497,0.839-0.706,1.336-0.465l3.148,1.521c0.497,0.24,0.705,0.838,0.465,1.335l-2.641,5.467
					C30.867,98.573,30.27,98.782,29.772,98.542z"/>
			</g>
			<g>
				<path fill="#EB5C1C" d="M52.252,102.913l-3.496-0.005c-0.553-0.001-0.999-0.449-0.998-1.001l0.008-6.07
					c0.001-0.552,0.449-0.999,1.002-0.999l3.496,0.005c0.553,0.001,0.999,0.449,0.998,1.001l-0.008,6.07
					C53.253,102.466,52.805,102.914,52.252,102.913z"/>
			</g>
			<g>
				<path fill="#EB5C1C" d="M69.914,98.142l-2.623-5.472c-0.239-0.498-0.029-1.095,0.469-1.334l3.154-1.512
					c0.498-0.239,1.095-0.028,1.334,0.47l2.623,5.472c0.239,0.498,0.029,1.095-0.469,1.334l-3.154,1.512
					C70.75,98.85,70.153,98.64,69.914,98.142z"/>
			</g>
			<g>
				<path fill="#EB5C1C" d="M88.248,85.14l-4.734-3.79c-0.431-0.345-0.5-0.975-0.155-1.406l2.186-2.729
					c0.345-0.431,0.975-0.501,1.405-0.156l4.734,3.79c0.431,0.345,0.5,0.975,0.155,1.406l-2.186,2.729
					C89.309,85.415,88.679,85.485,88.248,85.14z"/>
			</g>
			<g>
				<path fill="#EB5C1C" d="M99.132,65.479l-5.908-1.367c-0.538-0.125-0.874-0.661-0.749-1.199l0.787-3.407
					c0.125-0.538,0.662-0.874,1.2-0.749l5.908,1.366c0.538,0.125,0.874,0.661,0.749,1.199l-0.787,3.407
					C100.207,65.267,99.67,65.603,99.132,65.479z"/>
			</g>
			<g>
				<path fill="#EB5C1C" d="M93.296,43.617l-0.768-3.411c-0.121-0.539,0.217-1.074,0.756-1.195l5.922-1.333
					c0.539-0.122,1.074,0.217,1.195,0.756l0.768,3.411c0.121,0.539-0.217,1.074-0.756,1.195l-5.922,1.333
					C93.952,44.494,93.417,44.155,93.296,43.617z"/>
			</g>
			<g>
				<path fill="#EB5C1C" d="M85.675,25.872l-2.172-2.74c-0.343-0.433-0.271-1.062,0.163-1.405l4.752-3.768
					c0.434-0.343,1.062-0.27,1.405,0.163l2.172,2.74c0.343,0.433,0.271,1.062-0.163,1.405l-4.752,3.768
					C86.646,26.378,86.018,26.305,85.675,25.872z"/>
			</g>
			<g>
				<path fill="#EB5C1C" d="M71.111,13.187l-3.146-1.526c-0.496-0.241-0.704-0.839-0.463-1.336l2.648-5.457
					c0.241-0.497,0.84-0.705,1.336-0.463l3.146,1.526c0.496,0.241,0.704,0.839,0.463,1.336l-2.648,5.457
					C72.206,13.221,71.607,13.428,71.111,13.187z"/>
			</g>
			<path fill="#FFFFFF" stroke="#EB5C1C" stroke-width="5" stroke-miterlimit="10" d="M57.051,51.456
				c0,3.594-2.91,6.502-6.502,6.502c-3.589,0-6.498-2.908-6.498-6.502c0-3.593,2.909-6.504,6.498-6.504
				C54.141,44.952,57.051,47.863,57.051,51.456z"/>
		</g>
		<g>
			<path fill="#FFFFFF" stroke="#EB5C1C" stroke-width="5" stroke-miterlimit="10" d="M139.505,89.646
				c0,12.035-9.761,21.793-21.793,21.793c-12.038,0-21.795-9.758-21.795-21.793s9.757-21.789,21.795-21.789
				C129.744,67.857,139.505,77.611,139.505,89.646z"/>
			<g>
				<path fill="#EB5C1C" d="M119.46,67.857h-3.496c-0.552,0-1-0.448-1-1v-5.109c0-0.552,0.448-1,1-1h3.496c0.552,0,1,0.448,1,1
					v5.109C120.46,67.41,120.012,67.857,119.46,67.857z"/>
			</g>
			<g>
				<path fill="#EB5C1C" d="M98.177,77.578l-3.991-3.188c-0.432-0.345-0.502-0.974-0.157-1.405l2.184-2.732
					c0.345-0.432,0.974-0.502,1.405-0.157l3.991,3.188c0.432,0.345,0.502,0.974,0.157,1.405l-2.184,2.732
					C99.237,77.853,98.608,77.923,98.177,77.578z"/>
			</g>
			<g>
				<path fill="#EB5C1C" d="M89.912,97.758l-0.773-3.41c-0.123-0.539,0.215-1.074,0.754-1.196l4.98-1.132
					c0.538-0.122,1.074,0.215,1.196,0.754l0.773,3.41c0.122,0.539-0.215,1.074-0.753,1.196l-4.98,1.132
					C90.57,98.634,90.035,98.296,89.912,97.758z"/>
			</g>
			<g>
				<path fill="#EB5C1C" d="M106.705,116.433l-3.148-1.522c-0.497-0.241-0.705-0.838-0.465-1.336l2.226-4.603
					c0.241-0.498,0.839-0.706,1.336-0.465l3.148,1.522c0.497,0.241,0.706,0.838,0.465,1.336l-2.226,4.603
					C107.801,116.466,107.202,116.674,106.705,116.433z"/>
			</g>
			<g>
				<path fill="#EB5C1C" d="M127.287,116l-2.204-4.605c-0.238-0.499-0.028-1.096,0.471-1.334l3.154-1.51
					c0.499-0.238,1.096-0.028,1.334,0.471l2.204,4.605c0.238,0.499,0.027,1.096-0.471,1.334l-3.154,1.51
					C128.123,116.709,127.525,116.499,127.287,116z"/>
			</g>
			<g>
				<path fill="#EB5C1C" d="M144.277,98.603l-4.976-1.15c-0.538-0.125-0.874-0.662-0.749-1.2l0.787-3.407
					c0.125-0.539,0.662-0.874,1.2-0.749l4.976,1.15c0.538,0.125,0.874,0.662,0.749,1.2l-0.787,3.407
					C145.353,98.392,144.815,98.728,144.277,98.603z"/>
			</g>
			<g>
				<path fill="#EB5C1C" d="M135.873,77.481l-2.17-2.742c-0.344-0.433-0.27-1.062,0.163-1.405l4.005-3.17
					c0.434-0.343,1.062-0.27,1.404,0.164l2.172,2.742c0.342,0.433,0.27,1.062-0.164,1.405l-4.005,3.17
					C136.846,77.988,136.217,77.915,135.873,77.481z"/>
			</g>
			<path fill="#FFFFFF" stroke="#EB5C1C" stroke-width="5" stroke-miterlimit="10" d="M122.712,89.651c0,2.758-2.241,4.996-5,4.996
				c-2.761,0-5-2.238-5-4.996c0-2.767,2.239-5.004,5-5.004C120.471,84.646,122.712,86.884,122.712,89.651z"/>
		</g>
	</g>
	<g id="Isolation_Mode">
	</g>
</g>
<g id="Layer_4">
</g>
<g id="_x2014__x2014_Arrow">
</g>
<g id="Isolation_Mode_1_">
</g>
</svg>
