<?xml version="1.0" encoding="utf-8"?>
<!-- Generator: Adobe Illustrator 16.0.0, SVG Export Plug-In . SVG Version: 6.00 Build 0)  -->
<!DOCTYPE svg PUBLIC "-//W3C//DTD SVG 1.1//EN" "http://www.w3.org/Graphics/SVG/1.1/DTD/svg11.dtd">
<svg version="1.1" xmlns="http://www.w3.org/2000/svg" xmlns:xlink="http://www.w3.org/1999/xlink" x="0px" y="0px"
	 width="402.177px" height="372.335px" viewBox="0 0 402.177 372.335" enable-background="new 0 0 402.177 372.335"
	 xml:space="preserve">
<g id="image">
</g>
<g id="Layer_1">
	<g>
		<g>
			<path fill="#FFFFFF" stroke="#023C4E" stroke-width="5" stroke-miterlimit="10" d="M2.5,188.207
				c0,24.229,19.632,43.867,43.875,43.867c24.206,0,43.838-19.639,43.838-43.867s-19.632-43.867-43.838-43.867
				C22.132,144.339,2.5,163.978,2.5,188.207z"/>
			<path fill="#FFFFFF" stroke="#023C4E" stroke-width="5" stroke-miterlimit="10" d="M65.887,148.919
				c0,0-22.306,35.9-63.064,34.061"/>
			<path fill="#FFFFFF" stroke="#023C4E" stroke-width="5" stroke-miterlimit="10" d="M55.951,160.921
				c0,0,16.026,16.727,33.953,22.125"/>
		</g>
		<circle fill="#023C4E" cx="31.709" cy="189.679" r="3.543"/>
		<circle fill="#023C4E" cx="61.005" cy="189.679" r="3.543"/>
		<path fill="none" stroke="#023C4E" stroke-width="5" stroke-linecap="round" stroke-miterlimit="10" d="M60.837,205.324
			c-1.743,4.794-7.588,8.942-14.479,8.942"/>
		<g>
			<path fill="none" stroke="#023C4E" stroke-width="5" stroke-linecap="round" stroke-miterlimit="10" d="M31.877,205.324
				c1.743,4.794,7.588,8.942,14.48,8.942"/>
		</g>
	</g>
	<g>
		<path fill="#FFFFFF" stroke="#023C4E" stroke-width="5" stroke-linecap="round" stroke-miterlimit="10" d="M60.78,2.5H21.036
			c-1.699,0-3.078,1.378-3.078,3.079v72.385c0,1.7,1.379,3.079,3.078,3.079h50.639c1.7,0,3.079-1.378,3.079-3.079V21.715"/>
		
			<path fill="#FFFFFF" stroke="#023C4E" stroke-width="5" stroke-linecap="round" stroke-linejoin="round" stroke-miterlimit="10" d="
			M60.78,2.5v16.137c0,1.699,1.379,3.078,3.078,3.078h10.896L60.78,2.5z"/>
	</g>
	<g>
		<path fill="#FFFFFF" stroke="#023C4E" stroke-width="5" stroke-linecap="round" stroke-miterlimit="10" d="M60.78,291.292H21.036
			c-1.699,0-3.078,1.379-3.078,3.078v72.386c0,1.7,1.379,3.079,3.078,3.079h50.639c1.7,0,3.079-1.379,3.079-3.079v-56.249"/>
		
			<path fill="#FFFFFF" stroke="#023C4E" stroke-width="5" stroke-linecap="round" stroke-linejoin="round" stroke-miterlimit="10" d="
			M60.78,291.292v16.137c0,1.699,1.379,3.078,3.078,3.078h10.896L60.78,291.292z"/>
	</g>
	<g>
		<g>
			<g>
				<polyline fill="none" stroke="#EB5C1C" stroke-width="5" stroke-linecap="round" stroke-miterlimit="10" points="
					174.021,173.871 187.848,187.374 175.028,201.851 				"/>
				
					<line fill="none" stroke="#EB5C1C" stroke-width="5" stroke-linecap="round" stroke-miterlimit="10" x1="108.08" y1="187.355" x2="187.848" y2="187.374"/>
			</g>
		</g>
		<polyline fill="none" stroke="#EB5C1C" stroke-width="5" stroke-linecap="round" stroke-miterlimit="10" points="108.08,41.771 
			137.702,41.771 137.702,330.564 108.08,330.564 		"/>
		<path fill="#FFFFFF" stroke="#EB5C1C" stroke-width="5" stroke-miterlimit="10" d="M137.702,193.529
			c-3.133,0-5.669-2.541-5.669-5.675c0-3.122,2.536-5.663,5.669-5.663c3.128,0,5.669,2.541,5.669,5.663
			C143.371,190.988,140.83,193.529,137.702,193.529z"/>
	</g>
	<g>
		<path fill="#FFFFFF" d="M399.677,194.013c0,48.955-39.688,88.645-88.637,88.645c-48.955,0-88.643-39.689-88.643-88.645
			s39.688-88.635,88.643-88.635C359.989,105.378,399.677,145.058,399.677,194.013z"/>
		<polyline fill="none" stroke="#EB5C1C" stroke-width="5" stroke-miterlimit="10" points="379.718,248.8 331.534,200.617 
			384.935,147.217 		"/>
		<polyline fill="none" stroke="#EB5C1C" stroke-width="5" stroke-miterlimit="10" points="263.392,268.774 315.22,216.94 
			363.626,265.346 		"/>
		
			<line fill="#FFFFFF" stroke="#EB5C1C" stroke-width="5" stroke-miterlimit="10" x1="372.513" y1="130.841" x2="247.854" y2="255.494"/>
		<path fill="none" stroke="#023C4E" stroke-width="5" stroke-miterlimit="10" d="M399.677,194.013
			c0,48.955-39.688,88.645-88.637,88.645c-48.955,0-88.643-39.689-88.643-88.645s39.688-88.635,88.643-88.635
			C359.989,105.378,399.677,145.058,399.677,194.013z"/>
		<g>
			
				<path fill="#FFFFFF" stroke="#EB5C1C" stroke-width="5" stroke-linecap="round" stroke-linejoin="round" stroke-miterlimit="10" d="
				M299.841,149.414c0,10.268-18.231,35.9-18.231,35.9s-18.218-25.633-18.218-35.9c0-10.254,8.157-18.572,18.218-18.572
				C291.681,130.841,299.841,139.16,299.841,149.414z"/>
			
				<path fill="#FFFFFF" stroke="#EB5C1C" stroke-width="5" stroke-linecap="round" stroke-linejoin="round" stroke-miterlimit="10" d="
				M288.615,149.011c0,3.966-3.108,7.19-6.992,7.19c-3.878,0-7.008-3.225-7.008-7.19c0-3.953,3.13-7.134,7.008-7.134
				C285.507,141.877,288.615,145.058,288.615,149.011z"/>
		</g>
	</g>
	<g id="Isolation_Mode">
	</g>
</g>
<g id="Layer_4">
</g>
<g id="_x2014__x2014_Arrow">
</g>
<g id="Isolation_Mode_1_">
</g>
</svg>
