<?xml version="1.0" encoding="utf-8"?>
<!-- Generator: Adobe Illustrator 16.0.0, SVG Export Plug-In . SVG Version: 6.00 Build 0)  -->
<!DOCTYPE svg PUBLIC "-//W3C//DTD SVG 1.1//EN" "http://www.w3.org/Graphics/SVG/1.1/DTD/svg11.dtd">
<svg version="1.1" xmlns="http://www.w3.org/2000/svg" xmlns:xlink="http://www.w3.org/1999/xlink" x="0px" y="0px"
	 width="418.463px" height="461.747px" viewBox="0 0 418.463 461.747" enable-background="new 0 0 418.463 461.747"
	 xml:space="preserve">
<g id="image">
</g>
<g id="Layer_1">
	<g>
		
			<rect x="332.565" y="160.404" fill="#FFFFFF" stroke="#023C4E" stroke-width="4" stroke-linecap="round" stroke-linejoin="round" stroke-miterlimit="10" width="83.897" height="161.378"/>
		
			<rect x="344.497" y="173.278" fill="#FFFFFF" stroke="#023C4E" stroke-width="4" stroke-linecap="round" stroke-linejoin="round" stroke-miterlimit="10" width="60.036" height="99.979"/>
		<polyline fill="none" stroke="#023C4E" stroke-width="4" stroke-miterlimit="10" points="404.734,252.621 392.838,240.836 
			404.428,229.226 		"/>
		<polyline fill="none" stroke="#023C4E" stroke-width="4" stroke-miterlimit="10" points="360.848,272.712 384.806,248.868 
			404.604,268.511 		"/>
		
			<line fill="none" stroke="#023C4E" stroke-width="4" stroke-miterlimit="10" x1="404.971" y1="213.889" x2="345.033" y2="273.792"/>
		<g>
			
				<path fill="#FFFFFF" stroke="#023C4E" stroke-width="4" stroke-linecap="round" stroke-linejoin="round" stroke-miterlimit="10" d="
				M380.251,211.123c0,5.634-10.005,19.699-10.005,19.699s-9.995-14.065-9.995-19.699c0-5.626,4.476-10.191,9.995-10.191
				C375.773,200.932,380.251,205.496,380.251,211.123z"/>
			
				<path fill="#FFFFFF" stroke="#023C4E" stroke-width="4" stroke-linecap="round" stroke-linejoin="round" stroke-miterlimit="10" d="
				M374.091,210.902c0,2.176-1.705,3.945-3.836,3.945c-2.128,0-3.846-1.769-3.846-3.945c0-2.169,1.718-3.915,3.846-3.915
				C372.386,206.987,374.091,208.732,374.091,210.902z"/>
		</g>
	</g>
	<g>
		<g>
			<path fill="#FFFFFF" d="M289.143,430.487c1.497,0,2.723-1.225,2.723-2.723V326.075c0-1.497-1.226-2.723-2.723-2.723H141.93
				c-1.497,0-2.723,1.226-2.723,2.723v101.689c0,1.498,1.226,2.723,2.723,2.723h53.021c1.497,0,2.723,1.226,2.723,2.723v18.521
				c0,1.498-1.226,2.723-2.723,2.723H180.51c-1.497,0-2.723,1.191-2.723,2.646s1.226,2.646,2.723,2.646h73.654
				c1.497,0,2.723-1.191,2.723-2.646s-1.226-2.646-2.723-2.646h-18.041c-1.497,0-2.723-1.225-2.723-2.723V433.21
				c0-1.497,1.226-2.723,2.723-2.723H289.143z"/>
			<path fill="none" stroke="#023C4E" stroke-width="4" stroke-miterlimit="10" d="M289.143,430.487
				c1.497,0,2.723-1.225,2.723-2.723V326.075c0-1.497-1.226-2.723-2.723-2.723H141.93c-1.497,0-2.723,1.226-2.723,2.723v101.689
				c0,1.498,1.226,2.723,2.723,2.723h53.021c1.497,0,2.723,1.226,2.723,2.723v18.521c0,1.498-1.226,2.723-2.723,2.723H180.51
				c-1.497,0-2.723,1.191-2.723,2.646s1.226,2.646,2.723,2.646h73.654c1.497,0,2.723-1.191,2.723-2.646s-1.226-2.646-2.723-2.646
				h-18.041c-1.497,0-2.723-1.225-2.723-2.723V433.21c0-1.497,1.226-2.723,2.723-2.723H289.143z"/>
		</g>
		<g>
			<g>
				<g>
					<path fill="#FFFFFF" d="M278.041,413.468c0,1.498-1.226,2.723-2.723,2.723H155.756c-1.497,0-2.723-1.225-2.723-2.723v-74.127
						c0-1.497,1.226-2.723,2.723-2.723h119.562c1.497,0,2.723,1.226,2.723,2.723V413.468z"/>
					<path fill="none" stroke="#023C4E" stroke-width="4" stroke-miterlimit="10" d="M278.041,413.468
						c0,1.498-1.226,2.723-2.723,2.723H155.756c-1.497,0-2.723-1.225-2.723-2.723v-74.127c0-1.497,1.226-2.723,2.723-2.723h119.562
						c1.497,0,2.723,1.226,2.723,2.723V413.468z"/>
				</g>
				<path fill="none" stroke="#023C4E" stroke-width="4" stroke-miterlimit="10" d="M166.287,346.919
					c0,1.68-1.359,3.047-3.039,3.047c-1.688,0-3.047-1.367-3.047-3.047s1.359-3.041,3.047-3.041
					C164.928,343.878,166.287,345.239,166.287,346.919z"/>
				<path fill="none" stroke="#023C4E" stroke-width="4" stroke-miterlimit="10" d="M177.25,346.919c0,1.68-1.361,3.047-3.041,3.047
					c-1.686,0-3.047-1.367-3.047-3.047s1.361-3.041,3.047-3.041C175.889,343.878,177.25,345.239,177.25,346.919z"/>
				<path fill="none" stroke="#023C4E" stroke-width="4" stroke-miterlimit="10" d="M188.213,346.919
					c0,1.68-1.361,3.047-3.043,3.047c-1.684,0-3.045-1.367-3.045-3.047s1.361-3.041,3.045-3.041
					C186.852,343.878,188.213,345.239,188.213,346.919z"/>
				<path fill="none" stroke="#023C4E" stroke-width="4" stroke-miterlimit="10" d="M270.061,346.919
					c0,1.68-1.359,3.047-3.045,3.047h-67.236c-1.682,0-3.041-1.367-3.041-3.047l0,0c0-1.68,1.359-3.041,3.041-3.041h67.236
					C268.701,343.878,270.061,345.239,270.061,346.919L270.061,346.919z"/>
			</g>
			<polyline fill="none" stroke="#023C4E" stroke-width="4" stroke-miterlimit="10" points="277.637,415.454 236.137,373.954 
				260.084,350.007 			"/>
			<polyline fill="none" stroke="#023C4E" stroke-width="4" stroke-miterlimit="10" points="193.91,416.19 228.104,381.993 
				262.375,416.266 			"/>
			
				<line fill="#FFFFFF" stroke="#023C4E" stroke-width="4" stroke-miterlimit="10" x1="245.137" y1="349.966" x2="178.762" y2="416.34"/>
			<g>
				
					<path fill="#FFFFFF" stroke="#023C4E" stroke-width="4" stroke-linecap="round" stroke-linejoin="round" stroke-miterlimit="10" d="
					M192.125,371.65c0,5.634-10.004,19.699-10.004,19.699s-9.996-14.065-9.996-19.699c0-5.626,4.476-10.191,9.996-10.191
					C187.646,361.459,192.125,366.024,192.125,371.65z"/>
				
					<path fill="#FFFFFF" stroke="#023C4E" stroke-width="4" stroke-linecap="round" stroke-linejoin="round" stroke-miterlimit="10" d="
					M185.965,371.43c0,2.176-1.705,3.945-3.836,3.945c-2.128,0-3.846-1.769-3.846-3.945c0-2.169,1.718-3.915,3.846-3.915
					C184.26,367.515,185.965,369.26,185.965,371.43z"/>
			</g>
		</g>
	</g>
	<g>
		<g>
			
				<polyline fill="none" stroke="#EB5C1C" stroke-width="4" stroke-linecap="round" stroke-linejoin="round" stroke-miterlimit="10" points="
				207.779,165.269 215.578,157.862 223.379,165.269 			"/>
			
				<line fill="none" stroke="#EB5C1C" stroke-width="4" stroke-linecap="round" stroke-linejoin="round" stroke-miterlimit="10" x1="215.578" y1="194.081" x2="215.578" y2="157.862"/>
		</g>
		<g>
			<g>
				
					<polyline fill="none" stroke="#EB5C1C" stroke-width="4" stroke-linecap="round" stroke-linejoin="round" stroke-miterlimit="10" points="
					278.977,219.394 286.402,227.175 278.977,234.956 				"/>
				
					<line fill="none" stroke="#EB5C1C" stroke-width="4" stroke-linecap="round" stroke-linejoin="round" stroke-miterlimit="10" x1="250.096" y1="227.175" x2="286.402" y2="227.175"/>
			</g>
		</g>
		<g>
			
				<polyline fill="none" stroke="#EB5C1C" stroke-width="4" stroke-linecap="round" stroke-linejoin="round" stroke-miterlimit="10" points="
				223.379,292.188 215.578,299.594 207.779,292.188 			"/>
			
				<line fill="none" stroke="#EB5C1C" stroke-width="4" stroke-linecap="round" stroke-linejoin="round" stroke-miterlimit="10" x1="215.578" y1="263.375" x2="215.578" y2="299.594"/>
		</g>
		<g>
			<g>
				
					<polyline fill="none" stroke="#EB5C1C" stroke-width="4" stroke-linecap="round" stroke-linejoin="round" stroke-miterlimit="10" points="
					152.096,234.956 144.671,227.175 152.096,219.394 				"/>
				
					<line fill="none" stroke="#EB5C1C" stroke-width="4" stroke-linecap="round" stroke-linejoin="round" stroke-miterlimit="10" x1="180.977" y1="227.175" x2="144.671" y2="227.175"/>
			</g>
		</g>
	</g>
	<g>
		<g>
			
				<polygon fill="#FFFFFF" stroke="#023C4E" stroke-width="4" stroke-linecap="round" stroke-linejoin="round" stroke-miterlimit="10" points="
				83.838,291.925 111.119,284.721 111.119,190.262 83.838,197.468 56.558,190.262 29.28,197.468 2,190.262 2,284.721 
				29.28,291.925 56.558,284.721 			"/>
		</g>
		
			<polyline fill="none" stroke="#023C4E" stroke-width="4" stroke-linecap="round" stroke-linejoin="round" stroke-miterlimit="10" points="
			109.041,284.042 71.823,246.825 110.977,207.673 		"/>
		
			<polyline fill="none" stroke="#023C4E" stroke-width="4" stroke-linecap="round" stroke-linejoin="round" stroke-miterlimit="10" points="
			27.336,291.325 63.792,254.864 97.289,288.365 		"/>
		
			<line fill="#FFFFFF" stroke="#023C4E" stroke-width="4" stroke-linecap="round" stroke-linejoin="round" stroke-miterlimit="10" x1="110.977" y1="192.687" x2="16.342" y2="287.319"/>
	</g>
	<g>
		<g>
			<g>
				<path fill="#FFFFFF" d="M247.488,116.188c0,1.498-1.226,2.723-2.723,2.723h-77.092c-1.497,0-2.723-1.225-2.723-2.723V4.723
					c0-1.497,1.226-2.723,2.723-2.723h77.092c1.497,0,2.723,1.226,2.723,2.723V116.188z"/>
				<path fill="none" stroke="#023C4E" stroke-width="4" stroke-miterlimit="10" d="M247.488,116.188
					c0,1.498-1.226,2.723-2.723,2.723h-77.092c-1.497,0-2.723-1.225-2.723-2.723V4.723c0-1.497,1.226-2.723,2.723-2.723h77.092
					c1.497,0,2.723,1.226,2.723,2.723V116.188z"/>
			</g>
		</g>
		<g>
			<g>
				<path fill="#FFFFFF" d="M257.193,125.892c0,1.498-1.226,2.723-2.723,2.723h-77.092c-1.497,0-2.723-1.225-2.723-2.723V14.428
					c0-1.498,1.226-2.723,2.723-2.723h77.092c1.497,0,2.723,1.225,2.723,2.723V125.892z"/>
				<path fill="none" stroke="#023C4E" stroke-width="4" stroke-miterlimit="10" d="M257.193,125.892
					c0,1.498-1.226,2.723-2.723,2.723h-77.092c-1.497,0-2.723-1.225-2.723-2.723V14.428c0-1.498,1.226-2.723,2.723-2.723h77.092
					c1.497,0,2.723,1.225,2.723,2.723V125.892z"/>
			</g>
		</g>
		<g>
			<g>
				<path fill="#FFFFFF" d="M266.123,134.842c0,1.498-1.225,2.723-2.723,2.723h-77.092c-1.498,0-2.723-1.225-2.723-2.723V23.378
					c0-1.498,1.225-2.723,2.723-2.723H263.4c1.498,0,2.723,1.225,2.723,2.723V134.842z"/>
				<path fill="none" stroke="#023C4E" stroke-width="4" stroke-miterlimit="10" d="M266.123,134.842
					c0,1.498-1.225,2.723-2.723,2.723h-77.092c-1.498,0-2.723-1.225-2.723-2.723V23.378c0-1.498,1.225-2.723,2.723-2.723H263.4
					c1.498,0,2.723,1.225,2.723,2.723V134.842z"/>
			</g>
			
				<rect x="195.867" y="31.249" fill="#FFFFFF" stroke="#023C4E" stroke-width="4" stroke-miterlimit="10" width="57.973" height="74.292"/>
			
				<line fill="none" stroke="#023C4E" stroke-width="4" stroke-miterlimit="10" x1="195.867" y1="116.666" x2="226.617" y2="116.666"/>
			<line fill="none" stroke="#023C4E" stroke-width="4" stroke-miterlimit="10" x1="195.867" y1="126.2" x2="258.646" y2="126.2"/>
			<polyline fill="none" stroke="#023C4E" stroke-width="4" stroke-miterlimit="10" points="253.855,80.114 244.941,71.311 
				253.338,62.894 			"/>
			<polyline fill="none" stroke="#023C4E" stroke-width="4" stroke-miterlimit="10" points="210.596,105.541 236.91,79.344 
				253.867,96.148 			"/>
			
				<line fill="none" stroke="#023C4E" stroke-width="4" stroke-miterlimit="10" x1="253.34" y1="47.993" x2="195.867" y2="105.541"/>
			<g>
				
					<path fill="#FFFFFF" stroke="#023C4E" stroke-width="4" stroke-linecap="round" stroke-linejoin="round" stroke-miterlimit="10" d="
					M225.536,48.696c0,5.634-10.004,19.699-10.004,19.699s-9.996-14.065-9.996-19.699c0-5.626,4.476-10.191,9.996-10.191
					C221.059,38.505,225.536,43.07,225.536,48.696z"/>
				
					<path fill="#FFFFFF" stroke="#023C4E" stroke-width="4" stroke-linecap="round" stroke-linejoin="round" stroke-miterlimit="10" d="
					M219.376,48.476c0,2.176-1.705,3.945-3.836,3.945c-2.128,0-3.847-1.77-3.847-3.945c0-2.169,1.719-3.915,3.847-3.915
					C217.671,44.561,219.376,46.306,219.376,48.476z"/>
			</g>
		</g>
	</g>
	<g id="Isolation_Mode">
		<g>
			
				<path fill="#FFFFFF" stroke="#023C4E" stroke-width="4" stroke-linecap="round" stroke-linejoin="round" stroke-miterlimit="10" d="
				M51.05,222.211c0,5.633-10.004,19.698-10.004,19.698s-9.996-14.065-9.996-19.698c0-5.627,4.476-10.191,9.996-10.191
				C46.572,212.02,51.05,216.584,51.05,222.211z"/>
			
				<path fill="#FFFFFF" stroke="#023C4E" stroke-width="4" stroke-linecap="round" stroke-linejoin="round" stroke-miterlimit="10" d="
				M44.89,221.99c0,2.175-1.705,3.945-3.836,3.945c-2.128,0-3.846-1.77-3.846-3.945c0-2.169,1.718-3.915,3.846-3.915
				C43.185,218.075,44.89,219.82,44.89,221.99z"/>
		</g>
	</g>
</g>
<g id="Layer_4">
</g>
<g id="_x2014__x2014_Arrow">
</g>
<g id="Isolation_Mode_1_">
</g>
</svg>
