<?xml version="1.0" encoding="utf-8"?>
<!-- Generator: Adobe Illustrator 16.0.0, SVG Export Plug-In . SVG Version: 6.00 Build 0)  -->
<!DOCTYPE svg PUBLIC "-//W3C//DTD SVG 1.1//EN" "http://www.w3.org/Graphics/SVG/1.1/DTD/svg11.dtd">
<svg version="1.1" xmlns="http://www.w3.org/2000/svg" xmlns:xlink="http://www.w3.org/1999/xlink" x="0px" y="0px"
	 width="102.047px" height="26.854px" viewBox="0 0 102.047 26.854" enable-background="new 0 0 102.047 26.854"
	 xml:space="preserve">
<g id="image">
</g>
<g id="Layer_1">
	<g>
		<polygon fill-rule="evenodd" clip-rule="evenodd" fill="#023C4E" points="45.97,3.883 45.97,2.395 39.276,2.395 39.276,3.883 
			41.782,3.883 41.782,11.018 43.463,11.018 43.463,3.883 45.97,3.883 		"/>
		<path fill-rule="evenodd" clip-rule="evenodd" fill="#023C4E" d="M50.129,6.004V4.682c-0.248-0.055-0.331-0.084-0.523-0.084
			c-0.688,0-1.213,0.277-1.625,0.855V4.764h-1.405v6.254h1.488V6.555c0.55-0.441,1.019-0.605,1.596-0.605
			C49.825,5.949,49.964,5.949,50.129,6.004L50.129,6.004L50.129,6.004z"/>
		<path fill-rule="evenodd" clip-rule="evenodd" fill="#023C4E" d="M55.995,11.018V6.996c0-0.854-0.165-1.35-0.552-1.736
			c-0.439-0.439-1.101-0.662-1.928-0.662c-0.688,0-1.293,0.111-2.011,0.387l-0.33,1.486c0.635-0.385,1.322-0.605,2.039-0.605
			c0.853,0,1.238,0.277,1.295,0.965c-2.343,0.137-3.774,1.047-3.774,2.479c0,1.102,0.799,1.846,1.983,1.846
			c0.716,0,1.322-0.25,1.873-0.66v0.523H55.995L55.995,11.018z M54.509,9.447c-0.634,0.33-0.965,0.467-1.379,0.467
			c-0.549,0-0.853-0.303-0.853-0.77c0-0.662,0.716-1.074,2.231-1.268V9.447L54.509,9.447z"/>
		<path fill-rule="evenodd" clip-rule="evenodd" fill="#023C4E" d="M63.35,11.018v-3.83c0-1.57-0.827-2.59-2.562-2.59
			c-0.551,0-1.24,0.223-1.68,0.689V4.764h-1.406v6.254h1.488V6.525c0.44-0.357,0.854-0.549,1.377-0.549
			c0.882,0,1.294,0.523,1.294,1.514v3.527H63.35L63.35,11.018z"/>
		<path fill-rule="evenodd" clip-rule="evenodd" fill="#023C4E" d="M69.629,9.281c0-1.379-1.019-1.762-2.313-2.121
			c-0.938-0.248-1.157-0.387-1.157-0.744c0-0.248,0.22-0.551,0.937-0.551c0.523,0,1.294,0.277,1.955,0.689V5.178
			c-0.715-0.387-1.376-0.58-2.12-0.58c-1.376,0-2.396,0.744-2.396,1.873c0,1.268,1.021,1.625,2.396,2.041
			c0.688,0.219,1.157,0.383,1.157,0.826c0,0.383-0.331,0.549-0.881,0.549c-0.882,0-1.846-0.414-2.534-0.936v1.459
			c0.688,0.441,1.543,0.744,2.534,0.744C68.638,11.154,69.629,10.467,69.629,9.281L69.629,9.281L69.629,9.281z"/>
		<path fill-rule="evenodd" clip-rule="evenodd" fill="#023C4E" d="M76.846,7.902c0-1.898-1.212-3.305-3.003-3.305
			c-0.661,0-1.211,0.277-1.597,0.662V4.764h-1.405v8.676h1.487v-2.727c0.414,0.305,0.882,0.441,1.461,0.441
			C75.717,11.154,76.846,9.75,76.846,7.902L76.846,7.902L76.846,7.902z M75.303,7.986c0,1.184-0.661,1.873-1.735,1.873
			c-0.578,0-0.936-0.139-1.239-0.357V6.361c0.33-0.219,0.744-0.357,1.185-0.357C74.642,6.004,75.303,6.719,75.303,7.986
			L75.303,7.986L75.303,7.986z"/>
		<path fill-rule="evenodd" clip-rule="evenodd" fill="#023C4E" d="M84.31,7.877c0-1.791-1.46-3.279-3.278-3.279
			c-1.79,0-3.277,1.488-3.277,3.279c0,1.818,1.487,3.277,3.277,3.277C82.85,11.154,84.31,9.695,84.31,7.877L84.31,7.877L84.31,7.877
			z M82.795,7.877c0,1.018-0.743,1.818-1.764,1.818c-0.991,0-1.734-0.801-1.734-1.818c0-1.02,0.771-1.791,1.734-1.791
			C82.052,6.086,82.795,6.883,82.795,7.877L82.795,7.877L82.795,7.877z"/>
		<path fill-rule="evenodd" clip-rule="evenodd" fill="#023C4E" d="M89.241,6.004V4.682c-0.249-0.055-0.358-0.084-0.552-0.084
			c-0.688,0-1.185,0.277-1.599,0.855V4.764h-1.403v6.254h1.486V6.555c0.552-0.441,1.02-0.605,1.598-0.605
			C88.909,5.949,89.074,5.949,89.241,6.004L89.241,6.004L89.241,6.004z"/>
		<path fill-rule="evenodd" clip-rule="evenodd" fill="#023C4E" d="M94.362,10.904V9.531c-0.495,0.219-0.936,0.355-1.238,0.355
			c-1.075,0-1.075-0.633-1.075-0.965V5.977h2.258V4.764h-2.258V3.221h-1.487v1.543h-1.046v1.213h1.046v3.002
			c0,1.488,0.91,2.176,2.26,2.176C93.399,11.154,93.922,11.072,94.362,10.904L94.362,10.904L94.362,10.904z"/>
		<path fill-rule="evenodd" clip-rule="evenodd" fill="#023C4E" d="M43.932,17.186v-1.268c-0.441-0.137-0.992-0.219-1.515-0.219
			c-1.543,0-2.231,0.881-2.231,2.645h-0.964v1.184h0.964v5.096h1.487v-5.096h2.093v-1.184h-2.093c0-0.826,0.22-1.432,1.102-1.432
			C43.298,16.912,43.628,17.049,43.932,17.186L43.932,17.186L43.932,17.186z"/>
		<path fill-rule="evenodd" clip-rule="evenodd" fill="#023C4E" d="M50.79,21.482c0-1.818-1.46-3.277-3.278-3.277
			c-1.817,0-3.277,1.459-3.277,3.277s1.46,3.277,3.277,3.277C49.33,24.76,50.79,23.301,50.79,21.482L50.79,21.482L50.79,21.482z
			 M49.247,21.482c0,1.02-0.743,1.818-1.735,1.818c-0.991,0-1.763-0.799-1.763-1.818c0-1.018,0.771-1.818,1.763-1.818
			C48.504,19.664,49.247,20.49,49.247,21.482L49.247,21.482L49.247,21.482z"/>
		<path fill-rule="evenodd" clip-rule="evenodd" fill="#023C4E" d="M55.719,19.609v-1.322c-0.246-0.053-0.356-0.082-0.55-0.082
			c-0.688,0-1.185,0.275-1.625,0.828v-0.689h-1.405v6.279h1.488v-4.461c0.579-0.443,1.019-0.607,1.625-0.607
			C55.389,19.555,55.526,19.555,55.719,19.609L55.719,19.609L55.719,19.609z"/>
		<polygon fill-rule="evenodd" clip-rule="evenodd" fill="#023C4E" points="65.607,24.623 65.607,23.053 62,23.053 62,15.973 
			60.318,15.973 60.318,24.623 65.607,24.623 		"/>
		<path fill-rule="evenodd" clip-rule="evenodd" fill="#023C4E" d="M72.879,21.482c0-1.818-1.46-3.277-3.277-3.277
			c-1.818,0-3.277,1.459-3.277,3.277s1.459,3.277,3.277,3.277C71.419,24.76,72.879,23.301,72.879,21.482L72.879,21.482
			L72.879,21.482z M71.364,21.482c0,1.02-0.771,1.818-1.763,1.818s-1.734-0.799-1.734-1.818c0-1.018,0.743-1.818,1.734-1.818
			S71.364,20.49,71.364,21.482L71.364,21.482L71.364,21.482z"/>
		<path fill-rule="evenodd" clip-rule="evenodd" fill="#023C4E" d="M79.875,24.623v-3.855c0-1.57-0.826-2.562-2.533-2.562
			c-0.552,0-1.24,0.221-1.708,0.688v-0.549h-1.378v6.279h1.488v-4.518c0.44-0.33,0.854-0.521,1.349-0.521
			c0.882,0,1.296,0.521,1.296,1.514v3.525H79.875L79.875,24.623z"/>
		<path fill-rule="evenodd" clip-rule="evenodd" fill="#023C4E" d="M87.146,24.623v-8.65h-1.488v2.756
			c-0.357-0.303-0.907-0.523-1.432-0.523c-1.955,0-3.058,1.434-3.058,3.277c0,1.902,1.212,3.277,3.058,3.277
			c0.634,0,1.186-0.273,1.516-0.633v0.496H87.146L87.146,24.623z M85.658,23.053c-0.302,0.191-0.688,0.332-1.156,0.332
			c-1.156,0-1.817-0.773-1.817-1.984c0-1.129,0.661-1.816,1.735-1.816c0.578,0,0.937,0.135,1.238,0.355V23.053L85.658,23.053z"/>
		<path fill-rule="evenodd" clip-rule="evenodd" fill="#023C4E" d="M95.052,21.482c0-1.818-1.46-3.277-3.277-3.277
			c-1.818,0-3.277,1.459-3.277,3.277s1.459,3.277,3.277,3.277C93.592,24.76,95.052,23.301,95.052,21.482L95.052,21.482
			L95.052,21.482z M93.536,21.482c0,1.02-0.771,1.818-1.762,1.818c-0.992,0-1.735-0.799-1.735-1.818
			c0-1.018,0.771-1.818,1.735-1.818C92.766,19.664,93.536,20.49,93.536,21.482L93.536,21.482L93.536,21.482z"/>
		<path fill-rule="evenodd" clip-rule="evenodd" fill="#023C4E" d="M102.047,24.623v-3.855c0-1.57-0.826-2.562-2.533-2.562
			c-0.551,0-1.238,0.221-1.708,0.688v-0.549h-1.377v6.279h1.488v-4.518c0.44-0.33,0.853-0.521,1.376-0.521
			c0.882,0,1.269,0.521,1.269,1.514v3.525H102.047L102.047,24.623z"/>
		<path fill-rule="evenodd" clip-rule="evenodd" fill="#023C4E" d="M25.174,13.412c0,4.793-3.855,8.678-8.648,8.678
			s-8.648-3.885-8.648-8.678c0-4.764,3.855-8.648,8.648-8.648S25.174,8.648,25.174,13.412L25.174,13.412z M16.525,0
			C9.116,0,3.112,6.004,3.112,13.412c0,7.439,6.004,13.441,13.413,13.441s13.414-6.002,13.414-13.441
			C29.939,6.004,23.935,0,16.525,0L16.525,0z"/>
		<polygon fill-rule="evenodd" clip-rule="evenodd" fill="#023C4E" points="0,10.713 33.024,10.713 33.024,16.141 0,16.141 
			0,10.713 		"/>
	</g>
	<g id="Isolation_Mode">
	</g>
</g>
<g id="Layer_4">
</g>
<g id="_x2014__x2014_Arrow">
</g>
<g id="Isolation_Mode_1_">
</g>
</svg>
