<?xml version="1.0" encoding="utf-8"?>
<!-- Generator: Adobe Illustrator 16.0.0, SVG Export Plug-In . SVG Version: 6.00 Build 0)  -->
<!DOCTYPE svg PUBLIC "-//W3C//DTD SVG 1.1//EN" "http://www.w3.org/Graphics/SVG/1.1/DTD/svg11.dtd">
<svg version="1.1" xmlns="http://www.w3.org/2000/svg" xmlns:xlink="http://www.w3.org/1999/xlink" x="0px" y="0px"
	 width="419.43px" height="394.08px" viewBox="0 0 419.43 394.08" enable-background="new 0 0 419.43 394.08" xml:space="preserve">
<g id="image">
</g>
<g id="Layer_1">
	<g>
		<g>
			
				<polyline fill="none" stroke="#EB5C1C" stroke-width="4" stroke-linecap="round" stroke-linejoin="round" stroke-miterlimit="10" points="
				202.056,136.906 209.856,129.5 217.657,136.906 			"/>
			
				<line fill="none" stroke="#EB5C1C" stroke-width="4" stroke-linecap="round" stroke-linejoin="round" stroke-miterlimit="10" x1="209.856" y1="165.719" x2="209.856" y2="129.5"/>
		</g>
		<g>
			<g>
				
					<polyline fill="none" stroke="#EB5C1C" stroke-width="4" stroke-linecap="round" stroke-linejoin="round" stroke-miterlimit="10" points="
					268.255,191.031 275.679,198.812 268.255,206.594 				"/>
				
					<line fill="none" stroke="#EB5C1C" stroke-width="4" stroke-linecap="round" stroke-linejoin="round" stroke-miterlimit="10" x1="239.372" y1="198.812" x2="275.679" y2="198.812"/>
			</g>
		</g>
		<g>
			
				<polyline fill="none" stroke="#EB5C1C" stroke-width="4" stroke-linecap="round" stroke-linejoin="round" stroke-miterlimit="10" points="
				217.657,263.825 209.856,271.231 202.056,263.825 			"/>
			
				<line fill="none" stroke="#EB5C1C" stroke-width="4" stroke-linecap="round" stroke-linejoin="round" stroke-miterlimit="10" x1="209.856" y1="235.013" x2="209.856" y2="271.231"/>
		</g>
		<g>
			<g>
				
					<polyline fill="none" stroke="#EB5C1C" stroke-width="4" stroke-linecap="round" stroke-linejoin="round" stroke-miterlimit="10" points="
					151.372,206.594 143.947,198.812 151.372,191.031 				"/>
				
					<line fill="none" stroke="#EB5C1C" stroke-width="4" stroke-linecap="round" stroke-linejoin="round" stroke-miterlimit="10" x1="180.253" y1="198.812" x2="143.947" y2="198.812"/>
			</g>
		</g>
	</g>
	<g>
		
			<rect x="2" y="153.927" fill="#FFFFFF" stroke="#EB5C1C" stroke-width="4" stroke-linecap="round" stroke-linejoin="round" stroke-miterlimit="10" width="129.54" height="92.63"/>
		<polyline fill="none" stroke="#EB5C1C" stroke-width="4" stroke-miterlimit="10" points="131.711,227.828 115.992,212.22 
			131.604,196.589 		"/>
		<polyline fill="none" stroke="#EB5C1C" stroke-width="4" stroke-miterlimit="10" points="81.721,246.377 108.022,220.19 
			131.699,243.713 		"/>
		<polyline fill="none" stroke="#EB5C1C" stroke-width="4" stroke-miterlimit="10" points="14.203,154.223 51.848,191.757 
			2.619,241.005 		"/>
		<polyline fill="none" stroke="#EB5C1C" stroke-width="4" stroke-miterlimit="10" points="90.199,153.508 59.816,183.788 
			30.434,154.556 		"/>
		<polyline fill="none" stroke="#EB5C1C" stroke-width="4" stroke-miterlimit="10" points="69.59,247.224 41.842,219.476 
			14.379,246.936 		"/>
		<polyline fill="none" stroke="#EB5C1C" stroke-width="4" stroke-miterlimit="10" points="131.736,181.775 75.582,237.896 
			74.964,237.276 49.504,211.816 49.498,211.812 107.117,154.212 		"/>
		<g>
			
				<path fill="#FFFFFF" stroke="#EB5C1C" stroke-width="3" stroke-linecap="round" stroke-linejoin="round" stroke-miterlimit="10" d="
				M101.225,179.847c0,5.633-10.004,19.699-10.004,19.699s-9.996-14.065-9.996-19.699c0-5.626,4.475-10.191,9.996-10.191
				C96.747,169.656,101.225,174.221,101.225,179.847z"/>
			
				<path fill="#FFFFFF" stroke="#EB5C1C" stroke-width="3" stroke-linecap="round" stroke-linejoin="round" stroke-miterlimit="10" d="
				M95.064,179.626c0,2.176-1.705,3.945-3.836,3.945c-2.129,0-3.846-1.769-3.846-3.945c0-2.169,1.717-3.915,3.846-3.915
				C93.359,175.712,95.064,177.457,95.064,179.626z"/>
		</g>
	</g>
	<g>
		
			<rect x="287.891" y="150.314" fill="#FFFFFF" stroke="#023C4E" stroke-width="4" stroke-linecap="round" stroke-linejoin="round" stroke-miterlimit="10" width="129.539" height="92.629"/>
		<polyline fill="none" stroke="#023C4E" stroke-width="4" stroke-miterlimit="10" points="417.602,224.215 401.883,208.607 
			417.494,192.976 		"/>
		<polyline fill="none" stroke="#023C4E" stroke-width="4" stroke-miterlimit="10" points="367.611,242.764 393.912,216.576 
			417.59,240.102 		"/>
		<polyline fill="none" stroke="#023C4E" stroke-width="4" stroke-miterlimit="10" points="300.094,150.611 337.738,188.144 
			288.509,237.393 		"/>
		<polyline fill="none" stroke="#023C4E" stroke-width="4" stroke-miterlimit="10" points="376.092,149.896 345.708,180.176 
			316.324,150.945 		"/>
		<polyline fill="none" stroke="#023C4E" stroke-width="4" stroke-miterlimit="10" points="355.48,243.611 327.732,215.862 
			300.27,243.324 		"/>
		<polyline fill="none" stroke="#023C4E" stroke-width="4" stroke-miterlimit="10" points="417.627,178.164 361.473,234.282 
			360.854,233.665 335.395,208.203 335.389,208.2 393.008,150.602 		"/>
		<g>
			
				<path fill="#FFFFFF" stroke="#023C4E" stroke-width="3" stroke-linecap="round" stroke-linejoin="round" stroke-miterlimit="10" d="
				M387.115,176.236c0,5.633-10.004,19.698-10.004,19.698s-9.996-14.065-9.996-19.698c0-5.627,4.477-10.191,9.996-10.191
				C382.638,166.045,387.115,170.609,387.115,176.236z"/>
			
				<path fill="#FFFFFF" stroke="#023C4E" stroke-width="3" stroke-linecap="round" stroke-linejoin="round" stroke-miterlimit="10" d="
				M380.955,176.015c0,2.176-1.705,3.945-3.836,3.945c-2.128,0-3.846-1.769-3.846-3.945c0-2.169,1.718-3.915,3.846-3.915
				C379.25,172.101,380.955,173.846,380.955,176.015z"/>
		</g>
	</g>
	<g>
		
			<rect x="144.944" y="2" fill="#FFFFFF" stroke="#023C4E" stroke-width="4" stroke-linecap="round" stroke-linejoin="round" stroke-miterlimit="10" width="129.541" height="92.629"/>
		<polyline fill="none" stroke="#023C4E" stroke-width="4" stroke-miterlimit="10" points="274.655,75.9 258.938,60.293 
			274.551,44.661 		"/>
		<polyline fill="none" stroke="#023C4E" stroke-width="4" stroke-miterlimit="10" points="224.666,94.449 250.967,68.263 
			274.646,91.786 		"/>
		<polyline fill="none" stroke="#023C4E" stroke-width="4" stroke-miterlimit="10" points="157.146,2.296 194.792,39.829 
			145.565,89.078 		"/>
		<polyline fill="none" stroke="#023C4E" stroke-width="4" stroke-miterlimit="10" points="233.146,1.582 202.763,31.861 
			173.378,2.63 		"/>
		<polyline fill="none" stroke="#023C4E" stroke-width="4" stroke-miterlimit="10" points="212.536,95.297 184.786,67.548 
			157.325,95.009 		"/>
		<polyline fill="none" stroke="#023C4E" stroke-width="4" stroke-miterlimit="10" points="274.682,29.85 218.526,85.969 
			217.909,85.351 192.447,59.89 192.444,59.885 250.062,2.286 		"/>
		<g>
			
				<path fill="#FFFFFF" stroke="#023C4E" stroke-width="3" stroke-linecap="round" stroke-linejoin="round" stroke-miterlimit="10" d="
				M244.171,27.921c0,5.634-10.005,19.699-10.005,19.699s-9.995-14.065-9.995-19.699c0-5.626,4.476-10.19,9.995-10.19
				C239.693,17.73,244.171,22.295,244.171,27.921z"/>
			
				<path fill="#FFFFFF" stroke="#023C4E" stroke-width="3" stroke-linecap="round" stroke-linejoin="round" stroke-miterlimit="10" d="
				M238.011,27.7c0,2.176-1.705,3.945-3.836,3.945c-2.128,0-3.846-1.77-3.846-3.945c0-2.169,1.718-3.914,3.846-3.914
				C236.306,23.786,238.011,25.531,238.011,27.7z"/>
		</g>
	</g>
	<g>
		
			<rect x="144.944" y="299.37" fill="#FFFFFF" stroke="#023C4E" stroke-width="4" stroke-linecap="round" stroke-linejoin="round" stroke-miterlimit="10" width="129.541" height="92.629"/>
		<polyline fill="none" stroke="#023C4E" stroke-width="4" stroke-miterlimit="10" points="274.655,373.271 258.937,357.663 
			274.548,342.031 		"/>
		<polyline fill="none" stroke="#023C4E" stroke-width="4" stroke-miterlimit="10" points="224.666,391.819 250.967,365.633 
			274.644,389.156 		"/>
		<polyline fill="none" stroke="#023C4E" stroke-width="4" stroke-miterlimit="10" points="157.146,299.666 194.792,337.199 
			145.562,386.447 		"/>
		<polyline fill="none" stroke="#023C4E" stroke-width="4" stroke-miterlimit="10" points="233.146,298.951 202.763,329.231 
			173.378,299.999 		"/>
		<polyline fill="none" stroke="#023C4E" stroke-width="4" stroke-miterlimit="10" points="212.533,392.666 184.786,364.918 
			157.325,392.379 		"/>
		<polyline fill="none" stroke="#023C4E" stroke-width="4" stroke-miterlimit="10" points="274.682,327.219 218.528,383.339 
			217.909,382.72 192.447,357.26 192.444,357.254 250.062,299.655 		"/>
		<g>
			<g>
				<path fill="#FFFFFF" d="M208.671,360.295l-1.297,4.854c-0.19,0.586,0.035,1.27,0.531,1.629l2.002,1.444l-0.883,1.53
					l-2.256-1.012c-0.541-0.245-1.287-0.077-1.654,0.331l-3.555,3.555c-0.455,0.414-0.604,1.117-0.352,1.676l1.012,2.256
					l-1.529,0.882l-1.447-2.004c-0.266-0.367-0.727-0.595-1.199-0.595c-0.148,0-0.291,0.021-0.398,0.056l-4.857,1.3
					c-0.602,0.132-1.082,0.669-1.142,1.274l-0.251,2.459h-1.768l-0.25-2.463c-0.064-0.607-0.546-1.141-1.115-1.266l-4.855-1.296
					c-0.57-0.187-1.274,0.048-1.629,0.53l-1.446,2.004l-1.528-0.882l1.011-2.256c0.251-0.559,0.104-1.262-0.332-1.657l-3.553-3.555
					c-0.399-0.438-1.129-0.595-1.675-0.35l-2.256,1.012l-0.884-1.53l2.002-1.444c0.497-0.357,0.72-1.042,0.544-1.6l-1.301-4.859
					c-0.133-0.597-0.666-1.077-1.276-1.141l-2.46-0.249v-1.767l2.46-0.253c0.606-0.062,1.144-0.54,1.271-1.115l1.296-4.855
					c0.187-0.585-0.036-1.269-0.533-1.626l-2.002-1.445l0.884-1.53l2.256,1.013c0.541,0.242,1.287,0.074,1.656-0.332l3.556-3.555
					c0.452-0.412,0.599-1.117,0.348-1.676l-1.011-2.254l1.53-0.884l1.442,1.999c0.268,0.371,0.729,0.6,1.205,0.6
					c0.146,0,0.291-0.021,0.396-0.057l4.857-1.299c0.597-0.13,1.078-0.665,1.143-1.275l0.25-2.457h1.768l0.251,2.457
					c0.062,0.606,0.54,1.144,1.114,1.27l4.856,1.297c0.573,0.183,1.28-0.05,1.628-0.533l1.445-2.001l1.529,0.884l-1.012,2.254
					c-0.252,0.556-0.102,1.262,0.33,1.655l3.555,3.555c0.396,0.438,1.124,0.599,1.676,0.353l2.254-1.013l0.885,1.53l-2.002,1.445
					c-0.496,0.358-0.722,1.045-0.539,1.599l1.297,4.857c0.131,0.599,0.668,1.079,1.275,1.141l2.459,0.253v1.767l-2.464,0.249
					C209.329,359.243,208.794,359.724,208.671,360.295z"/>
				<path fill="#FFFFFF" d="M208.671,360.295l-1.297,4.854c-0.19,0.586,0.035,1.27,0.531,1.629l2.002,1.444l-0.883,1.53
					l-2.256-1.012c-0.541-0.245-1.287-0.077-1.654,0.331l-3.555,3.555c-0.455,0.414-0.604,1.117-0.352,1.676l1.012,2.256
					l-1.529,0.882l-1.447-2.004c-0.266-0.367-0.727-0.595-1.199-0.595c-0.148,0-0.291,0.021-0.398,0.056l-4.857,1.3
					c-0.602,0.132-1.082,0.669-1.142,1.274l-0.251,2.459h-1.768l-0.25-2.463c-0.064-0.607-0.546-1.141-1.115-1.266l-4.855-1.296
					c-0.57-0.187-1.274,0.048-1.629,0.53l-1.446,2.004l-1.528-0.882l1.011-2.256c0.251-0.559,0.104-1.262-0.332-1.657l-3.553-3.555
					c-0.399-0.438-1.129-0.595-1.675-0.35l-2.256,1.012l-0.884-1.53l2.002-1.444c0.497-0.357,0.72-1.042,0.544-1.6l-1.301-4.859
					c-0.133-0.597-0.666-1.077-1.276-1.141l-2.46-0.249v-1.767l2.46-0.253c0.606-0.062,1.144-0.54,1.271-1.115l1.296-4.855
					c0.187-0.585-0.036-1.269-0.533-1.626l-2.002-1.445l0.884-1.53l2.256,1.013c0.541,0.242,1.287,0.074,1.656-0.332l3.556-3.555
					c0.452-0.412,0.599-1.117,0.348-1.676l-1.011-2.254l1.53-0.884l1.442,1.999c0.268,0.371,0.729,0.6,1.205,0.6
					c0.146,0,0.291-0.021,0.396-0.057l4.857-1.299c0.597-0.13,1.078-0.665,1.143-1.275l0.25-2.457h1.768l0.251,2.457
					c0.062,0.606,0.54,1.144,1.114,1.27l4.856,1.297c0.573,0.183,1.28-0.05,1.628-0.533l1.445-2.001l1.529,0.884l-1.012,2.254
					c-0.252,0.556-0.102,1.262,0.33,1.655l3.555,3.555c0.396,0.438,1.124,0.599,1.676,0.353l2.254-1.013l0.885,1.53l-2.002,1.445
					c-0.496,0.358-0.722,1.045-0.539,1.599l1.297,4.857c0.131,0.599,0.668,1.079,1.275,1.141l2.459,0.253v1.767l-2.464,0.249
					C209.329,359.243,208.794,359.724,208.671,360.295z"/>
				<g>
					<path fill="#EB5C1C" d="M213.212,355.179l-2.65-0.271l-1.117-4.174l2.16-1.559c0.566-0.409,0.737-1.204,0.387-1.81
						l-1.492-2.585c-0.34-0.59-1.132-0.852-1.76-0.57l-2.434,1.092l-3.053-3.053l1.09-2.43c0.285-0.638,0.037-1.412-0.568-1.763
						l-2.584-1.493c-0.586-0.338-1.411-0.164-1.811,0.387l-1.559,2.16l-4.172-1.115l-0.271-2.652
						c-0.07-0.695-0.674-1.241-1.373-1.241h-2.986c-0.697,0-1.302,0.546-1.373,1.241l-0.27,2.652l-4.172,1.117l-1.561-2.162
						c-0.4-0.549-1.223-0.731-1.812-0.387l-2.584,1.493c-0.604,0.349-0.854,1.122-0.567,1.763l1.09,2.432l-3.054,3.051l-2.431-1.092
						c-0.622-0.279-1.423-0.021-1.762,0.57l-1.491,2.583c-0.352,0.605-0.181,1.402,0.388,1.812l2.156,1.558l-1.113,4.174
						l-2.654,0.271c-0.695,0.071-1.238,0.675-1.238,1.373v2.985c0,0.699,0.544,1.301,1.24,1.371l2.652,0.272l1.113,4.172
						l-2.156,1.562c-0.571,0.41-0.742,1.205-0.388,1.809l1.491,2.585c0.339,0.591,1.126,0.851,1.762,0.569l2.434-1.091l3.051,3.051
						l-1.092,2.435c-0.285,0.638-0.035,1.412,0.569,1.762l2.586,1.492c0.587,0.336,1.409,0.161,1.81-0.388l1.561-2.159l4.172,1.112
						l0.27,2.655c0.071,0.694,0.676,1.24,1.373,1.24h2.986c0.699,0,1.303-0.546,1.373-1.24l0.271-2.653l4.172-1.114l1.559,2.159
						c0.398,0.549,1.227,0.725,1.811,0.386l2.582-1.49c0.607-0.351,0.857-1.125,0.57-1.762l-1.09-2.433l3.053-3.053l2.436,1.091
						c0.626,0.281,1.42,0.021,1.758-0.569l1.492-2.585c0.351-0.605,0.18-1.398-0.387-1.809l-2.158-1.56l1.115-4.174l2.65-0.272
						c0.697-0.07,1.24-0.672,1.24-1.371v-2.985C214.452,355.854,213.909,355.25,213.212,355.179z M208.671,360.295l-1.297,4.854
						c-0.19,0.586,0.035,1.27,0.531,1.629l2.002,1.444l-0.883,1.53l-2.256-1.012c-0.541-0.245-1.287-0.077-1.654,0.331l-3.555,3.555
						c-0.455,0.414-0.604,1.117-0.352,1.676l1.012,2.256l-1.529,0.882l-1.447-2.004c-0.266-0.367-0.727-0.595-1.199-0.595
						c-0.148,0-0.291,0.021-0.398,0.056l-4.857,1.3c-0.602,0.132-1.082,0.669-1.142,1.274l-0.251,2.459h-1.768l-0.25-2.463
						c-0.064-0.607-0.546-1.141-1.115-1.266l-4.855-1.296c-0.57-0.187-1.274,0.048-1.629,0.53l-1.446,2.004l-1.528-0.882
						l1.011-2.256c0.251-0.559,0.104-1.262-0.332-1.657l-3.553-3.555c-0.399-0.438-1.129-0.595-1.675-0.35l-2.256,1.012l-0.884-1.53
						l2.002-1.444c0.497-0.357,0.72-1.042,0.544-1.6l-1.301-4.859c-0.133-0.597-0.666-1.077-1.276-1.141l-2.46-0.249v-1.767
						l2.46-0.253c0.606-0.062,1.144-0.54,1.271-1.115l1.296-4.855c0.187-0.585-0.036-1.269-0.533-1.626l-2.002-1.445l0.884-1.53
						l2.256,1.013c0.541,0.242,1.287,0.074,1.656-0.332l3.556-3.555c0.452-0.412,0.599-1.117,0.348-1.676l-1.011-2.254l1.53-0.884
						l1.442,1.999c0.268,0.371,0.729,0.6,1.205,0.6c0.146,0,0.291-0.021,0.396-0.057l4.857-1.299
						c0.597-0.13,1.078-0.665,1.143-1.275l0.25-2.457h1.768l0.251,2.457c0.062,0.606,0.54,1.144,1.114,1.27l4.856,1.297
						c0.573,0.183,1.28-0.05,1.628-0.533l1.445-2.001l1.529,0.884l-1.012,2.254c-0.252,0.556-0.102,1.262,0.33,1.655l3.555,3.555
						c0.396,0.438,1.124,0.599,1.676,0.353l2.254-1.013l0.885,1.53l-2.002,1.445c-0.496,0.358-0.722,1.045-0.539,1.599l1.297,4.857
						c0.131,0.599,0.668,1.079,1.275,1.141l2.459,0.253v1.767l-2.464,0.249C209.329,359.243,208.794,359.724,208.671,360.295z"/>
					<path fill="#EB5C1C" d="M190.511,343.401c-8.074,0-14.644,6.569-14.644,14.644c0,8.073,6.569,14.643,14.644,14.643
						c8.076,0,14.645-6.569,14.645-14.643C205.155,349.971,198.587,343.401,190.511,343.401z M190.511,370.822
						c-7.044,0-12.777-5.731-12.777-12.777c0-7.047,5.733-12.778,12.777-12.778c7.047,0,12.779,5.731,12.779,12.778
						C203.29,365.091,197.558,370.822,190.511,370.822z"/>
				</g>
			</g>
			<g>
				<circle fill="#FFFFFF" stroke="#EB5C1C" stroke-width="3" stroke-miterlimit="10" cx="229.822" cy="341.45" r="13.2"/>
				<path fill="#FFFFFF" stroke="#EB5C1C" stroke-width="3" stroke-miterlimit="10" d="M227.181,341.447
					c0-1.457,1.186-2.639,2.641-2.639c1.461,0,2.641,1.182,2.641,2.639c0,1.46-1.18,2.643-2.641,2.643
					C228.366,344.09,227.181,342.907,227.181,341.447z"/>
			</g>
			<g>
				<circle fill="#FFFFFF" stroke="#EB5C1C" stroke-width="3" stroke-miterlimit="10" cx="205.472" cy="321.376" r="13.201"/>
				<g>
					<path fill="#EB5C1C" d="M228.465,355.544v2c0,0.552,0.447,1,1,1h1c0.553,0,1-0.448,1-1v-2c0-0.552-0.447-1-1-1h-1
						C228.912,354.544,228.465,354.992,228.465,355.544z"/>
					<path fill="#EB5C1C" d="M239.986,351.478l1.801,1.439c0.432,0.345,1.061,0.274,1.406-0.157l0.623-0.781
						c0.346-0.432,0.275-1.061-0.156-1.405l-1.801-1.439c-0.432-0.345-1.061-0.274-1.406,0.157l-0.623,0.781
						C239.484,350.504,239.555,351.133,239.986,351.478z"/>
					<path fill="#EB5C1C" d="M244.006,339.765l2.248-0.514c0.539-0.123,0.876-0.658,0.754-1.197l-0.225-0.975
						c-0.122-0.539-0.658-0.875-1.197-0.753l-2.248,0.514c-0.539,0.123-0.876,0.659-0.754,1.197l0.224,0.975
						C242.93,339.551,243.467,339.887,244.006,339.765z"/>
					<path fill="#EB5C1C" d="M235.814,325.87l-1.109,2.109c-0.256,0.488-0.068,1.093,0.42,1.351l0.885,0.465
						c0.488,0.258,1.094,0.069,1.35-0.419l1.109-2.109c0.258-0.488,0.07-1.093-0.418-1.351l-0.887-0.465
						C236.676,325.194,236.072,325.382,235.814,325.87z"/>
					<path fill="#EB5C1C" d="M221.447,327.173l0.896,2.051c0.222,0.506,0.811,0.737,1.317,0.516l0.916-0.4
						c0.507-0.221,0.738-0.811,0.517-1.316l-0.896-2.051c-0.221-0.506-0.811-0.737-1.316-0.516l-0.918,0.4
						C221.457,326.078,221.227,326.667,221.447,327.173z"/>
					<path fill="#EB5C1C" d="M216.322,336.793l-2.244-0.52c-0.539-0.125-1.076,0.21-1.201,0.748l-0.225,0.975
						c-0.125,0.538,0.209,1.075,0.748,1.2l2.244,0.52c0.539,0.125,1.076-0.21,1.201-0.748l0.225-0.975
						C217.195,337.455,216.861,336.918,216.322,336.793z"/>
					<path fill="#EB5C1C" d="M217.763,349.095l-1.807,1.429c-0.433,0.343-0.507,0.972-0.163,1.405l0.619,0.784
						c0.344,0.433,0.973,0.506,1.404,0.164l1.808-1.429c0.433-0.343,0.507-0.972,0.163-1.405l-0.619-0.784
						C218.824,348.825,218.195,348.752,217.763,349.095z"/>
					<path fill="#EB5C1C" d="M204.465,335.544v2c0,0.552,0.447,1,1,1h1c0.553,0,1-0.448,1-1v-2c0-0.552-0.447-1-1-1h-1
						C204.912,334.544,204.465,334.992,204.465,335.544z"/>
					<path fill="#EB5C1C" d="M219.432,330.498l-1.938-1.476c-0.439-0.334-1.066-0.249-1.4,0.19l-0.607,0.795
						c-0.334,0.439-0.25,1.067,0.189,1.402l1.938,1.476c0.439,0.334,1.067,0.249,1.402-0.19l0.605-0.796
						C219.956,331.46,219.871,330.832,219.432,330.498z"/>
					<path fill="#EB5C1C" d="M219.645,319.701l2.408-0.528c0.54-0.118,0.881-0.651,0.764-1.191l-0.215-0.977
						c-0.119-0.54-0.651-0.881-1.191-0.763l-2.408,0.527c-0.539,0.118-0.881,0.651-0.762,1.191l0.213,0.977
						C218.572,319.478,219.105,319.819,219.645,319.701z"/>
					<path fill="#EB5C1C" d="M213.699,305.842l-0.887-0.465c-0.488-0.257-1.094-0.069-1.35,0.42l-1.107,2.107
						c-0.258,0.489-0.069,1.094,0.42,1.351l0.885,0.465c0.489,0.257,1.094,0.069,1.352-0.42l1.107-2.107
						C214.375,306.703,214.188,306.099,213.699,305.842z"/>
					<path fill="#EB5C1C" d="M197.098,307.099l0.895,2.05c0.221,0.506,0.809,0.737,1.316,0.517l0.916-0.4
						c0.506-0.221,0.738-0.811,0.518-1.316l-0.895-2.05c-0.221-0.506-0.811-0.737-1.316-0.517l-0.918,0.4
						C197.107,306.003,196.877,306.593,197.098,307.099z"/>
					<path fill="#EB5C1C" d="M192.135,316.718l-2.244-0.52c-0.539-0.124-1.076,0.211-1.199,0.749l-0.227,0.975
						c-0.123,0.538,0.211,1.075,0.75,1.199l2.244,0.52c0.539,0.124,1.076-0.211,1.199-0.749l0.227-0.975
						C193.008,317.379,192.674,316.842,192.135,316.718z"/>
					<path fill="#EB5C1C" d="M193.412,329.021l-1.807,1.431c-0.434,0.343-0.506,0.972-0.163,1.404l0.62,0.785
						c0.344,0.433,0.973,0.505,1.406,0.163l1.807-1.431c0.434-0.343,0.506-0.972,0.163-1.405l-0.622-0.784
						C194.475,328.75,193.846,328.678,193.412,329.021z"/>
				</g>
				<path fill="#FFFFFF" stroke="#EB5C1C" stroke-width="3" stroke-miterlimit="10" d="M202.831,321.373
					c0-1.457,1.183-2.641,2.641-2.641s2.641,1.184,2.641,2.641c0,1.462-1.183,2.645-2.641,2.645S202.831,322.835,202.831,321.373z"
					/>
			</g>
		</g>
	</g>
	<g id="Isolation_Mode">
	</g>
</g>
<g id="Layer_4">
</g>
<g id="_x2014__x2014_Arrow">
</g>
<g id="Isolation_Mode_1_">
</g>
</svg>
