<?xml version="1.0" encoding="utf-8"?>
<!-- Generator: Adobe Illustrator 16.0.0, SVG Export Plug-In . SVG Version: 6.00 Build 0)  -->
<!DOCTYPE svg PUBLIC "-//W3C//DTD SVG 1.1//EN" "http://www.w3.org/Graphics/SVG/1.1/DTD/svg11.dtd">
<svg version="1.1" xmlns="http://www.w3.org/2000/svg" xmlns:xlink="http://www.w3.org/1999/xlink" x="0px" y="0px"
	 width="378.041px" height="315.447px" viewBox="0 0 378.041 315.447" enable-background="new 0 0 378.041 315.447"
	 xml:space="preserve">
<g id="image">
</g>
<g id="Layer_1">
	<g>
		<line fill="none" stroke="#023C4E" stroke-width="5" stroke-miterlimit="10" x1="160.668" y1="154.951" x2="364.17" y2="43.53"/>
		
			<line fill="none" stroke="#023C4E" stroke-width="5" stroke-miterlimit="10" x1="160.668" y1="154.951" x2="249.58" y2="264.979"/>
		<line fill="none" stroke="#023C4E" stroke-width="5" stroke-miterlimit="10" x1="160.668" y1="154.951" x2="14.83" y2="156.291"/>
		<line fill="none" stroke="#023C4E" stroke-width="5" stroke-miterlimit="10" x1="160.668" y1="154.951" x2="89.287" y2="74.251"/>
		
			<line fill="none" stroke="#023C4E" stroke-width="5" stroke-miterlimit="10" x1="160.668" y1="154.951" x2="312.848" y2="156.291"/>
		
			<line fill="none" stroke="#023C4E" stroke-width="5" stroke-miterlimit="10" x1="160.668" y1="154.951" x2="193.928" y2="11.985"/>
		
			<line fill="none" stroke="#023C4E" stroke-width="5" stroke-miterlimit="10" x1="160.668" y1="154.951" x2="120.984" y2="304.715"/>
		<path fill="#FFFFFF" stroke="#023C4E" stroke-width="5" stroke-miterlimit="10" d="M184.443,11.985
			c0,5.24,4.244,9.485,9.484,9.485c5.236,0,9.48-4.245,9.48-9.485c0-5.242-4.244-9.485-9.48-9.485
			C188.688,2.5,184.443,6.744,184.443,11.985z"/>
		<path fill="#FFFFFF" stroke="#023C4E" stroke-width="5" stroke-miterlimit="10" d="M352.789,43.53
			c0,6.29,5.09,11.386,11.381,11.386c6.283,0,11.371-5.096,11.371-11.386c0-6.291-5.088-11.381-11.371-11.381
			C357.879,32.149,352.789,37.239,352.789,43.53z"/>
		<path fill="#FFFFFF" stroke="#023C4E" stroke-width="5" stroke-miterlimit="10" d="M81.697,74.251c0,4.189,3.393,7.589,7.59,7.589
			c4.184,0,7.578-3.4,7.578-7.589c0-4.192-3.395-7.592-7.578-7.592C85.09,66.659,81.697,70.059,81.697,74.251z"/>
		<path fill="#FFFFFF" stroke="#023C4E" stroke-width="5" stroke-miterlimit="10" d="M2.5,154.951
			c0,6.812,5.518,12.331,12.33,12.331c6.805,0,12.324-5.519,12.324-12.331c0-6.812-5.52-12.331-12.324-12.331
			C8.018,142.62,2.5,148.139,2.5,154.951z"/>
		<path fill="#FFFFFF" stroke="#023C4E" stroke-width="5" stroke-miterlimit="10" d="M303.363,155.625
			c0,5.241,4.244,9.484,9.484,9.484c5.234,0,9.479-4.244,9.479-9.484c0-5.241-4.244-9.485-9.479-9.485
			C307.607,146.139,303.363,150.383,303.363,155.625z"/>
		<path fill="#FFFFFF" stroke="#023C4E" stroke-width="5" stroke-miterlimit="10" d="M235.348,264.979
			c0,7.868,6.371,14.231,14.232,14.231c7.855,0,14.219-6.363,14.219-14.231c0-7.854-6.363-14.225-14.219-14.225
			C241.719,250.754,235.348,257.124,235.348,264.979z"/>
		<path fill="#FFFFFF" stroke="#023C4E" stroke-width="5" stroke-miterlimit="10" d="M111.498,303.462
			c0,5.24,4.244,9.485,9.486,9.485c5.234,0,9.479-4.245,9.479-9.485c0-5.241-4.244-9.486-9.479-9.486
			C115.742,293.976,111.498,298.221,111.498,303.462z"/>
		<path fill="#FFFFFF" stroke="#023C4E" stroke-width="5" stroke-miterlimit="10" d="M143.684,203.163
			c-26.271-9.347-39.961-38.219-30.582-64.469c9.381-26.266,38.271-39.963,64.543-30.615c26.271,9.346,39.975,38.205,30.594,64.476
			C198.859,198.799,169.955,212.516,143.684,203.163z"/>
		
			<line fill="none" stroke="#EB5C1C" stroke-width="5" stroke-miterlimit="10" x1="147.605" y1="186.047" x2="173.744" y2="186.047"/>
		<polyline fill="none" stroke="#EB5C1C" stroke-width="5" stroke-miterlimit="10" points="153.506,148.026 160.621,148.026 
			160.621,186.047 		"/>
		<path fill="#FFFFFF" stroke="#EB5C1C" stroke-width="5" stroke-miterlimit="10" d="M152.76,129.94
			c0,3.407,2.752,6.158,6.158,6.158c3.4,0,6.166-2.751,6.166-6.158c0-3.405-2.766-6.159-6.166-6.159
			C155.512,123.782,152.76,126.535,152.76,129.94z"/>
	</g>
	<g id="Isolation_Mode">
	</g>
</g>
<g id="Layer_4">
</g>
<g id="_x2014__x2014_Arrow">
</g>
<g id="Isolation_Mode_1_">
</g>
</svg>
