<?xml version="1.0" encoding="utf-8"?>
<!-- Generator: Adobe Illustrator 16.0.0, SVG Export Plug-In . SVG Version: 6.00 Build 0)  -->
<!DOCTYPE svg PUBLIC "-//W3C//DTD SVG 1.1//EN" "http://www.w3.org/Graphics/SVG/1.1/DTD/svg11.dtd">
<svg version="1.1" xmlns="http://www.w3.org/2000/svg" xmlns:xlink="http://www.w3.org/1999/xlink" x="0px" y="0px"
	 width="149.683px" height="110.783px" viewBox="0 0 149.683 110.783" enable-background="new 0 0 149.683 110.783"
	 xml:space="preserve">
<g id="image">
</g>
<g id="Layer_1">
	<g>
		<g>
			
				<polyline fill="none" stroke="#EB5C1C" stroke-width="5" stroke-linecap="round" stroke-linejoin="round" stroke-miterlimit="10" points="
				89.789,65.327 103.527,64.997 103.869,51.25 			"/>
			
				<polyline fill="none" stroke="#EB5C1C" stroke-width="5" stroke-linecap="round" stroke-linejoin="round" stroke-miterlimit="10" points="
				7.604,7.605 40.447,36.303 72.681,36.303 103.527,64.997 			"/>
		</g>
		<path fill="#FFFFFF" stroke="#EB5C1C" stroke-width="5" stroke-miterlimit="10" d="M2.5,7.605C2.5,4.785,4.789,2.5,7.611,2.5
			c2.814,0,5.102,2.285,5.102,5.105c0,2.818-2.287,5.107-5.102,5.107C4.789,12.713,2.5,10.424,2.5,7.605z"/>
		<path fill="#FFFFFF" stroke="#023C4E" stroke-width="5" stroke-miterlimit="10" d="M105.682,87.524
			c0-11.464,9.289-20.757,20.761-20.757c11.45,0,20.74,9.293,20.74,20.757c0,11.462-9.29,20.759-20.74,20.759
			C114.971,108.283,105.682,98.986,105.682,87.524z"/>
		<g>
			<path fill="#EB5C1C" d="M123.524,93.096c0.827,0.25,1.611,0.375,2.352,0.375c0.958,0,1.622-0.141,1.993-0.426
				c0.371-0.283,0.557-0.73,0.557-1.342c0-0.305-0.045-0.562-0.132-0.77s-0.229-0.387-0.425-0.541
				c-0.195-0.152-0.451-0.288-0.768-0.408c-0.316-0.119-0.703-0.246-1.16-0.377c-0.783-0.219-1.508-0.469-2.172-0.752
				c-0.665-0.285-1.242-0.65-1.732-1.098s-0.871-0.993-1.143-1.637c-0.273-0.645-0.408-1.445-0.408-2.407
				c0-1.593,0.396-2.837,1.192-3.731c0.794-0.896,1.835-1.484,3.12-1.769v-2.79c0-0.552,0.447-1,1-1h1.658c0.553,0,1,0.448,1,1
				v2.691c0.763,0.088,1.449,0.226,2.059,0.412c0.302,0.093,0.596,0.198,0.882,0.314c0.479,0.195,0.661,0.8,0.427,1.301
				l-0.754,1.608c-0.234,0.5-0.818,0.688-1.338,0.503c-0.83-0.298-1.734-0.446-2.713-0.446c-0.74,0-1.264,0.136-1.567,0.407
				c-0.306,0.271-0.458,0.647-0.458,1.125c0,0.305,0.049,0.549,0.146,0.734c0.098,0.184,0.244,0.342,0.439,0.473
				c0.195,0.13,0.439,0.25,0.732,0.357c0.293,0.109,0.645,0.229,1.057,0.359c0.781,0.238,1.514,0.495,2.196,0.766
				c0.683,0.271,1.28,0.619,1.79,1.043s0.916,0.963,1.221,1.613c0.304,0.652,0.455,1.467,0.455,2.445
				c0,1.631-0.368,2.963-1.104,3.994c-0.734,1.033-1.957,1.689-3.666,1.973v2.528c0,0.553-0.447,1-1,1h-1.66c-0.553,0-1-0.447-1-1
				v-2.464c-0.979-0.107-1.873-0.302-2.679-0.582c-0.439-0.153-0.848-0.322-1.223-0.508c-0.495-0.245-0.698-0.91-0.489-1.421
				l0.681-1.659c0.209-0.512,0.753-0.677,1.249-0.436C122.575,92.769,123.036,92.948,123.524,93.096z"/>
		</g>
	</g>
	<g id="Isolation_Mode">
	</g>
</g>
<g id="Layer_4">
</g>
<g id="_x2014__x2014_Arrow">
</g>
<g id="Isolation_Mode_1_">
</g>
</svg>
