<?xml version="1.0" encoding="utf-8"?>
<!-- Generator: Adobe Illustrator 16.0.0, SVG Export Plug-In . SVG Version: 6.00 Build 0)  -->
<!DOCTYPE svg PUBLIC "-//W3C//DTD SVG 1.1//EN" "http://www.w3.org/Graphics/SVG/1.1/DTD/svg11.dtd">
<svg version="1.1" xmlns="http://www.w3.org/2000/svg" xmlns:xlink="http://www.w3.org/1999/xlink" x="0px" y="0px"
	 width="342.895px" height="251.582px" viewBox="0 0 342.895 251.582" enable-background="new 0 0 342.895 251.582"
	 xml:space="preserve">
<g id="image">
</g>
<g id="Layer_1">
	<g id="Isolation_Mode">
	</g>
</g>
<g id="Layer_4">
</g>
<g id="_x2014__x2014_Arrow">
</g>
<g id="Isolation_Mode_1_">
	<g>
		<path fill="#FFFFFF" stroke="#023C4E" stroke-width="5" stroke-miterlimit="10" d="M47.369,78.634l96.705,39.659
			c0.782,0.321,1.416-0.105,1.416-0.95V44.377c0-0.846-0.634-1.791-1.416-2.112L47.369,2.607c-0.783-0.32-1.417,0.104-1.417,0.95
			v72.966C45.952,77.368,46.586,78.313,47.369,78.634z"/>
		<path fill="#FFFFFF" stroke="#023C4E" stroke-width="5" stroke-miterlimit="10" d="M217.413,147.834l121.463-14.934
			c0.839-0.103,1.519-0.871,1.519-1.717V52.481c0-0.845-0.68-1.447-1.519-1.343L217.413,66.072c-0.839,0.103-1.52,0.873-1.52,1.717
			v78.702C215.894,147.336,216.574,147.938,217.413,147.834z"/>
		<path fill="#FFFFFF" stroke="#023C4E" stroke-width="5" stroke-miterlimit="10" d="M4.019,190.427l121.462-16.974
			c0.84-0.104,1.52-0.872,1.52-1.718V93.033c0-0.845-0.68-1.447-1.52-1.344L4.019,105.092C3.18,105.196,2.5,105.964,2.5,106.81
			v82.273C2.5,189.929,3.18,190.53,4.019,190.427z"/>
		<g>
			
				<polyline fill="#FFFFFF" stroke="#003B4D" stroke-width="5" stroke-linecap="round" stroke-linejoin="round" stroke-miterlimit="10" points="
				297.469,82.916 313.673,98.171 299.237,115.111 			"/>
			
				<line fill="#FFFFFF" stroke="#003B4D" stroke-width="5" stroke-linecap="round" stroke-linejoin="round" stroke-miterlimit="10" x1="248.174" y1="105.141" x2="311.592" y2="97.698"/>
		</g>
		<g>
			
				<polyline fill="#FFFFFF" stroke="#003B4D" stroke-width="5" stroke-linecap="round" stroke-linejoin="round" stroke-miterlimit="10" points="
				47.662,162.682 33.605,149.99 45.945,129.639 			"/>
			
				<line fill="#FFFFFF" stroke="#003B4D" stroke-width="5" stroke-linecap="round" stroke-linejoin="round" stroke-miterlimit="10" x1="95.492" y1="138.465" x2="34.104" y2="149.721"/>
		</g>
		<g>
			
				<polyline fill="#FFFFFF" stroke="#003B4D" stroke-width="5" stroke-linecap="round" stroke-linejoin="round" stroke-miterlimit="10" points="
				75.215,70.916 65.046,53.76 78.472,43.352 			"/>
			
				<line fill="#FFFFFF" stroke="#003B4D" stroke-width="5" stroke-linecap="round" stroke-linejoin="round" stroke-miterlimit="10" x1="124.247" y1="77.775" x2="66.859" y2="53.917"/>
		</g>
		<g>
			<path fill="none" stroke="#EB5C1C" stroke-width="3.8" stroke-miterlimit="10" d="M176.543,27.042
				c3.296-2.145,4.202-3.421,4.178-6.312c-0.026-3.032-1.447-4.291-4.762-4.262c-2.536,0.023-4.609,0.906-6.038,1.831
				c-0.655,0.423-1.461,0.301-1.865-0.366l-2.754-4.535c-0.406-0.666-0.233-1.593,0.408-2.031c3.09-2.104,6.631-3.471,11.516-3.513
				c7.759-0.067,13.779,3.125,13.856,12.153c0.055,6.417-2.738,9.615-7.367,12.475c-2.669,1.644-3.292,3.061-3.264,6.375
				l0.022,2.821c0.007,0.778-0.616,1.416-1.397,1.422l-5.712,0.048c-0.775,0.007-1.417-0.62-1.423-1.398l-0.035-4.372
				C171.856,31.594,173.249,29.256,176.543,27.042z M171.112,56.384c-0.027-3.041,2.347-5.519,5.388-5.545
				c3.04-0.026,5.453,2.412,5.48,5.453c0.025,3.041-2.347,5.52-5.387,5.546C173.552,61.864,171.137,59.425,171.112,56.384z"/>
		</g>
		<path fill="#FFFFFF" stroke="#023C4E" stroke-width="5" stroke-miterlimit="10" d="M196.082,102.054
			c-0.076,9.941-8.194,17.938-18.135,17.861c-9.943-0.076-17.94-8.196-17.863-18.137c0.076-9.941,8.196-17.938,18.139-17.862
			C188.164,83.993,196.158,92.113,196.082,102.054z"/>
		<path fill="#FFFFFF" stroke="#023C4E" stroke-width="5" stroke-miterlimit="10" d="M198.083,151.006
			c0-10.711-9.021-19.924-19.719-19.924s-20.281,8.417-20.281,19.129c0,0.402,0,98.871,0,98.871h40
			C198.083,249.082,198.083,151.071,198.083,151.006z"/>
	</g>
</g>
</svg>
