<?xml version="1.0" encoding="utf-8"?>
<!-- Generator: Adobe Illustrator 16.0.0, SVG Export Plug-In . SVG Version: 6.00 Build 0)  -->
<!DOCTYPE svg PUBLIC "-//W3C//DTD SVG 1.1//EN" "http://www.w3.org/Graphics/SVG/1.1/DTD/svg11.dtd">
<svg version="1.1" xmlns="http://www.w3.org/2000/svg" xmlns:xlink="http://www.w3.org/1999/xlink" x="0px" y="0px"
	 width="62.362px" height="38.346px" viewBox="0 0 62.362 38.346" enable-background="new 0 0 62.362 38.346" xml:space="preserve">
<g id="image">
</g>
<g id="Layer_1">
	<g>
		<path fill="#023C4E" d="M20.45,29.492c1.61,0,2.845,1.195,2.845,2.871c0,0.094-0.014,0.311-0.027,0.402
			c-0.013,0.162-0.161,0.281-0.295,0.281h-3.969c0.012,0.766,0.643,1.436,1.541,1.436c0.617,0,1.046-0.227,1.327-0.455
			c0.148-0.121,0.31-0.135,0.403,0l0.522,0.695c0.108,0.123,0.121,0.27-0.025,0.404c-0.536,0.455-1.301,0.846-2.308,0.846
			c-1.852,0-3.138-1.477-3.138-3.248C17.327,30.982,18.613,29.492,20.45,29.492L20.45,29.492L20.45,29.492z M21.605,31.947
			c-0.027-0.604-0.51-1.072-1.194-1.072c-0.752,0-1.234,0.455-1.314,1.072H21.605L21.605,31.947L21.605,31.947z M36.623,27.105
			h-6.31c-0.146,0-0.255,0.121-0.255,0.256v1.1c0,0.133,0.108,0.254,0.255,0.254h2.276v6.855c0,0.135,0.121,0.254,0.255,0.254h1.247
			c0.135,0,0.255-0.119,0.255-0.254v-6.855h2.276c0.146,0,0.254-0.121,0.254-0.254v-1.1C36.877,27.227,36.769,27.105,36.623,27.105
			L36.623,27.105L36.623,27.105z M46.112,29.494c-0.616,0-1.234,0.146-1.517,0.268v-2.359c0-0.148-0.133-0.297-0.294-0.297h-1.086
			c-0.148,0-0.297,0.148-0.297,0.297v8.127c0,0.16,0.148,0.295,0.297,0.295h0.47c0.009,0,0.017,0,0.025-0.002h0.126
			c0.163,0,0.297-0.135,0.297-0.295v-0.459l0.007-0.021c0,0,0.71,0.926,2.065,0.926c1.69,0,2.91-1.477,2.91-3.246
			C49.116,30.916,47.949,29.494,46.112,29.494L46.112,29.494L46.112,29.494z M45.965,34.443c-0.806,0-1.233-0.51-1.369-0.859v-2.213
			c0,0,0.51-0.348,1.288-0.348c1.02,0,1.544,0.832,1.544,1.703S46.931,34.443,45.965,34.443L45.965,34.443L45.965,34.443z
			 M56.501,29.492c1.609,0,2.844,1.195,2.844,2.871c0,0.094-0.015,0.311-0.027,0.402c-0.015,0.162-0.161,0.281-0.295,0.281h-3.971
			c0.015,0.766,0.644,1.436,1.543,1.436c0.616,0,1.046-0.227,1.327-0.455c0.148-0.121,0.31-0.135,0.403,0l0.522,0.695
			c0.108,0.123,0.121,0.27-0.027,0.404c-0.536,0.455-1.301,0.846-2.307,0.846c-1.851,0-3.139-1.477-3.139-3.248
			C53.375,30.982,54.663,29.492,56.501,29.492L56.501,29.492L56.501,29.492z M57.615,31.947c-0.027-0.604-0.51-1.072-1.194-1.072
			c-0.75,0-1.233,0.455-1.313,1.072H57.615L57.615,31.947L57.615,31.947z M13.383,29.494c-1.274,0-1.98,0.869-2.022,0.924v-0.494
			c0-0.162-0.135-0.295-0.296-0.295h-0.659c-0.161,0-0.295,0.133-0.295,0.295v8.127c0,0.148,0.134,0.295,0.295,0.295h1.088
			c0.146,0,0.294-0.146,0.294-0.295v-2.334c0.282,0.107,0.871,0.256,1.489,0.256c1.85,0,3.071-1.424,3.071-3.232
			C16.348,30.861,15.073,29.494,13.383,29.494L13.383,29.494L13.383,29.494z M13.073,34.443c-0.776,0-1.286-0.35-1.286-0.35v-2.213
			c0.134-0.35,0.563-0.857,1.368-0.857c0.965,0,1.461,0.844,1.461,1.717C14.616,33.611,14.095,34.443,13.073,34.443L13.073,34.443
			L13.073,34.443z M27.842,29.494c-1.187,0-1.764,0.637-1.994,0.895v-0.465c0-0.162-0.134-0.295-0.295-0.295h-0.701
			c-0.147,0-0.296,0.119-0.296,0.295v5.605c0,0.16,0.148,0.295,0.296,0.295h0.992c0.294,0,0.389-0.066,0.389-0.295v-3.541
			c0.147-0.428,0.536-0.965,1.343-0.965c0.749,0,1.07,0.496,1.07,1.301v3.205c0,0.16,0.136,0.295,0.297,0.295h1.086
			c0.148,0,0.294-0.135,0.294-0.295v-3.205C30.322,30.82,29.813,29.494,27.842,29.494L27.842,29.494L27.842,29.494z M39.102,29.494
			c-1.006,0-1.985,0.254-2.119,0.309c-0.134,0.039-0.255,0.146-0.2,0.375l0.134,0.697c0.026,0.188,0.147,0.336,0.348,0.268
			c0.363-0.107,1.181-0.227,1.744-0.227c0.658,0,0.885,0.375,0.858,1.166c0,0-0.562-0.174-1.192-0.174
			c-1.57,0-2.469,0.844-2.469,1.943c0,1.328,0.858,2.121,2.093,2.121c0.965,0,1.583-0.43,1.944-0.777v0.332
			c0,0.16,0.134,0.295,0.294,0.295h0.11c0.011,0.002,0.025,0.002,0.038,0.002h0.457c0.16,0,0.294-0.135,0.294-0.295v-3.34
			C41.436,30.498,41.033,29.494,39.102,29.494L39.102,29.494L39.102,29.494z M39.826,34.066c-0.079,0.229-0.563,0.658-1.113,0.658
			c-0.576,0-0.899-0.348-0.899-0.873c0-0.549,0.39-0.885,1.101-0.885c0.496,0,0.912,0.188,0.912,0.188V34.066L39.826,34.066
			L39.826,34.066z M4.434,27.113c-2.444,0-4.434,2-4.434,4.459c0,2.488,1.945,4.438,4.434,4.438c2.495,0,4.45-1.949,4.45-4.438
			C8.884,29.113,6.888,27.113,4.434,27.113L4.434,27.113L4.434,27.113z M4.434,28.838c1.479,0,2.727,1.25,2.727,2.734
			c0,1.498-1.224,2.715-2.727,2.715c-1.494,0-2.712-1.217-2.712-2.715C1.722,30.064,2.939,28.838,4.434,28.838L4.434,28.838
			L4.434,28.838z M52.246,35.834c0.161,0,0.298-0.135,0.298-0.295v-1.09c0-0.162-0.136-0.295-0.296-0.295H52.2
			c-0.134,0-0.265-0.133-0.265-0.266V33.84v-6.416c0-0.148-0.148-0.295-0.297-0.295h-1.086c-0.147,0-0.296,0.146-0.296,0.295v7.16
			l0.005,0.186c0,0.533,0.533,1.066,1.066,1.066L52.246,35.834L52.246,35.834L52.246,35.834z"/>
		<path fill="#023C4E" d="M59.989,30.732c0-0.734,0.535-1.24,1.184-1.24c0.654,0,1.189,0.506,1.189,1.24
			c0,0.736-0.535,1.24-1.189,1.24C60.524,31.973,59.989,31.469,59.989,30.732L59.989,30.732L59.989,30.732z M62.11,30.732
			c0-0.59-0.41-1.012-0.938-1.012s-0.931,0.422-0.931,1.012c0,0.598,0.403,1.008,0.931,1.008S62.11,31.33,62.11,30.732L62.11,30.732
			L62.11,30.732z M60.72,30.078h0.479c0.264,0,0.491,0.107,0.491,0.41c0,0.15-0.096,0.295-0.233,0.344l0.289,0.523h-0.289
			l-0.22-0.439h-0.259v0.439H60.72V30.078L60.72,30.078L60.72,30.078z M61.143,30.713c0.169,0,0.269-0.074,0.269-0.213
			c0-0.125-0.068-0.207-0.258-0.207h-0.176v0.42H61.143L61.143,30.713L61.143,30.713z"/>
		<path fill="#023C4E" d="M14.553,10.83c0-1.494,1.213-2.707,2.707-2.707s2.706,1.213,2.706,2.707c0,1.496-1.212,2.709-2.706,2.709
			S14.553,12.326,14.553,10.83 M33.561,13.539c-1.494,0-2.705-1.213-2.705-2.709c0-1.494,1.211-2.707,2.705-2.707
			s2.706,1.213,2.706,2.707C36.267,12.326,35.055,13.539,33.561,13.539L33.561,13.539z M33.561,0
			c-5.977,0-10.822,4.852-10.822,10.83c0,5.982,4.846,10.832,10.822,10.832c5.979,0,10.824-4.85,10.824-10.832
			C44.385,4.852,39.539,0,33.561,0L33.561,0z"/>
	</g>
	<g id="Isolation_Mode">
	</g>
</g>
<g id="Layer_4">
</g>
<g id="_x2014__x2014_Arrow">
</g>
<g id="Isolation_Mode_1_">
</g>
</svg>
