<?xml version="1.0" encoding="utf-8"?>
<!-- Generator: Adobe Illustrator 16.0.0, SVG Export Plug-In . SVG Version: 6.00 Build 0)  -->
<!DOCTYPE svg PUBLIC "-//W3C//DTD SVG 1.1//EN" "http://www.w3.org/Graphics/SVG/1.1/DTD/svg11.dtd">
<svg version="1.1" xmlns="http://www.w3.org/2000/svg" xmlns:xlink="http://www.w3.org/1999/xlink" x="0px" y="0px" width="304px"
	 height="304px" viewBox="0 0 304 304" enable-background="new 0 0 304 304" xml:space="preserve">
<g id="image">
</g>
<g id="Layer_1">
	
		<rect x="2" y="2" fill="#FFFFFF" stroke="#023C4E" stroke-width="4" stroke-linecap="round" stroke-miterlimit="10" width="300" height="300"/>
	<g>
		<defs>
			<rect id="SVGID_531_" x="4" y="4" width="296" height="296"/>
		</defs>
		<clipPath id="SVGID_2_">
			<use xlink:href="#SVGID_531_"  overflow="visible"/>
		</clipPath>
		<g clip-path="url(#SVGID_2_)">
			
				<polygon fill="#FFFFFF" stroke="#023C4E" stroke-width="4" stroke-linecap="round" stroke-linejoin="round" stroke-miterlimit="10" points="
				123.326,-188.332 -206.287,141.28 60.293,407.859 180.5,287.651 205.25,312.4 220.807,296.843 196.057,272.094 261.111,207.041 
				285.859,231.79 301.416,216.233 276.667,191.484 389.904,78.247 			"/>
			
				<rect x="-62.095" y="154.174" transform="matrix(-0.7071 0.7071 -0.7071 -0.7071 127.3916 298.5799)" fill="#FFFFFF" stroke="#023C4E" stroke-width="3.9985" stroke-linecap="round" stroke-linejoin="round" stroke-miterlimit="10" width="127.904" height="43"/>
			
				<rect x="117.687" y="-13.157" transform="matrix(-0.7071 0.7071 -0.7071 -0.7071 294.7209 -105.3904)" fill="#FFFFFF" stroke="#023C4E" stroke-width="4" stroke-linecap="round" stroke-linejoin="round" stroke-miterlimit="10" width="103" height="43.001"/>
			
				<polygon fill="#FFFFFF" stroke="#023C4E" stroke-width="4" stroke-linecap="round" stroke-linejoin="round" stroke-miterlimit="10" points="
				90.698,158.25 124.64,192.191 89.284,227.547 111.205,249.467 147.268,213.405 202.422,158.25 179.794,135.623 146.56,102.389 
							"/>
			<g>
				<defs>
					<polygon id="SVGID_533_" points="62.237,145.699 -28.163,236.1 -57.48,206.782 33.09,116.294 					"/>
				</defs>
				<clipPath id="SVGID_4_">
					<use xlink:href="#SVGID_533_"  overflow="visible"/>
				</clipPath>
				<g clip-path="url(#SVGID_4_)">
					<g>
						<path fill="#023C4E" d="M51.714,254.54c0.003-1.134,0.925-2.057,2.061-2.057c1.135,0,2.058,0.921,2.06,2.057
							c-0.002,1.137-0.925,2.057-2.057,2.062C52.639,256.599,51.717,255.677,51.714,254.54z"/>
						<path fill="#023C4E" d="M51.714,240.819c0.001-1.138,0.925-2.058,2.062-2.059c1.135,0,2.056,0.922,2.059,2.059
							c0,1.136-0.926,2.059-2.06,2.059C52.639,242.876,51.715,241.954,51.714,240.819z"/>
						<path fill="#023C4E" d="M51.715,227.094c-0.001-1.132,0.925-2.057,2.06-2.057c1.136,0,2.058,0.922,2.061,2.058
							c-0.002,1.137-0.923,2.056-2.062,2.057C52.638,229.153,51.715,228.233,51.715,227.094z"/>
						<path fill="#023C4E" d="M51.714,213.375c0.002-1.139,0.923-2.062,2.06-2.06c1.136-0.001,2.062,0.923,2.061,2.061
							c0,1.133-0.924,2.057-2.057,2.057C52.638,215.432,51.714,214.51,51.714,213.375z"/>
						<path fill="#023C4E" d="M51.715,199.648c-0.001-1.135,0.923-2.059,2.061-2.056c1.135-0.001,2.059,0.922,2.059,2.057
							c-0.001,1.136-0.924,2.059-2.057,2.058C52.639,201.707,51.714,200.787,51.715,199.648z"/>
						<circle fill="#023C4E" cx="53.774" cy="185.926" r="2.06"/>
						<path fill="#023C4E" d="M51.716,172.201c0.001-1.135,0.924-2.057,2.063-2.057c1.129,0,2.053,0.922,2.055,2.061
							c0,1.133-0.926,2.057-2.061,2.058C52.637,174.262,51.715,173.339,51.716,172.201z"/>
						<path fill="#023C4E" d="M51.715,158.481c0-1.138,0.924-2.059,2.059-2.058c1.138-0.001,2.057,0.922,2.061,2.057
							c-0.004,1.136-0.922,2.057-2.057,2.059C52.639,160.538,51.713,159.616,51.715,158.481z"/>
						<path fill="#023C4E" d="M51.713,144.759c0.003-1.14,0.926-2.062,2.062-2.062s2.059,0.922,2.061,2.06
							c-0.002,1.136-0.924,2.058-2.059,2.059C52.637,146.815,51.715,145.893,51.713,144.759z"/>
						<path fill="#023C4E" d="M51.718,131.033c-0.003-1.134,0.92-2.058,2.06-2.058c1.135,0,2.059,0.923,2.055,2.06
							c0,1.135-0.924,2.057-2.058,2.056C52.638,133.091,51.713,132.17,51.718,131.033z"/>
					</g>
					<g>
						<path fill="#023C4E" d="M40.654,243.474c0.003-1.134,0.925-2.058,2.061-2.057c1.135,0,2.059,0.921,2.06,2.057
							c-0.002,1.137-0.924,2.061-2.057,2.062C41.578,245.537,40.656,244.611,40.654,243.474z"/>
						<circle fill="#023C4E" cx="42.715" cy="229.752" r="2.061"/>
						<path fill="#023C4E" d="M40.655,216.027c-0.001-1.132,0.925-2.057,2.059-2.056c1.137,0,2.061,0.921,2.062,2.057
							c0.001,1.138-0.924,2.057-2.062,2.057C41.578,218.087,40.655,217.167,40.655,216.027z"/>
						<path fill="#023C4E" d="M40.654,202.309c0.002-1.139,0.924-2.062,2.06-2.06c1.136-0.002,2.062,0.922,2.06,2.059
							c0,1.134-0.923,2.058-2.057,2.059C41.578,204.366,40.654,203.443,40.654,202.309z"/>
						<path fill="#023C4E" d="M40.654,188.583c0-1.135,0.924-2.06,2.061-2.058c1.136,0,2.059,0.922,2.059,2.058
							c0,1.136-0.923,2.059-2.056,2.058C41.579,190.641,40.654,189.721,40.654,188.583z"/>
						<circle fill="#023C4E" cx="42.714" cy="174.86" r="2.06"/>
						<path fill="#023C4E" d="M40.656,161.135c0-1.134,0.923-2.057,2.062-2.056c1.131,0,2.055,0.921,2.056,2.06
							c0.001,1.133-0.924,2.057-2.06,2.058C41.577,163.195,40.655,162.272,40.656,161.135z"/>
						<circle fill="#023C4E" cx="42.714" cy="147.415" r="2.059"/>
						<circle fill="#023C4E" cx="42.714" cy="133.691" r="2.061"/>
						<path fill="#023C4E" d="M40.658,119.967c0-1.135,0.92-2.058,2.061-2.058c1.134,0.001,2.057,0.924,2.054,2.061
							c0.001,1.135-0.924,2.056-2.058,2.056C41.578,122.025,40.657,121.104,40.658,119.967z"/>
					</g>
					<g>
						<path fill="#023C4E" d="M29.593,232.412c0.002-1.134,0.925-2.058,2.061-2.058c1.135,0,2.058,0.923,2.059,2.058
							c-0.001,1.137-0.924,2.06-2.057,2.061C30.516,234.474,29.594,233.549,29.593,232.412z"/>
						<circle fill="#023C4E" cx="31.653" cy="218.69" r="2.06"/>
						<path fill="#023C4E" d="M29.593,204.966c0-1.133,0.925-2.058,2.06-2.057c1.136,0,2.058,0.922,2.061,2.058
							c-0.002,1.137-0.924,2.058-2.062,2.058C30.517,207.024,29.593,206.105,29.593,204.966z"/>
						<path fill="#023C4E" d="M29.593,191.246c0.001-1.139,0.923-2.061,2.06-2.059c1.136-0.002,2.061,0.922,2.059,2.059
							c0.001,1.134-0.923,2.057-2.057,2.059C30.517,193.304,29.593,192.381,29.593,191.246z"/>
						<circle fill="#023C4E" cx="31.652" cy="177.521" r="2.06"/>
						<circle fill="#023C4E" cx="31.652" cy="163.798" r="2.061"/>
						<path fill="#023C4E" d="M29.594,150.073c0-1.135,0.924-2.057,2.062-2.057c1.13,0,2.055,0.922,2.055,2.06
							c0.001,1.134-0.924,2.057-2.06,2.059C30.515,152.134,29.593,151.21,29.594,150.073z"/>
						<circle fill="#023C4E" cx="31.653" cy="136.353" r="2.06"/>
						<circle fill="#023C4E" cx="31.653" cy="122.63" r="2.061"/>
						<path fill="#023C4E" d="M29.596,108.904c0-1.134,0.92-2.057,2.06-2.057c1.135,0.001,2.059,0.923,2.055,2.06
							c0,1.136-0.924,2.057-2.058,2.057C30.517,110.963,29.596,110.042,29.596,108.904z"/>
					</g>
					<g>
						<circle fill="#023C4E" cx="20.59" cy="221.35" r="2.06"/>
						<path fill="#023C4E" d="M18.531,207.629c0-1.138,0.924-2.06,2.061-2.06c1.135,0,2.057,0.922,2.06,2.059
							c-0.001,1.137-0.926,2.059-2.061,2.058C19.455,209.685,18.531,208.764,18.531,207.629z"/>
						<path fill="#023C4E" d="M18.531,193.903c0-1.133,0.925-2.057,2.059-2.055c1.136-0.001,2.059,0.921,2.061,2.057
							c-0.001,1.138-0.924,2.058-2.061,2.057C19.455,195.961,18.531,195.042,18.531,193.903z"/>
						<circle fill="#023C4E" cx="20.589" cy="180.183" r="2.059"/>
						<circle fill="#023C4E" cx="20.59" cy="166.458" r="2.059"/>
						<circle fill="#023C4E" cx="20.59" cy="152.735" r="2.06"/>
						<path fill="#023C4E" d="M18.531,139.01c0.001-1.134,0.923-2.056,2.062-2.056c1.132,0,2.056,0.922,2.056,2.059
							c0.002,1.134-0.923,2.057-2.059,2.059C19.453,141.071,18.53,140.148,18.531,139.01z"/>
						<circle fill="#023C4E" cx="20.591" cy="125.29" r="2.06"/>
						<path fill="#023C4E" d="M18.53,111.568c0.002-1.14,0.925-2.061,2.061-2.062c1.138,0,2.06,0.922,2.06,2.06
							c0,1.135-0.922,2.056-2.059,2.058C19.453,113.624,18.532,112.703,18.53,111.568z"/>
						<circle fill="#023C4E" cx="20.59" cy="97.844" r="2.057"/>
					</g>
					<g>
						<circle fill="#023C4E" cx="9.528" cy="210.288" r="2.06"/>
						<circle fill="#023C4E" cx="9.529" cy="196.567" r="2.059"/>
						<path fill="#023C4E" d="M7.47,182.841c-0.001-1.132,0.924-2.057,2.058-2.055c1.137-0.001,2.06,0.921,2.061,2.057
							c0,1.137-0.924,2.058-2.06,2.057C8.393,184.9,7.469,183.98,7.47,182.841z"/>
						<circle fill="#023C4E" cx="9.527" cy="169.121" r="2.059"/>
						<circle fill="#023C4E" cx="9.528" cy="155.397" r="2.06"/>
						<circle fill="#023C4E" cx="9.528" cy="141.674" r="2.06"/>
						<path fill="#023C4E" d="M7.469,127.949c0.001-1.134,0.924-2.056,2.062-2.056c1.131-0.001,2.056,0.923,2.055,2.058
							c0.001,1.135-0.922,2.059-2.058,2.061C8.392,130.01,7.469,129.087,7.469,127.949z"/>
						<circle fill="#023C4E" cx="9.528" cy="114.228" r="2.06"/>
						<circle fill="#023C4E" cx="9.528" cy="100.506" r="2.061"/>
						<path fill="#023C4E" d="M7.471,86.78c-0.002-1.134,0.922-2.057,2.06-2.056c1.136,0,2.057,0.923,2.055,2.06
							c-0.001,1.135-0.922,2.057-2.059,2.057C8.392,88.84,7.468,87.918,7.471,86.78z"/>
					</g>
					<g>
						<circle fill="#023C4E" cx="-1.534" cy="199.226" r="2.06"/>
						<circle fill="#023C4E" cx="-1.533" cy="185.504" r="2.06"/>
						<path fill="#023C4E" d="M-3.593,171.779c-0.001-1.133,0.924-2.058,2.058-2.056c1.137,0,2.06,0.922,2.062,2.057
							c-0.001,1.137-0.924,2.058-2.062,2.057C-2.67,173.838-3.593,172.917-3.593,171.779z"/>
						<circle fill="#023C4E" cx="-1.535" cy="158.058" r="2.059"/>
						<circle fill="#023C4E" cx="-1.534" cy="144.334" r="2.06"/>
						<circle fill="#023C4E" cx="-1.534" cy="130.611" r="2.06"/>
						<path fill="#023C4E" d="M-3.594,116.886c0.001-1.135,0.924-2.057,2.062-2.056c1.133-0.001,2.057,0.922,2.056,2.058
							c0.001,1.136-0.921,2.059-2.059,2.061C-2.67,118.947-3.594,118.023-3.594,116.886z"/>
						<circle fill="#023C4E" cx="-1.534" cy="103.166" r="2.059"/>
						<path fill="#023C4E" d="M-3.595,89.444c0-1.14,0.926-2.061,2.061-2.062c1.138,0,2.06,0.923,2.061,2.06
							c-0.001,1.135-0.923,2.056-2.061,2.059C-2.67,91.5-3.594,90.579-3.595,89.444z"/>
						<path fill="#023C4E" d="M-3.592,75.718c-0.002-1.135,0.922-2.057,2.06-2.057c1.137,0,2.056,0.923,2.056,2.059
							c-0.002,1.136-0.923,2.058-2.06,2.058C-2.67,77.777-3.594,76.855-3.592,75.718z"/>
					</g>
				</g>
			</g>
			<g>
				<defs>
					<polygon id="SVGID_535_" points="220.74,-12.803 147.975,59.962 118.656,30.644 191.566,-42.183 					"/>
				</defs>
				<clipPath id="SVGID_6_">
					<use xlink:href="#SVGID_535_"  overflow="visible"/>
				</clipPath>
				<g clip-path="url(#SVGID_6_)">
					<g>
						<path fill="#023C4E" d="M118.936,68.691c1.134,0.001,2.055,0.924,2.057,2.061c0,1.135-0.922,2.057-2.057,2.06
							c-1.139-0.003-2.059-0.925-2.062-2.059C116.876,69.617,117.798,68.695,118.936,68.691z"/>
						<circle fill="#023C4E" cx="132.655" cy="70.75" r="2.059"/>
						<path fill="#023C4E" d="M146.381,68.694c1.133-0.003,2.058,0.922,2.057,2.058c0,1.135-0.924,2.058-2.059,2.061
							c-1.137,0-2.057-0.921-2.057-2.061C144.322,69.614,145.242,68.691,146.381,68.694z"/>
						<path fill="#023C4E" d="M160.101,68.691c1.138,0.001,2.062,0.924,2.06,2.06c0.002,1.136-0.924,2.061-2.061,2.06
							c-1.134,0.001-2.057-0.922-2.056-2.056C158.042,69.614,158.965,68.691,160.101,68.691z"/>
						<circle fill="#023C4E" cx="173.825" cy="70.752" r="2.06"/>
						<circle fill="#023C4E" cx="187.549" cy="70.752" r="2.06"/>
						<path fill="#023C4E" d="M201.273,68.691c1.135,0.001,2.055,0.925,2.057,2.064c-0.001,1.132-0.923,2.056-2.061,2.057
							c-1.133,0-2.057-0.924-2.059-2.06C199.213,69.615,200.137,68.691,201.273,68.691z"/>
						<circle fill="#023C4E" cx="214.994" cy="70.752" r="2.058"/>
						<path fill="#023C4E" d="M228.715,68.69c1.141,0.003,2.061,0.925,2.062,2.063c0,1.135-0.922,2.057-2.059,2.057
							c-1.138,0.001-2.059-0.923-2.059-2.056C226.66,69.614,227.582,68.691,228.715,68.69z"/>
						<path fill="#023C4E" d="M242.44,68.694c1.135-0.003,2.059,0.921,2.059,2.061c0,1.134-0.923,2.058-2.06,2.057
							c-1.136-0.001-2.057-0.926-2.057-2.06C240.385,69.614,241.305,68.69,242.44,68.694z"/>
					</g>
					<g>
						<path fill="#023C4E" d="M118.937,53.046c1.134-0.001,2.055,0.924,2.057,2.06c0,1.136-0.922,2.065-2.057,2.061
							c-1.139-0.005-2.062-0.925-2.062-2.059C116.873,53.972,117.799,53.047,118.937,53.046z"/>
						<circle fill="#023C4E" cx="132.656" cy="55.106" r="2.059"/>
						<path fill="#023C4E" d="M146.382,53.049c1.133,0,2.058,0.922,2.057,2.058c0,1.135-0.924,2.064-2.059,2.061
							c-1.137-0.003-2.057-0.922-2.057-2.061C144.323,53.969,145.243,53.049,146.382,53.049z"/>
						<path fill="#023C4E" d="M160.102,53.046c1.138,0.001,2.062,0.924,2.06,2.06c0.002,1.136-0.924,2.061-2.06,2.059
							c-1.135,0.001-2.058-0.922-2.057-2.056C158.043,53.969,158.966,53.046,160.102,53.046z"/>
						<circle fill="#023C4E" cx="173.826" cy="55.107" r="2.06"/>
						<circle fill="#023C4E" cx="187.55" cy="55.107" r="2.06"/>
						<path fill="#023C4E" d="M201.274,53.046c1.135,0.001,2.055,0.925,2.057,2.063c-0.001,1.132-0.923,2.057-2.061,2.057
							c-1.133,0-2.057-0.924-2.059-2.06C199.214,53.97,200.138,53.046,201.274,53.046z"/>
						<circle fill="#023C4E" cx="214.995" cy="55.107" r="2.058"/>
						<path fill="#023C4E" d="M228.716,53.046c1.141,0.001,2.061,0.925,2.062,2.063c0,1.135-0.922,2.057-2.059,2.057
							c-1.138,0.001-2.059-0.923-2.059-2.056C226.661,53.97,227.583,53.045,228.716,53.046z"/>
						<circle fill="#023C4E" cx="242.441" cy="55.107" r="2.059"/>
					</g>
					<g>
						<circle fill="#023C4E" cx="118.936" cy="39.462" r="2.06"/>
						<circle fill="#023C4E" cx="132.656" cy="39.461" r="2.059"/>
						<path fill="#023C4E" d="M146.382,37.404c1.133-0.002,2.058,0.922,2.056,2.058c0.001,1.135-0.923,2.058-2.058,2.06
							c-1.137,0-2.057-0.922-2.057-2.061C144.322,38.325,145.243,37.402,146.382,37.404z"/>
						<path fill="#023C4E" d="M160.102,37.402c1.138,0,2.061,0.923,2.06,2.059c0.002,1.136-0.924,2.061-2.06,2.059
							c-1.135,0.002-2.058-0.922-2.057-2.056C158.043,38.325,158.966,37.402,160.102,37.402z"/>
						<circle fill="#023C4E" cx="173.826" cy="39.463" r="2.06"/>
						<circle fill="#023C4E" cx="187.55" cy="39.463" r="2.06"/>
						<path fill="#023C4E" d="M201.274,37.402c1.135,0.001,2.056,0.924,2.057,2.062c-0.001,1.132-0.923,2.057-2.06,2.057
							c-1.134,0-2.059-0.923-2.06-2.059C199.212,38.326,200.138,37.402,201.274,37.402z"/>
						<circle fill="#023C4E" cx="214.995" cy="39.463" r="2.058"/>
						<path fill="#023C4E" d="M228.716,37.401c1.141,0.003,2.06,0.925,2.062,2.062c0,1.136-0.922,2.058-2.059,2.058
							c-1.137,0.001-2.058-0.923-2.059-2.057C226.661,38.325,227.583,37.403,228.716,37.401z"/>
						<circle fill="#023C4E" cx="242.441" cy="39.463" r="2.059"/>
					</g>
					<g>
						<circle fill="#023C4E" cx="118.936" cy="23.818" r="2.06"/>
						<circle fill="#023C4E" cx="132.656" cy="23.818" r="2.059"/>
						<path fill="#023C4E" d="M146.382,21.76c1.133-0.002,2.058,0.922,2.056,2.058c0.001,1.135-0.923,2.058-2.057,2.061
							c-1.138,0-2.058-0.923-2.058-2.061C144.322,22.681,145.243,21.758,146.382,21.76z"/>
						<path fill="#023C4E" d="M160.102,21.758c1.138,0.001,2.061,0.923,2.059,2.059c0.002,1.137-0.922,2.054-2.059,2.059
							c-1.135,0.005-2.058-0.922-2.057-2.056C158.043,22.681,158.967,21.758,160.102,21.758z"/>
						<circle fill="#023C4E" cx="173.826" cy="23.818" r="2.06"/>
						<circle fill="#023C4E" cx="187.549" cy="23.818" r="2.06"/>
						<path fill="#023C4E" d="M201.274,21.758c1.135,0.001,2.056,0.924,2.057,2.062c-0.001,1.133-0.923,2.058-2.06,2.057
							c-1.134,0-2.06-0.922-2.06-2.059C199.212,22.682,200.138,21.758,201.274,21.758z"/>
						<circle fill="#023C4E" cx="214.995" cy="23.819" r="2.058"/>
						<path fill="#023C4E" d="M228.716,21.758c1.141,0.002,2.06,0.924,2.062,2.062c0,1.137-0.922,2.058-2.06,2.058
							c-1.136,0.001-2.058-0.923-2.058-2.057C226.661,22.681,227.582,21.759,228.716,21.758z"/>
						<path fill="#023C4E" d="M242.441,21.76c1.135-0.002,2.059,0.922,2.059,2.061c0,1.135-0.923,2.058-2.059,2.056
							c-1.137,0.001-2.058-0.923-2.058-2.059C240.385,22.681,241.305,21.758,242.441,21.76z"/>
					</g>
					<g>
						<circle fill="#023C4E" cx="118.936" cy="8.173" r="2.06"/>
						<circle fill="#023C4E" cx="132.657" cy="8.173" r="2.059"/>
						<path fill="#023C4E" d="M146.382,6.115c1.133-0.001,2.058,0.922,2.056,2.058c0,1.136-0.923,2.059-2.057,2.061
							c-1.138,0-2.059-0.923-2.057-2.061C144.322,7.037,145.243,6.114,146.382,6.115z"/>
						<circle fill="#023C4E" cx="160.102" cy="8.172" r="2.059"/>
						<circle fill="#023C4E" cx="173.826" cy="8.174" r="2.06"/>
						<circle fill="#023C4E" cx="187.549" cy="8.174" r="2.06"/>
						<path fill="#023C4E" d="M201.274,6.114c1.135,0,2.056,0.924,2.057,2.061c-0.001,1.134-0.923,2.059-2.06,2.058
							c-1.134,0-2.059-0.922-2.06-2.059C199.212,7.037,200.138,6.113,201.274,6.114z"/>
						<circle fill="#023C4E" cx="214.996" cy="8.174" r="2.059"/>
						<path fill="#023C4E" d="M228.717,6.113c1.14,0.003,2.059,0.924,2.061,2.062c0,1.137-0.922,2.058-2.06,2.058
							c-1.136,0.001-2.057-0.923-2.058-2.057C226.66,7.037,227.582,6.114,228.717,6.113z"/>
						<path fill="#023C4E" d="M242.441,6.115c1.135-0.002,2.059,0.923,2.059,2.061c0,1.135-0.924,2.059-2.059,2.056
							c-1.137,0.002-2.058-0.923-2.058-2.059C240.385,7.037,241.305,6.113,242.441,6.115z"/>
					</g>
				</g>
			</g>
			<g>
				<defs>
					
						<rect id="SVGID_537_" x="40.056" y="300.436" transform="matrix(0.7071 -0.7071 0.7071 0.7071 -200.9772 146.6691)" width="73" height="30.999"/>
				</defs>
				<use xlink:href="#SVGID_537_"  overflow="visible" fill="#FFFFFF"/>
				<clipPath id="SVGID_8_">
					<use xlink:href="#SVGID_537_"  overflow="visible"/>
				</clipPath>
				<g clip-path="url(#SVGID_8_)">
					
						<line fill="none" stroke="#023C4E" stroke-width="4" stroke-miterlimit="10" x1="25.318" y1="213.515" x2="25.32" y2="344.094"/>
					
						<line fill="none" stroke="#023C4E" stroke-width="4" stroke-miterlimit="10" x1="39.023" y1="218.485" x2="39.026" y2="349.064"/>
					
						<line fill="none" stroke="#023C4E" stroke-width="4" stroke-miterlimit="10" x1="52.729" y1="223.455" x2="52.731" y2="354.035"/>
					
						<line fill="none" stroke="#023C4E" stroke-width="4" stroke-miterlimit="10" x1="66.436" y1="228.425" x2="66.438" y2="359.005"/>
					
						<line fill="none" stroke="#023C4E" stroke-width="4" stroke-miterlimit="10" x1="80.141" y1="233.396" x2="80.143" y2="363.975"/>
					
						<line fill="none" stroke="#023C4E" stroke-width="4" stroke-miterlimit="10" x1="93.847" y1="238.366" x2="93.849" y2="368.945"/>
					
						<line fill="none" stroke="#023C4E" stroke-width="4" stroke-miterlimit="10" x1="107.553" y1="243.336" x2="107.555" y2="373.916"/>
					
						<line fill="none" stroke="#023C4E" stroke-width="4" stroke-miterlimit="10" x1="121.258" y1="248.307" x2="121.261" y2="378.886"/>
					
						<line fill="none" stroke="#023C4E" stroke-width="4" stroke-miterlimit="10" x1="134.964" y1="253.276" x2="134.966" y2="383.856"/>
					
						<line fill="none" stroke="#023C4E" stroke-width="4" stroke-miterlimit="10" x1="148.67" y1="258.247" x2="148.672" y2="388.826"/>
				</g>
				
					<use xlink:href="#SVGID_537_"  overflow="visible" fill="none" stroke="#023C4E" stroke-width="4" stroke-linecap="round" stroke-linejoin="round" stroke-miterlimit="10"/>
			</g>
			<g>
				<defs>
					
						<rect id="SVGID_539_" x="223.046" y="98.202" transform="matrix(0.7071 -0.7071 0.7071 0.7071 0.0129 227.4359)" width="103" height="31"/>
				</defs>
				<use xlink:href="#SVGID_539_"  overflow="visible" fill="#FFFFFF"/>
				<clipPath id="SVGID_10_">
					<use xlink:href="#SVGID_539_"  overflow="visible"/>
				</clipPath>
				<g clip-path="url(#SVGID_10_)">
					
						<line fill="none" stroke="#023C4E" stroke-width="4" stroke-miterlimit="10" x1="213.318" y1="14.515" x2="213.32" y2="145.094"/>
					
						<line fill="none" stroke="#023C4E" stroke-width="4" stroke-miterlimit="10" x1="227.024" y1="19.485" x2="227.026" y2="150.064"/>
					
						<line fill="none" stroke="#023C4E" stroke-width="4" stroke-miterlimit="10" x1="240.729" y1="24.455" x2="240.731" y2="155.035"/>
					
						<line fill="none" stroke="#023C4E" stroke-width="4" stroke-miterlimit="10" x1="254.436" y1="29.425" x2="254.438" y2="160.005"/>
					
						<line fill="none" stroke="#023C4E" stroke-width="4" stroke-miterlimit="10" x1="268.141" y1="34.396" x2="268.144" y2="164.975"/>
					
						<line fill="none" stroke="#023C4E" stroke-width="4" stroke-miterlimit="10" x1="281.847" y1="39.366" x2="281.849" y2="169.945"/>
					
						<line fill="none" stroke="#023C4E" stroke-width="4" stroke-miterlimit="10" x1="295.553" y1="44.336" x2="295.555" y2="174.916"/>
				</g>
				
					<use xlink:href="#SVGID_539_"  overflow="visible" fill="none" stroke="#023C4E" stroke-width="4" stroke-linecap="round" stroke-linejoin="round" stroke-miterlimit="10"/>
			</g>
			
				<path fill="#FFFFFF" stroke="#023C4E" stroke-width="4" stroke-linecap="round" stroke-linejoin="round" stroke-miterlimit="10" d="
				M283.12,295.981l-1.375-9.377l-9.761-8.347l-8.704-8.705l-13.937,23.161l-2.506-2.508l7.512-28.171l-11.166-11.164
				c-2.305-2.308-2.614-6.01-0.744-7.88c1.869-1.87,5.572-1.563,7.88,0.744l11.326,11.326l28.417-8.079l2.506,2.506l-22.877,13.621
				l8.721,8.72l8.348,9.762l9.378,1.375L283.12,295.981z"/>
		</g>
	</g>
	<g id="Isolation_Mode">
		<g>
			<defs>
				<rect id="SVGID_541_" x="-399" y="4" width="296" height="296"/>
			</defs>
			<clipPath id="SVGID_12_">
				<use xlink:href="#SVGID_541_"  overflow="visible"/>
			</clipPath>
			<g clip-path="url(#SVGID_12_)">
				<path fill="#FFFFFF" stroke="#023C4E" stroke-width="4" stroke-miterlimit="10" d="M-284.225-15.22l75.697,75.697
					l-56.568,56.569l-75.7-75.701L-284.225-15.22z M-482.203,182.638l129.649-129.648l75.659,75.661L-406.544,258.3
					L-482.203,182.638z M-360.814,234.873l164.056-164.145l57.593,57.682l-164.043,164.068L-360.814,234.873z M-193.283,503.843
					l-43.383-44.896l191.384-191.384l44.274,44.274L-193.283,503.843z M-342.268,353.83l147.078-147.078l93.668,93.667
					l-147.289,146.867L-342.268,353.83z M162.24,150.55L11.993,300.797l-56.866-56.866l-45.223,45.287l-93.454-93.454
					L-10.885,23.458c3.171-3.168,3.266-8.572,0.1-11.737c-3.177-3.174-8.27-3.305-11.433-0.136l-105.159,105.197l-57.702-57.319
					L-79.621-45.996c3.171-3.17,3.25-8.224,0.082-11.394c-3.172-3.17-8.227-3.089-11.396,0.081L-196.604,48.359l-81.383-81.383
					c-3.172-3.172-6.996-2.772-10.168,0.4l-63.172,63.172l-97.513-98.009l-10.786,11.19l97.559,97.558l-131.528,131.529
					l-37.394-37.391c-3.168-3.169-7.668-3.816-10.838-0.645l-97.17,97.169c-3.17,3.17-3.165,8.317,0.009,11.491
					c3.169,3.167,8.4,3.404,11.571,0.232l90.876-91.188l118.101,118.1l-28.256,28.251c-3.172,3.172-3.357,7.974-0.187,11.145
					c2.123,2.123,5.13,2.737,7.841,2.013c1.333-0.357,2.578-1.149,3.622-2.193l62.746-62.746l57.87,57.87l-62.785,62.781
					c-3.174,3.174-3.361,8.087-0.19,11.256c2.126,2.127,4.991,2.663,7.704,1.938c1.328-0.357,2.188-1.158,3.233-2.201l12.548-12.854
					l149.911,149.911l-12.544,12.544c-3.172,3.171-3.553,7.925-0.381,11.097c2.123,2.127,4.947,2.633,7.652,1.904
					c1.332-0.355,2.99-1.386,4.037-2.43L9.924,322.769l198.645,198.645l11.314-11.313L21.893,312.11l150.597-150.597L162.24,150.55z
					"/>
				<g>
					<defs>
						<polygon id="SVGID_545_" points="12.414,-23.065 -127.307,116.656 -185.506,58.457 -45.687,-81.307 						"/>
					</defs>
					<clipPath id="SVGID_14_">
						<use xlink:href="#SVGID_545_"  overflow="visible"/>
					</clipPath>
				</g>
			</g>
		</g>
	</g>
	<g>
		
			<line fill="none" stroke="#023C4E" stroke-width="4" stroke-linecap="round" stroke-miterlimit="10" x1="102" y1="2" x2="102" y2="302"/>
		
			<line fill="none" stroke="#023C4E" stroke-width="4" stroke-linecap="round" stroke-miterlimit="10" x1="202" y1="2" x2="202" y2="302"/>
		
			<line fill="none" stroke="#023C4E" stroke-width="4" stroke-linecap="round" stroke-miterlimit="10" x1="2" y1="102" x2="302" y2="102"/>
		
			<line fill="none" stroke="#023C4E" stroke-width="4" stroke-linecap="round" stroke-miterlimit="10" x1="2" y1="202" x2="302" y2="202"/>
	</g>
	<g>
		
			<path fill="#FFFFFF" stroke="#EB5C1C" stroke-width="4" stroke-linecap="round" stroke-linejoin="round" stroke-miterlimit="10" d="
			M69.126,235.024c0,10.268-18.231,35.9-18.231,35.9s-18.218-25.633-18.218-35.9c0-10.254,8.157-18.572,18.218-18.572
			C60.966,216.452,69.126,224.771,69.126,235.024z"/>
		
			<path fill="#FFFFFF" stroke="#EB5C1C" stroke-width="4" stroke-linecap="round" stroke-linejoin="round" stroke-miterlimit="10" d="
			M57.9,234.622c0,3.966-3.108,7.19-6.992,7.19c-3.878,0-7.008-3.225-7.008-7.19c0-3.953,3.13-7.134,7.008-7.134
			C54.792,227.488,57.9,230.669,57.9,234.622z"/>
	</g>
	<g>
		
			<path fill="#FFFFFF" stroke="#EB5C1C" stroke-width="4" stroke-linecap="round" stroke-linejoin="round" stroke-miterlimit="10" d="
			M62.125,42.915c0,10.268-18.231,35.9-18.231,35.9s-18.218-25.633-18.218-35.9c0-10.254,8.157-18.572,18.218-18.572
			C53.965,24.343,62.125,32.661,62.125,42.915z"/>
		
			<path fill="#FFFFFF" stroke="#EB5C1C" stroke-width="4" stroke-linecap="round" stroke-linejoin="round" stroke-miterlimit="10" d="
			M50.899,42.513c0,3.966-3.108,7.19-6.992,7.19c-3.878,0-7.008-3.225-7.008-7.19c0-3.953,3.13-7.134,7.008-7.134
			C47.791,35.379,50.899,38.56,50.899,42.513z"/>
	</g>
	<g>
		
			<path fill="#FFFFFF" stroke="#EB5C1C" stroke-width="4" stroke-linecap="round" stroke-linejoin="round" stroke-miterlimit="10" d="
			M162.016,110.936c0,10.268-18.231,35.9-18.231,35.9s-18.218-25.633-18.218-35.9c0-10.254,8.157-18.572,18.218-18.572
			C153.855,92.363,162.016,100.682,162.016,110.936z"/>
		
			<path fill="#FFFFFF" stroke="#EB5C1C" stroke-width="4" stroke-linecap="round" stroke-linejoin="round" stroke-miterlimit="10" d="
			M150.79,110.533c0,3.966-3.108,7.19-6.992,7.19c-3.878,0-7.008-3.225-7.008-7.19c0-3.953,3.13-7.134,7.008-7.134
			C147.682,103.399,150.79,106.58,150.79,110.533z"/>
	</g>
	<g>
		
			<path fill="#FFFFFF" stroke="#EB5C1C" stroke-width="4" stroke-linecap="round" stroke-linejoin="round" stroke-miterlimit="10" d="
			M284.788,193.336c0,10.268-18.231,35.9-18.231,35.9s-18.218-25.633-18.218-35.9c0-10.254,8.157-18.572,18.218-18.572
			C276.628,174.764,284.788,183.082,284.788,193.336z"/>
		
			<path fill="#FFFFFF" stroke="#EB5C1C" stroke-width="4" stroke-linecap="round" stroke-linejoin="round" stroke-miterlimit="10" d="
			M273.562,192.934c0,3.966-3.108,7.19-6.992,7.19c-3.878,0-7.008-3.225-7.008-7.19c0-3.953,3.13-7.134,7.008-7.134
			C270.454,185.8,273.562,188.98,273.562,192.934z"/>
	</g>
	<g>
		
			<path fill="#FFFFFF" stroke="#EB5C1C" stroke-width="4" stroke-linecap="round" stroke-linejoin="round" stroke-miterlimit="10" d="
			M279.396,59.115c0,10.268-18.231,35.9-18.231,35.9s-18.218-25.633-18.218-35.9c0-10.254,8.157-18.572,18.218-18.572
			C271.236,40.543,279.396,48.861,279.396,59.115z"/>
		
			<path fill="#FFFFFF" stroke="#EB5C1C" stroke-width="4" stroke-linecap="round" stroke-linejoin="round" stroke-miterlimit="10" d="
			M268.171,58.713c0,3.966-3.108,7.19-6.992,7.19c-3.878,0-7.008-3.225-7.008-7.19c0-3.953,3.13-7.134,7.008-7.134
			C265.062,51.579,268.171,54.76,268.171,58.713z"/>
	</g>
	<g>
		<defs>
			<rect id="SVGID_549_" x="399" y="6" width="296" height="296"/>
		</defs>
		<clipPath id="SVGID_16_">
			<use xlink:href="#SVGID_549_"  overflow="visible"/>
		</clipPath>
		<g clip-path="url(#SVGID_16_)">
			<polyline fill="#FFFFFF" stroke="#023C4E" stroke-width="4" stroke-miterlimit="10" points="632.041,233.182 697.066,168.156 
				666.394,137.484 760.915,42.963 532.855,-185.097 204.763,142.997 432.822,371.057 465.452,403.22 552.906,312.317 
				589.713,275.51 			"/>
		</g>
		<g clip-path="url(#SVGID_16_)">
			<g>
				<defs>
					<polygon id="SVGID_551_" points="376.501,401.133 501.547,276.088 352.844,127.388 224.439,255.792 					"/>
				</defs>
				<clipPath id="SVGID_18_">
					<use xlink:href="#SVGID_551_"  overflow="visible"/>
				</clipPath>
				<use xlink:href="#SVGID_551_"  overflow="visible" fill="none" stroke="#023C4E" stroke-width="3.831" stroke-miterlimit="10"/>
			</g>
		</g>
	</g>
</g>
<g id="Layer_4">
</g>
<g id="_x2014__x2014_Arrow">
</g>
<g id="Isolation_Mode_1_">
</g>
</svg>
