<?xml version="1.0" encoding="utf-8"?>
<!-- Generator: Adobe Illustrator 16.0.0, SVG Export Plug-In . SVG Version: 6.00 Build 0)  -->
<!DOCTYPE svg PUBLIC "-//W3C//DTD SVG 1.1//EN" "http://www.w3.org/Graphics/SVG/1.1/DTD/svg11.dtd">
<svg version="1.1" xmlns="http://www.w3.org/2000/svg" xmlns:xlink="http://www.w3.org/1999/xlink" x="0px" y="0px" width="70px"
	 height="59.129px" viewBox="0 0 70 59.129" enable-background="new 0 0 70 59.129" xml:space="preserve">
<g id="image">
</g>
<g id="Layer_1">
	<g id="Isolation_Mode">
	</g>
	<g>
		<path fill-rule="evenodd" clip-rule="evenodd" fill="#023C4E" d="M32.242,59.129c16.326,0,29.565-13.236,29.565-29.564
			C61.808,13.239,48.568,0,32.242,0C15.912,0,2.678,13.239,2.678,29.564C2.678,45.893,15.912,59.129,32.242,59.129L32.242,59.129
			L32.242,59.129z"/>
		<path fill="#FFFFFF" d="M31.937,40.529c-0.611-0.138-2.345-1.698-2.345-1.698l-0.541,0.511c0,0,1.255,1.458,2.002,2.475
			L31.937,40.529L31.937,40.529L31.937,40.529z"/>
		<path fill="#FFFFFF" d="M23.86,46.533c0.189,0,0.347-0.153,0.347-0.346S24.05,45.84,23.86,45.84c-0.191,0-0.352,0.155-0.352,0.348
			S23.669,46.533,23.86,46.533L23.86,46.533L23.86,46.533z"/>
		<path fill="#FFFFFF" d="M24.183,49.258c0.144,0,0.263-0.117,0.263-0.263c0-0.146-0.119-0.266-0.263-0.266
			c-0.148,0-0.265,0.119-0.265,0.266C23.918,49.141,24.034,49.258,24.183,49.258L24.183,49.258L24.183,49.258z"/>
		<path fill="#FFFFFF" d="M36.421,46.673c0.136,0,0.241-0.106,0.241-0.242c0-0.13-0.105-0.237-0.241-0.237
			c-0.13,0-0.237,0.107-0.237,0.237C36.184,46.566,36.291,46.673,36.421,46.673L36.421,46.673L36.421,46.673z"/>
		<path fill="#FFFFFF" d="M44.711,41.611c0.095,0,0.171-0.076,0.171-0.168s-0.076-0.168-0.171-0.168
			c-0.089,0-0.167,0.076-0.167,0.168S44.622,41.611,44.711,41.611L44.711,41.611L44.711,41.611z"/>
		<path fill="#FFFFFF" d="M44.952,44.904c0.089,0,0.167-0.074,0.167-0.169s-0.078-0.168-0.167-0.168
			c-0.092,0-0.171,0.073-0.171,0.168S44.86,44.904,44.952,44.904L44.952,44.904L44.952,44.904z"/>
		<path fill="#FFFFFF" d="M46.505,51.132c0.191,0,0.346-0.153,0.346-0.347c0-0.191-0.154-0.349-0.346-0.349
			c-0.192,0-0.347,0.157-0.347,0.349C46.158,50.979,46.312,51.132,46.505,51.132L46.505,51.132L46.505,51.132z"/>
		<path fill="#FFFFFF" d="M46.843,40.227c0.197,0,0.359-0.16,0.359-0.359c0-0.201-0.162-0.36-0.359-0.36s-0.362,0.159-0.362,0.36
			C46.48,40.066,46.646,40.227,46.843,40.227L46.843,40.227L46.843,40.227z"/>
		<path fill="#FFFFFF" d="M46.945,42.244c0.098,0,0.181-0.081,0.181-0.182c0-0.097-0.083-0.181-0.181-0.181
			c-0.101,0-0.182,0.084-0.182,0.181C46.764,42.163,46.845,42.244,46.945,42.244L46.945,42.244L46.945,42.244z"/>
		<path fill="#FFFFFF" d="M50.312,38.409c0.101,0,0.182-0.08,0.182-0.182c0-0.098-0.081-0.179-0.182-0.179
			c-0.098,0-0.179,0.081-0.179,0.179C50.134,38.329,50.215,38.409,50.312,38.409L50.312,38.409L50.312,38.409z"/>
		<path fill="#FFFFFF" d="M53.606,42.182c0.125,0,0.228-0.102,0.228-0.229c0-0.125-0.103-0.229-0.228-0.229
			c-0.127,0-0.229,0.104-0.229,0.229C53.377,42.08,53.479,42.182,53.606,42.182L53.606,42.182L53.606,42.182z"/>
		<path fill="#FFFFFF" d="M55.084,41.479c0.167,0,0.3-0.133,0.3-0.3c0-0.163-0.133-0.299-0.3-0.299
			c-0.165,0-0.301,0.136-0.301,0.299C54.783,41.346,54.919,41.479,55.084,41.479L55.084,41.479L55.084,41.479z"/>
		<path fill="#FFFFFF" d="M50.856,44.641c0.156,0,0.286-0.127,0.286-0.288c0-0.155-0.13-0.287-0.286-0.287
			c-0.16,0-0.29,0.132-0.29,0.287C50.566,44.514,50.696,44.641,50.856,44.641L50.856,44.641L50.856,44.641z"/>
		<path fill="#FFFFFF" d="M53.888,46.019c0.084,0,0.154-0.069,0.154-0.155c0-0.084-0.07-0.154-0.154-0.154
			c-0.086,0-0.159,0.07-0.159,0.154C53.729,45.949,53.802,46.019,53.888,46.019L53.888,46.019L53.888,46.019z"/>
		<path fill="#FFFFFF" d="M34.642,7.435c0.2,0,0.359-0.165,0.359-0.362s-0.159-0.359-0.359-0.359s-0.357,0.162-0.357,0.359
			S34.441,7.435,34.642,7.435L34.642,7.435L34.642,7.435z"/>
		<path fill="#FFFFFF" d="M33.216,3.67c0.114,0,0.206-0.09,0.206-0.203c0-0.11-0.092-0.204-0.206-0.204
			c-0.11,0-0.205,0.094-0.205,0.204C33.011,3.58,33.105,3.67,33.216,3.67L33.216,3.67L33.216,3.67z"/>
		<path fill="#FFFFFF" d="M32.87,8.322c0.062,0,0.116-0.055,0.116-0.122c0-0.065-0.054-0.12-0.116-0.12
			c-0.067,0-0.119,0.055-0.119,0.12C32.751,8.268,32.803,8.322,32.87,8.322L32.87,8.322L32.87,8.322z"/>
		<path fill="#FFFFFF" d="M27.244,8.874c0.146,0,0.263-0.119,0.263-0.267c0-0.145-0.116-0.263-0.263-0.263
			c-0.146,0-0.265,0.118-0.265,0.263C26.979,8.755,27.099,8.874,27.244,8.874L27.244,8.874L27.244,8.874z"/>
		<path fill="#FFFFFF" d="M26.76,8.263c0.068,0,0.119-0.055,0.119-0.122c0-0.066-0.051-0.119-0.119-0.119
			c-0.064,0-0.121,0.053-0.121,0.119C26.639,8.208,26.695,8.263,26.76,8.263L26.76,8.263L26.76,8.263z"/>
		<path fill="#FFFFFF" d="M38.434,13.655c0.141,0,0.252-0.113,0.252-0.254c0-0.14-0.111-0.249-0.252-0.249
			c-0.138,0-0.249,0.109-0.249,0.249C38.185,13.542,38.296,13.655,38.434,13.655L38.434,13.655L38.434,13.655z"/>
		<path fill="#FFFFFF" d="M41.509,28.394c0,0,4.443,1.366,2.948,5.192c0,0-1.932,3.904-7.668,2.005l-1.171,1.049l-0.043-3.705
			l1.671,1.263c0,0,3.835,1.044,3.905-1.154c0,0-0.197-0.812-3.14-1.714c0,0-3.43-1.052-2.647-4.071c0,0,0.543-4.701,7.349-2.797
			l1.185-0.646l-0.017,3.595l-1.469-1.44c0,0-3.069-0.991-3.529,0.502C38.385,28.096,40.387,27.989,41.509,28.394L41.509,28.394
			L41.509,28.394z"/>
		<polygon fill="#FFFFFF" points="48.173,24.229 53.302,24.229 57.439,34.2 58.797,35.521 51.809,35.521 52.928,34.403 
			52.352,32.907 48.584,32.907 48.141,34.468 48.923,35.521 45.596,35.521 46.734,34.385 49.482,25.628 48.173,24.229 
			48.173,24.229 		"/>
		<polygon fill-rule="evenodd" clip-rule="evenodd" fill="#023C4E" points="51.841,31.349 50.245,27.477 49.022,31.349 
			51.841,31.349 51.841,31.349 		"/>
		<path fill="#FFFFFF" d="M31.304,6.649c0.198,0,0.36-0.161,0.36-0.361c0-0.199-0.162-0.36-0.36-0.36
			c-0.197,0-0.359,0.161-0.359,0.36C30.944,6.488,31.106,6.649,31.304,6.649L31.304,6.649L31.304,6.649z"/>
		<path fill="#FFFFFF" d="M22.098,14.646c0.138,0,0.254-0.116,0.254-0.254c0-0.141-0.116-0.253-0.254-0.253
			c-0.141,0-0.252,0.112-0.252,0.253C21.846,14.529,21.957,14.646,22.098,14.646L22.098,14.646L22.098,14.646z"/>
		<path fill="#FFFFFF" d="M22.86,15.914c0.141,0,0.251-0.112,0.251-0.249c0-0.138-0.11-0.251-0.251-0.251
			c-0.139,0-0.252,0.113-0.252,0.251C22.608,15.802,22.722,15.914,22.86,15.914L22.86,15.914L22.86,15.914z"/>
		<path fill="#FFFFFF" d="M25.067,18.795c0.064,0,0.119-0.052,0.119-0.119c0-0.065-0.055-0.119-0.119-0.119
			c-0.065,0-0.119,0.054-0.119,0.119C24.948,18.743,25.002,18.795,25.067,18.795L25.067,18.795L25.067,18.795z"/>
		<path fill="#FFFFFF" d="M27.866,9.079c0.067,0,0.122-0.054,0.122-0.117c0-0.068-0.055-0.118-0.122-0.118
			c-0.064,0-0.119,0.05-0.119,0.118C27.747,9.025,27.802,9.079,27.866,9.079L27.866,9.079L27.866,9.079z"/>
		<path fill="#FFFFFF" d="M27.528,10.523c0.113,0,0.203-0.092,0.203-0.205c0-0.114-0.09-0.205-0.203-0.205
			c-0.111,0-0.206,0.091-0.206,0.205C27.322,10.432,27.417,10.523,27.528,10.523L27.528,10.523L27.528,10.523z"/>
		<path fill="#FFFFFF" d="M31.771,9.079c0.111,0,0.203-0.089,0.203-0.203c0-0.113-0.092-0.205-0.203-0.205
			c-0.113,0-0.208,0.092-0.208,0.205C31.563,8.99,31.658,9.079,31.771,9.079L31.771,9.079L31.771,9.079z"/>
		<path fill="#FFFFFF" d="M34.354,10.607c0.114,0,0.209-0.092,0.209-0.204s-0.095-0.204-0.209-0.204
			c-0.107,0-0.199,0.092-0.199,0.204S34.247,10.607,34.354,10.607L34.354,10.607L34.354,10.607z"/>
		<path fill="#FFFFFF" d="M51.714,46.363c0.246,0,0.449-0.205,0.449-0.451c0-0.249-0.203-0.449-0.449-0.449
			c-0.249,0-0.449,0.2-0.449,0.449C51.265,46.158,51.465,46.363,51.714,46.363L51.714,46.363L51.714,46.363z"/>
		<polygon fill="#FFFFFF" points="51.446,45.544 51.717,44.778 51.963,45.533 51.446,45.544 51.446,45.544 		"/>
		<polygon fill="#FFFFFF" points="51.446,46.252 51.717,47.013 51.963,46.261 51.446,46.252 51.446,46.252 		"/>
		<polygon fill="#FFFFFF" points="51.349,46.188 50.586,45.914 51.341,45.668 51.349,46.188 51.349,46.188 		"/>
		<polygon fill="#FFFFFF" points="52.07,46.188 52.831,45.914 52.079,45.668 52.07,46.188 52.07,46.188 		"/>
		<path fill="#FFFFFF" d="M50.902,40.132c0.157,0,0.289-0.127,0.289-0.29c0-0.156-0.132-0.283-0.289-0.283
			c-0.16,0-0.287,0.127-0.287,0.283C50.615,40.005,50.742,40.132,50.902,40.132L50.902,40.132L50.902,40.132z"/>
		<path fill="#FFFFFF" d="M41.611,51.884c0.16,0,0.29-0.129,0.29-0.288c0-0.158-0.13-0.288-0.29-0.288
			c-0.156,0-0.286,0.13-0.286,0.288C41.325,51.755,41.455,51.884,41.611,51.884L41.611,51.884L41.611,51.884z"/>
		<path fill="#FFFFFF" d="M30.92,48.745c0.162,0,0.289-0.13,0.289-0.288c0-0.16-0.127-0.29-0.289-0.29
			c-0.157,0-0.284,0.13-0.284,0.29C30.636,48.615,30.763,48.745,30.92,48.745L30.92,48.745L30.92,48.745z"/>
		<path fill="#FFFFFF" d="M20.866,48.83c0.16,0,0.29-0.129,0.29-0.289c0-0.157-0.13-0.287-0.29-0.287
			c-0.156,0-0.286,0.13-0.286,0.287C20.58,48.701,20.71,48.83,20.866,48.83L20.866,48.83L20.866,48.83z"/>
		<path fill="#FFFFFF" d="M22.011,42.244c0.108,0,0.194-0.09,0.194-0.195c0-0.103-0.086-0.191-0.194-0.191
			c-0.103,0-0.189,0.089-0.189,0.191C21.821,42.154,21.908,42.244,22.011,42.244L22.011,42.244L22.011,42.244z"/>
		<path fill="#FFFFFF" d="M18.576,44.617c0.107,0,0.191-0.085,0.191-0.19s-0.084-0.192-0.191-0.192
			c-0.105,0-0.192,0.087-0.192,0.192S18.471,44.617,18.576,44.617L18.576,44.617L18.576,44.617z"/>
		<path fill="#FFFFFF" d="M22.735,36.77c0.105,0,0.189-0.086,0.189-0.191s-0.084-0.195-0.189-0.195c-0.108,0-0.194,0.09-0.194,0.195
			S22.627,36.77,22.735,36.77L22.735,36.77L22.735,36.77z"/>
		<path fill="#FFFFFF" d="M10.856,42.326c0.105,0,0.189-0.085,0.189-0.19s-0.084-0.194-0.189-0.194
			c-0.108,0-0.191,0.089-0.191,0.194S10.748,42.326,10.856,42.326L10.856,42.326L10.856,42.326z"/>
		<path fill="#FFFFFF" d="M14.037,42.624c0.105,0,0.192-0.087,0.192-0.193c0-0.104-0.087-0.189-0.192-0.189
			c-0.103,0-0.191,0.085-0.191,0.189C13.846,42.537,13.935,42.624,14.037,42.624L14.037,42.624L14.037,42.624z"/>
		<path fill="#FFFFFF" d="M13.442,44.181c0.192,0,0.352-0.155,0.352-0.349c0-0.192-0.159-0.348-0.352-0.348
			c-0.189,0-0.349,0.155-0.349,0.348C13.094,44.025,13.253,44.181,13.442,44.181L13.442,44.181L13.442,44.181z"/>
		<path fill="#FFFFFF" d="M14.546,45.495c0.194,0,0.349-0.154,0.349-0.348S14.74,44.8,14.546,44.8c-0.192,0-0.347,0.154-0.347,0.348
			S14.354,45.495,14.546,45.495L14.546,45.495L14.546,45.495z"/>
		<path fill-rule="evenodd" clip-rule="evenodd" fill="#849CA5" d="M58.757,12.86C64.077,8.474,68.456,4.699,70,1.84
			c0,0-3.381,11.302-19.16,23.11c0,0-24.096,16.442-30.679,21.059c0,0-6.078,4.291-11.235,10.946l-0.119-1.088
			c0,0,3.862-5.685,12.658-11.893c7.737-5.466,10.621-7.3,10.621-7.3s18.381-11.503,22.181-16.512c0,0-13.186,7.57-35.924,11.966
			c0,0-10.519,2.646-17.391,6.939H0c0,0,5.999-5.1,19.912-9.054C19.912,30.015,43.459,23.024,58.757,12.86L58.757,12.86
			L58.757,12.86z"/>
		<polygon fill="#FFFFFF" points="7.922,24.271 12.677,24.271 16.75,31.125 16.75,25.118 16.001,24.271 18.989,24.271 18.24,25.424 
			18.24,34.35 19.328,35.539 14.575,35.539 10.513,28.506 10.513,34.393 11.384,35.556 7.789,35.556 8.807,34.316 8.807,25.628 
			7.922,24.271 7.922,24.271 		"/>
		<polygon fill="#FFFFFF" points="23.755,24.258 29.008,24.258 32.768,34.224 34.122,35.547 27.388,35.547 28.51,34.428 
			27.932,32.935 24.164,32.935 23.937,34.495 24.716,35.547 21.178,35.547 22.44,34.408 25.064,25.653 23.755,24.258 23.755,24.258 
					"/>
		<polygon fill-rule="evenodd" clip-rule="evenodd" fill="#FFFFFF" points="27.423,31.374 25.824,27.504 24.604,31.374 
			27.423,31.374 27.423,31.374 		"/>
		<polygon fill-rule="evenodd" clip-rule="evenodd" fill="#023C4E" points="25.641,28.158 26.041,28.01 26.934,30.193 
			24.812,30.722 25.641,28.158 25.641,28.158 		"/>
		<path fill="#FFFFFF" d="M35.482,28.921c0,0-1.187-3.222,2.375-4.41c0,0,1.696-1.359,5.261,0l0.779-0.696v3.595
			c0,0-1.629-1.71-2.816-1.883c-1.187-0.169-2.374,0.173-2.207,1.863L35.482,28.921L35.482,28.921L35.482,28.921z"/>
		<path fill="#FFFFFF" d="M38.531,20.964l0.002,0.003L38.531,20.964L38.531,20.964L38.531,20.964z M38.166,45.879
			c1.747,1.032,3.43,1.68,4.903,1.879c1.406,0.19,2.624-0.023,3.519-0.702c0.119-0.087,0.228-0.179,0.339-0.284
			c4.219-4.027-0.812-17.323-8.669-25.557l-0.006-0.008c0,0-0.728-0.841-1.222-1.333l0.265-0.265
			c0.468,0.467,1.163,1.268,1.233,1.349v0.003v-0.003v0.003c7.974,8.357,13.015,21.922,8.652,26.081
			c-0.116,0.111-0.235,0.211-0.368,0.313c-0.981,0.737-2.288,0.973-3.792,0.771c-1.525-0.206-3.256-0.867-5.044-1.925L38.166,45.879
			L38.166,45.879L38.166,45.879z"/>
		<path fill="#FFFFFF" d="M37.871,20.82c-0.067-0.077-0.124-0.146-0.176-0.208h0.003c-0.068-0.076-0.127-0.146-0.179-0.203
			c-3.789-4.396-7.075-7.064-9.848-8.46c-3.232-1.623-5.748-1.51-7.538-0.378c-1.55,0.976-2.137,3.802-1.093,8.138
			c0.879,3.66,2.924,8.371,6.529,13.924l-0.006-0.009c0.011,0.013,3.313,4.571,3.671,4.845l-0.252,0.336
			c-0.419-0.314-3.754-4.921-3.762-4.932l-0.006-0.011c-3.635-5.602-5.699-10.354-6.589-14.057c-1.09-4.531-0.419-7.521,1.282-8.593
			c1.909-1.206,4.568-1.341,7.949,0.358c2.818,1.416,6.153,4.118,9.978,8.56c0.07,0.077,0.13,0.146,0.181,0.208h0.003
			c0.065,0.078,0.125,0.146,0.174,0.208L37.871,20.82L37.871,20.82L37.871,20.82z"/>
		<path fill="#FFFFFF" d="M31.239,42.034c0.825,0.708,1.73,1.005,2.025,0.661c0.292-0.343-0.138-1.195-0.963-1.901
			c-0.827-0.706-1.73-1.003-2.025-0.659C29.984,40.476,30.414,41.327,31.239,42.034L31.239,42.034L31.239,42.034z"/>
		<path fill="#FFFFFF" d="M38.985,7.547c0.312,0,0.562-0.252,0.562-0.563c0-0.308-0.251-0.558-0.562-0.558
			c-0.311,0-0.56,0.25-0.56,0.558C38.426,7.295,38.675,7.547,38.985,7.547L38.985,7.547L38.985,7.547z"/>
		<polygon fill="#FFFFFF" points="38.652,6.523 38.991,4.552 39.299,6.516 38.652,6.523 38.652,6.523 		"/>
		<polygon fill="#FFFFFF" points="38.652,7.41 38.991,9.382 39.299,7.421 38.652,7.41 38.652,7.41 		"/>
		<polygon fill="#FFFFFF" points="38.531,7.332 36.473,6.99 38.521,6.683 38.531,7.332 38.531,7.332 		"/>
		<polygon fill="#FFFFFF" points="39.432,7.332 41.574,6.99 39.442,6.683 39.432,7.332 39.432,7.332 		"/>
		<path fill="#FFFFFF" d="M25.216,15.479c0.311,0,0.56-0.252,0.56-0.562c0-0.309-0.249-0.56-0.56-0.56
			c-0.309,0-0.562,0.251-0.562,0.56C24.653,15.227,24.907,15.479,25.216,15.479L25.216,15.479L25.216,15.479z"/>
		<polygon fill="#FFFFFF" points="24.881,14.456 25.222,12.481 25.526,14.442 24.881,14.456 24.881,14.456 		"/>
		<polygon fill="#FFFFFF" points="24.881,15.342 25.222,17.313 25.526,15.349 24.881,15.342 24.881,15.342 		"/>
		<polygon fill="#FFFFFF" points="24.759,15.262 22.7,14.921 24.751,14.615 24.759,15.262 24.759,15.262 		"/>
		<polygon fill="#FFFFFF" points="25.662,15.262 27.804,14.921 25.673,14.615 25.662,15.262 25.662,15.262 		"/>
		<path fill="#FFFFFF" d="M22.103,52.768c0.309,0,0.562-0.248,0.562-0.56c0-0.311-0.254-0.562-0.562-0.562
			c-0.311,0-0.56,0.252-0.56,0.562C21.543,52.52,21.792,52.768,22.103,52.768L22.103,52.768L22.103,52.768z"/>
		<polygon fill="#FFFFFF" points="21.768,51.748 22.108,49.776 22.416,51.737 21.768,51.748 21.768,51.748 		"/>
		<polygon fill="#FFFFFF" points="21.768,52.636 22.108,54.607 22.416,52.644 21.768,52.636 21.768,52.636 		"/>
		<polygon fill="#FFFFFF" points="21.648,52.552 19.59,52.214 21.635,51.905 21.648,52.552 21.648,52.552 		"/>
		<polygon fill="#FFFFFF" points="22.552,52.552 24.688,52.214 22.56,51.905 22.552,52.552 22.552,52.552 		"/>
		<path fill="#FFFFFF" d="M54.427,40.043c0.313,0,0.564-0.252,0.564-0.562c0-0.312-0.251-0.562-0.564-0.562
			c-0.306,0-0.555,0.249-0.555,0.562C53.872,39.791,54.121,40.043,54.427,40.043L54.427,40.043L54.427,40.043z"/>
		<polygon fill="#FFFFFF" points="54.097,39.021 54.438,37.049 54.743,39.01 54.097,39.021 54.097,39.021 		"/>
		<polygon fill="#FFFFFF" points="54.097,39.907 54.438,41.879 54.743,39.918 54.097,39.907 54.097,39.907 		"/>
		<polygon fill="#FFFFFF" points="53.975,39.826 51.916,39.488 53.961,39.181 53.975,39.826 53.975,39.826 		"/>
		<polygon fill="#FFFFFF" points="54.873,39.826 57.021,39.488 54.884,39.181 54.873,39.826 54.873,39.826 		"/>
	</g>
</g>
<g id="Layer_4">
</g>
<g id="_x2014__x2014_Arrow">
</g>
<g id="Isolation_Mode_1_">
</g>
</svg>
