<?xml version="1.0" encoding="utf-8"?>
<!-- Generator: Adobe Illustrator 16.0.0, SVG Export Plug-In . SVG Version: 6.00 Build 0)  -->
<!DOCTYPE svg PUBLIC "-//W3C//DTD SVG 1.1//EN" "http://www.w3.org/Graphics/SVG/1.1/DTD/svg11.dtd">
<svg version="1.1" xmlns="http://www.w3.org/2000/svg" xmlns:xlink="http://www.w3.org/1999/xlink" x="0px" y="0px"
	 width="445.451px" height="375.889px" viewBox="0 0 445.451 375.889" enable-background="new 0 0 445.451 375.889"
	 xml:space="preserve">
<g id="image">
</g>
<g id="Layer_1">
	<g id="Isolation_Mode">
	</g>
</g>
<g id="Layer_4">
</g>
<g id="_x2014__x2014_Arrow">
</g>
<g id="Isolation_Mode_1_">
	<g>
		<line fill="none" stroke="#EB5C1C" stroke-width="5" stroke-miterlimit="10" x1="37.5" y1="286.849" x2="190.213" y2="146.524"/>
		
			<line fill="none" stroke="#EB5C1C" stroke-width="5" stroke-miterlimit="10" x1="410.451" y1="194.438" x2="190.213" y2="146.524"/>
		
			<line fill="none" stroke="#EB5C1C" stroke-width="5" stroke-miterlimit="10" x1="282.261" y1="356.389" x2="190.213" y2="146.524"/>
		<ellipse fill="#FFFFFF" stroke="#EB5C1C" stroke-width="5" stroke-miterlimit="10" cx="282.261" cy="358.389" rx="40" ry="15"/>
		<ellipse fill="#EB5C1C" cx="282.261" cy="358.389" rx="16" ry="6"/>
		<ellipse fill="#FFFFFF" stroke="#EB5C1C" stroke-width="5" stroke-miterlimit="10" cx="37.5" cy="286.805" rx="35" ry="12.5"/>
		<ellipse fill="#EB5C1C" cx="37.5" cy="286.805" rx="14" ry="5"/>
		
			<ellipse fill="#FFFFFF" stroke="#EB5C1C" stroke-width="5" stroke-miterlimit="10" cx="410.451" cy="194.627" rx="32.5" ry="12.001"/>
		<ellipse fill="#EB5C1C" cx="410.451" cy="194.627" rx="13" ry="4.8"/>
		<circle fill="#FFFFFF" stroke="#023C4E" stroke-width="4.5" stroke-miterlimit="10" cx="192.713" cy="18.45" r="16.2"/>
		<path fill="#FFFFFF" stroke="#023C4E" stroke-width="4.5" stroke-miterlimit="10" d="M210.713,62.532
			c0-9.64-8.119-17.932-17.747-17.932c-9.627,0-18.253,7.576-18.253,17.217c0,0.361,0,88.983,0,88.983h36
			C210.713,150.8,210.713,62.59,210.713,62.532z"/>
		<circle fill="#FFFFFF" stroke="#023C4E" stroke-width="4.75" stroke-miterlimit="10" cx="37.5" cy="145.285" r="17.1"/>
		<path fill="#FFFFFF" stroke="#023C4E" stroke-width="4.75" stroke-miterlimit="10" d="M56.5,191.871
			c0-10.175-8.57-18.928-18.732-18.928c-10.163,0-19.268,7.997-19.268,18.173c0,0.382,0,93.927,0,93.927h38
			C56.5,285.043,56.5,191.932,56.5,191.871z"/>
		<circle fill="#FFFFFF" stroke="#023C4E" stroke-width="5" stroke-miterlimit="10" cx="281.761" cy="208.676" r="18"/>
		<path fill="#FFFFFF" stroke="#023C4E" stroke-width="5" stroke-miterlimit="10" d="M301.761,257.767
			c0-10.711-9.021-19.924-19.719-19.924s-20.281,8.417-20.281,19.129c0,0.402,0,98.871,0,98.871h40
			C301.761,355.842,301.761,257.831,301.761,257.767z"/>
		<circle fill="#FFFFFF" stroke="#023C4E" stroke-width="4.625" stroke-miterlimit="10" cx="410.451" cy="55.984" r="16.65"/>
		<path fill="#FFFFFF" stroke="#023C4E" stroke-width="4.625" stroke-miterlimit="10" d="M428.951,101.317
			c0-9.907-8.345-18.43-18.24-18.43c-9.895,0-18.76,7.786-18.76,17.694c0,0.372,0,91.456,0,91.456h37
			C428.951,192.038,428.951,101.377,428.951,101.317z"/>
	</g>
</g>
</svg>
